<svg width="242" height="48" viewBox="0 0 242 48" fill="none" xmlns="http://www.w3.org/2000/svg">
<path d="M20.6708 27.7188L19.4812 26.5291C19.3766 26.4242 19.2525 26.341 19.1157 26.2842C18.979 26.2274 18.8323 26.1982 18.6843 26.1982C18.5362 26.1982 18.3896 26.2274 18.2529 26.2842C18.1161 26.341 17.9919 26.4242 17.8874 26.5291L12.584 31.8325L10.7812 27.13L10.769 27.0991C10.654 26.8314 10.4629 26.6034 10.2193 26.4436C9.97579 26.2837 9.69061 26.199 9.39928 26.2H9.32616C9.02244 26.2128 8.72996 26.3185 8.48832 26.503C8.24669 26.6874 8.06757 26.9417 7.97522 27.2313L3.07491 42.2388C2.98896 42.5014 2.97746 42.7827 3.04168 43.0514C3.10589 43.3202 3.24332 43.5659 3.4387 43.7613C3.63408 43.9566 3.87978 44.0941 4.14852 44.1583C4.41727 44.2225 4.69855 44.211 4.96116 44.125L19.9687 39.2247C20.2555 39.1288 20.5066 38.9484 20.6891 38.7072C20.8715 38.466 20.9768 38.1752 20.9911 37.8731C21.0054 37.571 20.928 37.2716 20.7692 37.0143C20.6103 36.7569 20.3773 36.5536 20.1008 36.431L20.0699 36.4188L15.3674 34.6122L20.6708 29.3097C20.8818 29.0988 21.0003 28.8126 21.0003 28.5143C21.0003 28.2159 20.8818 27.9298 20.6708 27.7188Z" fill="#FE7500"/>
<path d="M46 0.5H229.12C235.471 0.500058 240.62 5.64876 240.62 12V35.2002C240.62 41.5513 235.471 46.7001 229.12 46.7002H36C35.1716 46.7002 34.5001 46.0285 34.5 45.2002V12C34.5 5.64873 39.6487 0.5 46 0.5Z" fill="#FDF8ED"/>
<path d="M46 0.5H229.12C235.471 0.500058 240.62 5.64876 240.62 12V35.2002C240.62 41.5513 235.471 46.7001 229.12 46.7002H36C35.1716 46.7002 34.5001 46.0285 34.5 45.2002V12C34.5 5.64873 39.6487 0.5 46 0.5Z" stroke="white"/>
<path d="M53.71 18.36H55.26V25.095C55.26 25.8116 55.0917 26.4466 54.755 27C54.4183 27.55 53.945 27.9833 53.335 28.3C52.725 28.6133 52.01 28.77 51.19 28.77C50.3733 28.77 49.66 28.6133 49.05 28.3C48.44 27.9833 47.9667 27.55 47.63 27C47.2933 26.4466 47.125 25.8116 47.125 25.095V18.36H48.67V24.97C48.67 25.4333 48.7717 25.845 48.975 26.205C49.1817 26.565 49.4733 26.8483 49.85 27.055C50.2267 27.2583 50.6733 27.36 51.19 27.36C51.71 27.36 52.1583 27.2583 52.535 27.055C52.915 26.8483 53.205 26.565 53.405 26.205C53.6083 25.845 53.71 25.4333 53.71 24.97V18.36ZM63.1413 22.795L61.7863 23.035C61.7296 22.8616 61.6396 22.6966 61.5163 22.54C61.3963 22.3833 61.2329 22.255 61.0263 22.155C60.8196 22.055 60.5613 22.005 60.2513 22.005C59.8279 22.005 59.4746 22.1 59.1913 22.29C58.9079 22.4766 58.7663 22.7183 58.7663 23.015C58.7663 23.2716 58.8613 23.4783 59.0513 23.635C59.2413 23.7916 59.5479 23.92 59.9713 24.02L61.1913 24.3C61.8979 24.4633 62.4246 24.715 62.7713 25.055C63.1179 25.395 63.2913 25.8366 63.2913 26.38C63.2913 26.84 63.1579 27.25 62.8913 27.61C62.6279 27.9666 62.2596 28.2466 61.7863 28.45C61.3163 28.6533 60.7713 28.755 60.1513 28.755C59.2913 28.755 58.5896 28.5716 58.0463 28.205C57.5029 27.835 57.1696 27.31 57.0463 26.63L58.4913 26.41C58.5813 26.7866 58.7663 27.0716 59.0463 27.265C59.3263 27.455 59.6913 27.55 60.1413 27.55C60.6313 27.55 61.0229 27.4483 61.3163 27.245C61.6096 27.0383 61.7563 26.7866 61.7563 26.49C61.7563 26.25 61.6663 26.0483 61.4863 25.885C61.3096 25.7216 61.0379 25.5983 60.6713 25.515L59.3713 25.23C58.6546 25.0666 58.1246 24.8066 57.7813 24.45C57.4413 24.0933 57.2713 23.6416 57.2713 23.095C57.2713 22.6416 57.3979 22.245 57.6513 21.905C57.9046 21.565 58.2546 21.3 58.7013 21.11C59.1479 20.9166 59.6596 20.82 60.2363 20.82C61.0663 20.82 61.7196 21 62.1963 21.36C62.6729 21.7166 62.9879 22.195 63.1413 22.795ZM68.245 28.755C67.4883 28.755 66.8367 28.5933 66.29 28.27C65.7467 27.9433 65.3267 27.485 65.03 26.895C64.7367 26.3016 64.59 25.6066 64.59 24.81C64.59 24.0233 64.7367 23.33 65.03 22.73C65.3267 22.13 65.74 21.6616 66.27 21.325C66.8033 20.9883 67.4267 20.82 68.14 20.82C68.5733 20.82 68.9933 20.8916 69.4 21.035C69.8067 21.1783 70.1717 21.4033 70.495 21.71C70.8183 22.0166 71.0733 22.415 71.26 22.905C71.4467 23.3916 71.54 23.9833 71.54 24.68V25.21H65.435V24.09H70.075C70.075 23.6966 69.995 23.3483 69.835 23.045C69.675 22.7383 69.45 22.4966 69.16 22.32C68.8733 22.1433 68.5367 22.055 68.15 22.055C67.73 22.055 67.3633 22.1583 67.05 22.365C66.74 22.5683 66.5 22.835 66.33 23.165C66.1633 23.4916 66.08 23.8466 66.08 24.23V25.105C66.08 25.6183 66.17 26.055 66.35 26.415C66.5333 26.775 66.7883 27.05 67.115 27.24C67.4417 27.4266 67.8233 27.52 68.26 27.52C68.5433 27.52 68.8017 27.48 69.035 27.4C69.2683 27.3166 69.47 27.1933 69.64 27.03C69.81 26.8666 69.94 26.665 70.03 26.425L71.445 26.68C71.3317 27.0966 71.1283 27.4616 70.835 27.775C70.545 28.085 70.18 28.3266 69.74 28.5C69.3033 28.67 68.805 28.755 68.245 28.755ZM73.1988 28.6V20.92H74.6438V22.14H74.7238C74.8638 21.7266 75.1104 21.4016 75.4638 21.165C75.8204 20.925 76.2238 20.805 76.6738 20.805C76.7671 20.805 76.8771 20.8083 77.0038 20.815C77.1338 20.8216 77.2354 20.83 77.3088 20.84V22.27C77.2488 22.2533 77.1421 22.235 76.9888 22.215C76.8354 22.1916 76.6821 22.18 76.5288 22.18C76.1754 22.18 75.8604 22.255 75.5838 22.405C75.3104 22.5516 75.0938 22.7566 74.9338 23.02C74.7738 23.28 74.6938 23.5766 74.6938 23.91V28.6H73.1988ZM83.3137 28.6H81.6737L85.3587 18.36H87.1437L90.8288 28.6H89.1887L86.2937 20.22H86.2137L83.3137 28.6ZM83.5887 24.59H88.9087V25.89H83.5887V24.59ZM95.2988 28.755C94.5554 28.755 93.9154 28.5866 93.3788 28.25C92.8454 27.91 92.4354 27.4416 92.1488 26.845C91.8621 26.2483 91.7188 25.565 91.7188 24.795C91.7188 24.015 91.8654 23.3266 92.1588 22.73C92.4521 22.13 92.8654 21.6616 93.3988 21.325C93.9321 20.9883 94.5604 20.82 95.2838 20.82C95.8671 20.82 96.3871 20.9283 96.8438 21.145C97.3004 21.3583 97.6688 21.6583 97.9488 22.045C98.2321 22.4316 98.4004 22.8833 98.4538 23.4H96.9988C96.9188 23.04 96.7354 22.73 96.4488 22.47C96.1654 22.21 95.7854 22.08 95.3088 22.08C94.8921 22.08 94.5271 22.19 94.2138 22.41C93.9038 22.6266 93.6621 22.9366 93.4888 23.34C93.3154 23.74 93.2288 24.2133 93.2288 24.76C93.2288 25.32 93.3138 25.8033 93.4838 26.21C93.6538 26.6166 93.8938 26.9316 94.2038 27.155C94.5171 27.3783 94.8854 27.49 95.3088 27.49C95.5921 27.49 95.8488 27.4383 96.0788 27.335C96.3121 27.2283 96.5071 27.0766 96.6638 26.88C96.8238 26.6833 96.9354 26.4466 96.9988 26.17H98.4538C98.4004 26.6666 98.2388 27.11 97.9688 27.5C97.6988 27.89 97.3371 28.1966 96.8838 28.42C96.4338 28.6433 95.9054 28.755 95.2988 28.755ZM103.288 28.755C102.544 28.755 101.904 28.5866 101.368 28.25C100.834 27.91 100.424 27.4416 100.138 26.845C99.8508 26.2483 99.7075 25.565 99.7075 24.795C99.7075 24.015 99.8542 23.3266 100.148 22.73C100.441 22.13 100.854 21.6616 101.388 21.325C101.921 20.9883 102.549 20.82 103.273 20.82C103.856 20.82 104.376 20.9283 104.833 21.145C105.289 21.3583 105.658 21.6583 105.938 22.045C106.221 22.4316 106.389 22.8833 106.443 23.4H104.988C104.908 23.04 104.724 22.73 104.438 22.47C104.154 22.21 103.774 22.08 103.298 22.08C102.881 22.08 102.516 22.19 102.203 22.41C101.893 22.6266 101.651 22.9366 101.478 23.34C101.304 23.74 101.218 24.2133 101.218 24.76C101.218 25.32 101.303 25.8033 101.473 26.21C101.643 26.6166 101.883 26.9316 102.193 27.155C102.506 27.3783 102.874 27.49 103.298 27.49C103.581 27.49 103.838 27.4383 104.068 27.335C104.301 27.2283 104.496 27.0766 104.653 26.88C104.813 26.6833 104.924 26.4466 104.988 26.17H106.443C106.389 26.6666 106.228 27.11 105.958 27.5C105.688 27.89 105.326 28.1966 104.873 28.42C104.423 28.6433 103.894 28.755 103.288 28.755ZM111.351 28.755C110.595 28.755 109.943 28.5933 109.396 28.27C108.853 27.9433 108.433 27.485 108.136 26.895C107.843 26.3016 107.696 25.6066 107.696 24.81C107.696 24.0233 107.843 23.33 108.136 22.73C108.433 22.13 108.846 21.6616 109.376 21.325C109.91 20.9883 110.533 20.82 111.246 20.82C111.68 20.82 112.1 20.8916 112.506 21.035C112.913 21.1783 113.278 21.4033 113.601 21.71C113.925 22.0166 114.18 22.415 114.366 22.905C114.553 23.3916 114.646 23.9833 114.646 24.68V25.21H108.541V24.09H113.181C113.181 23.6966 113.101 23.3483 112.941 23.045C112.781 22.7383 112.556 22.4966 112.266 22.32C111.98 22.1433 111.643 22.055 111.256 22.055C110.836 22.055 110.47 22.1583 110.156 22.365C109.846 22.5683 109.606 22.835 109.436 23.165C109.27 23.4916 109.186 23.8466 109.186 24.23V25.105C109.186 25.6183 109.276 26.055 109.456 26.415C109.64 26.775 109.895 27.05 110.221 27.24C110.548 27.4266 110.93 27.52 111.366 27.52C111.65 27.52 111.908 27.48 112.141 27.4C112.375 27.3166 112.576 27.1933 112.746 27.03C112.916 26.8666 113.046 26.665 113.136 26.425L114.551 26.68C114.438 27.0966 114.235 27.4616 113.941 27.775C113.651 28.085 113.286 28.3266 112.846 28.5C112.41 28.67 111.911 28.755 111.351 28.755ZM122.06 22.795L120.705 23.035C120.648 22.8616 120.558 22.6966 120.435 22.54C120.315 22.3833 120.152 22.255 119.945 22.155C119.738 22.055 119.48 22.005 119.17 22.005C118.747 22.005 118.393 22.1 118.11 22.29C117.827 22.4766 117.685 22.7183 117.685 23.015C117.685 23.2716 117.78 23.4783 117.97 23.635C118.16 23.7916 118.467 23.92 118.89 24.02L120.11 24.3C120.817 24.4633 121.343 24.715 121.69 25.055C122.037 25.395 122.21 25.8366 122.21 26.38C122.21 26.84 122.077 27.25 121.81 27.61C121.547 27.9666 121.178 28.2466 120.705 28.45C120.235 28.6533 119.69 28.755 119.07 28.755C118.21 28.755 117.508 28.5716 116.965 28.205C116.422 27.835 116.088 27.31 115.965 26.63L117.41 26.41C117.5 26.7866 117.685 27.0716 117.965 27.265C118.245 27.455 118.61 27.55 119.06 27.55C119.55 27.55 119.942 27.4483 120.235 27.245C120.528 27.0383 120.675 26.7866 120.675 26.49C120.675 26.25 120.585 26.0483 120.405 25.885C120.228 25.7216 119.957 25.5983 119.59 25.515L118.29 25.23C117.573 25.0666 117.043 24.8066 116.7 24.45C116.36 24.0933 116.19 23.6416 116.19 23.095C116.19 22.6416 116.317 22.245 116.57 21.905C116.823 21.565 117.173 21.3 117.62 21.11C118.067 20.9166 118.578 20.82 119.155 20.82C119.985 20.82 120.638 21 121.115 21.36C121.592 21.7166 121.907 22.195 122.06 22.795ZM129.609 22.795L128.254 23.035C128.197 22.8616 128.107 22.6966 127.984 22.54C127.864 22.3833 127.7 22.255 127.494 22.155C127.287 22.055 127.029 22.005 126.719 22.005C126.295 22.005 125.942 22.1 125.659 22.29C125.375 22.4766 125.234 22.7183 125.234 23.015C125.234 23.2716 125.329 23.4783 125.519 23.635C125.709 23.7916 126.015 23.92 126.439 24.02L127.659 24.3C128.365 24.4633 128.892 24.715 129.239 25.055C129.585 25.395 129.759 25.8366 129.759 26.38C129.759 26.84 129.625 27.25 129.359 27.61C129.095 27.9666 128.727 28.2466 128.254 28.45C127.784 28.6533 127.239 28.755 126.619 28.755C125.759 28.755 125.057 28.5716 124.514 28.205C123.97 27.835 123.637 27.31 123.514 26.63L124.959 26.41C125.049 26.7866 125.234 27.0716 125.514 27.265C125.794 27.455 126.159 27.55 126.609 27.55C127.099 27.55 127.49 27.4483 127.784 27.245C128.077 27.0383 128.224 26.7866 128.224 26.49C128.224 26.25 128.134 26.0483 127.954 25.885C127.777 25.7216 127.505 25.5983 127.139 25.515L125.839 25.23C125.122 25.0666 124.592 24.8066 124.249 24.45C123.909 24.0933 123.739 23.6416 123.739 23.095C123.739 22.6416 123.865 22.245 124.119 21.905C124.372 21.565 124.722 21.3 125.169 21.11C125.615 20.9166 126.127 20.82 126.704 20.82C127.534 20.82 128.187 21 128.664 21.36C129.14 21.7166 129.455 22.195 129.609 22.795ZM143.754 21.69H142.194C142.134 21.3566 142.022 21.0633 141.859 20.81C141.695 20.5566 141.495 20.3416 141.259 20.165C141.022 19.9883 140.757 19.855 140.464 19.765C140.174 19.675 139.865 19.63 139.539 19.63C138.949 19.63 138.42 19.7783 137.954 20.075C137.49 20.3716 137.124 20.8066 136.854 21.38C136.587 21.9533 136.454 22.6533 136.454 23.48C136.454 24.3133 136.587 25.0166 136.854 25.59C137.124 26.1633 137.492 26.5966 137.959 26.89C138.425 27.1833 138.95 27.33 139.534 27.33C139.857 27.33 140.164 27.2866 140.454 27.2C140.747 27.11 141.012 26.9783 141.249 26.805C141.485 26.6316 141.685 26.42 141.849 26.17C142.015 25.9166 142.13 25.6266 142.194 25.3L143.754 25.305C143.67 25.8083 143.509 26.2716 143.269 26.695C143.032 27.115 142.727 27.4783 142.354 27.785C141.984 28.0883 141.56 28.3233 141.084 28.49C140.607 28.6566 140.087 28.74 139.524 28.74C138.637 28.74 137.847 28.53 137.154 28.11C136.46 27.6866 135.914 27.0816 135.514 26.295C135.117 25.5083 134.919 24.57 134.919 23.48C134.919 22.3866 135.119 21.4483 135.519 20.665C135.919 19.8783 136.465 19.275 137.159 18.855C137.852 18.4316 138.64 18.22 139.524 18.22C140.067 18.22 140.574 18.2983 141.044 18.455C141.517 18.6083 141.942 18.835 142.319 19.135C142.695 19.4316 143.007 19.795 143.254 20.225C143.5 20.6516 143.667 21.14 143.754 21.69ZM148.718 28.755C147.998 28.755 147.369 28.59 146.833 28.26C146.296 27.93 145.879 27.4683 145.583 26.875C145.286 26.2816 145.138 25.5883 145.138 24.795C145.138 23.9983 145.286 23.3016 145.583 22.705C145.879 22.1083 146.296 21.645 146.833 21.315C147.369 20.985 147.998 20.82 148.718 20.82C149.438 20.82 150.066 20.985 150.603 21.315C151.139 21.645 151.556 22.1083 151.853 22.705C152.149 23.3016 152.298 23.9983 152.298 24.795C152.298 25.5883 152.149 26.2816 151.853 26.875C151.556 27.4683 151.139 27.93 150.603 28.26C150.066 28.59 149.438 28.755 148.718 28.755ZM148.723 27.5C149.189 27.5 149.576 27.3766 149.883 27.13C150.189 26.8833 150.416 26.555 150.563 26.145C150.713 25.735 150.788 25.2833 150.788 24.79C150.788 24.3 150.713 23.85 150.563 23.44C150.416 23.0266 150.189 22.695 149.883 22.445C149.576 22.195 149.189 22.07 148.723 22.07C148.253 22.07 147.863 22.195 147.553 22.445C147.246 22.695 147.018 23.0266 146.868 23.44C146.721 23.85 146.648 24.3 146.648 24.79C146.648 25.2833 146.721 25.735 146.868 26.145C147.018 26.555 147.246 26.8833 147.553 27.13C147.863 27.3766 148.253 27.5 148.723 27.5ZM155.461 24.04V28.6H153.966V20.92H155.401V22.17H155.496C155.673 21.7633 155.95 21.4366 156.326 21.19C156.706 20.9433 157.185 20.82 157.761 20.82C158.285 20.82 158.743 20.93 159.136 21.15C159.53 21.3666 159.835 21.69 160.051 22.12C160.268 22.55 160.376 23.0816 160.376 23.715V28.6H158.881V23.895C158.881 23.3383 158.736 22.9033 158.446 22.59C158.156 22.2733 157.758 22.115 157.251 22.115C156.905 22.115 156.596 22.19 156.326 22.34C156.06 22.49 155.848 22.71 155.691 23C155.538 23.2866 155.461 23.6333 155.461 24.04ZM165.966 20.92V22.12H161.771V20.92H165.966ZM162.896 19.08H164.391V26.345C164.391 26.635 164.435 26.8533 164.521 27C164.608 27.1433 164.72 27.2416 164.856 27.295C164.996 27.345 165.148 27.37 165.311 27.37C165.431 27.37 165.536 27.3616 165.626 27.345C165.716 27.3283 165.786 27.315 165.836 27.305L166.106 28.54C166.02 28.5733 165.896 28.6066 165.736 28.64C165.576 28.6766 165.376 28.6966 165.136 28.7C164.743 28.7066 164.376 28.6366 164.036 28.49C163.696 28.3433 163.421 28.1166 163.211 27.81C163.001 27.5033 162.896 27.1183 162.896 26.655V19.08ZM167.62 28.6V20.92H169.065V22.14H169.145C169.285 21.7266 169.532 21.4016 169.885 21.165C170.242 20.925 170.645 20.805 171.095 20.805C171.188 20.805 171.298 20.8083 171.425 20.815C171.555 20.8216 171.657 20.83 171.73 20.84V22.27C171.67 22.2533 171.563 22.235 171.41 22.215C171.257 22.1916 171.103 22.18 170.95 22.18C170.597 22.18 170.282 22.255 170.005 22.405C169.732 22.5516 169.515 22.7566 169.355 23.02C169.195 23.28 169.115 23.5766 169.115 23.91V28.6H167.62ZM175.984 28.755C175.264 28.755 174.635 28.59 174.099 28.26C173.562 27.93 173.145 27.4683 172.849 26.875C172.552 26.2816 172.404 25.5883 172.404 24.795C172.404 23.9983 172.552 23.3016 172.849 22.705C173.145 22.1083 173.562 21.645 174.099 21.315C174.635 20.985 175.264 20.82 175.984 20.82C176.704 20.82 177.332 20.985 177.869 21.315C178.405 21.645 178.822 22.1083 179.119 22.705C179.415 23.3016 179.564 23.9983 179.564 24.795C179.564 25.5883 179.415 26.2816 179.119 26.875C178.822 27.4683 178.405 27.93 177.869 28.26C177.332 28.59 176.704 28.755 175.984 28.755ZM175.989 27.5C176.455 27.5 176.842 27.3766 177.149 27.13C177.455 26.8833 177.682 26.555 177.829 26.145C177.979 25.735 178.054 25.2833 178.054 24.79C178.054 24.3 177.979 23.85 177.829 23.44C177.682 23.0266 177.455 22.695 177.149 22.445C176.842 22.195 176.455 22.07 175.989 22.07C175.519 22.07 175.129 22.195 174.819 22.445C174.512 22.695 174.284 23.0266 174.134 23.44C173.987 23.85 173.914 24.3 173.914 24.79C173.914 25.2833 173.987 25.735 174.134 26.145C174.284 26.555 174.512 26.8833 174.819 27.13C175.129 27.3766 175.519 27.5 175.989 27.5ZM182.727 18.36V28.6H181.232V18.36H182.727Z" fill="#3B3B3B"/>
<rect x="196" y="7.03998" width="33.12" height="33.12" rx="7.04" fill="#FE7500"/>
<path d="M217.84 22.94C218.609 22.9394 219.367 23.1181 220.054 23.4618C220.742 23.8055 221.339 24.3048 221.8 24.92" stroke="white" stroke-width="1.76" stroke-linecap="round" stroke-linejoin="round"/>
<path d="M203.32 24.92C203.781 24.3048 204.379 23.8055 205.066 23.4618C205.753 23.1181 206.512 22.9394 207.28 22.94" stroke="white" stroke-width="1.76" stroke-linecap="round" stroke-linejoin="round"/>
<path d="M212.56 28.22C214.383 28.22 215.86 26.7425 215.86 24.92C215.86 23.0975 214.383 21.62 212.56 21.62C210.737 21.62 209.26 23.0975 209.26 24.92C209.26 26.7425 210.737 28.22 212.56 28.22Z" stroke="white" stroke-width="1.76" stroke-linecap="round" stroke-linejoin="round"/>
<path d="M207.94 30.86C208.414 30.056 209.089 29.3895 209.899 28.9265C210.71 28.4635 211.627 28.22 212.56 28.22C213.493 28.22 214.41 28.4635 215.22 28.9265C216.031 29.3895 216.706 30.056 217.18 30.86" stroke="white" stroke-width="1.76" stroke-linecap="round" stroke-linejoin="round"/>
<path d="M215.282 19.64C215.406 19.1619 215.661 18.7281 216.019 18.3877C216.376 18.0473 216.822 17.814 217.306 17.7144C217.789 17.6147 218.291 17.6526 218.754 17.8237C219.217 17.9949 219.623 18.2925 219.925 18.6828C220.228 19.073 220.415 19.5402 220.465 20.0314C220.515 20.5225 220.427 21.0179 220.209 21.4613C219.992 21.9047 219.655 22.2783 219.236 22.5397C218.817 22.801 218.334 22.9397 217.84 22.94" stroke="white" stroke-width="1.76" stroke-linecap="round" stroke-linejoin="round"/>
<path d="M207.28 22.94C206.786 22.9397 206.303 22.801 205.884 22.5397C205.465 22.2783 205.128 21.9047 204.911 21.4613C204.693 21.0179 204.605 20.5225 204.655 20.0314C204.705 19.5402 204.892 19.073 205.195 18.6828C205.497 18.2925 205.903 17.9949 206.366 17.8237C206.829 17.6526 207.331 17.6147 207.814 17.7144C208.298 17.814 208.744 18.0473 209.101 18.3877C209.459 18.7281 209.714 19.1619 209.838 19.64" stroke="white" stroke-width="1.76" stroke-linecap="round" stroke-linejoin="round"/>
</svg>
