<svg width="985" height="382" viewBox="0 0 985 382" fill="none" xmlns="http://www.w3.org/2000/svg">
<g clip-path="url(#clip0_6064_4726)">
<rect width="984.2" height="615.125" rx="20" fill="white"/>
<mask id="path-2-inside-1_6064_4726" fill="white">
<path d="M0 0H164.033V615.125H0V0Z"/>
</mask>
<path d="M0 0H164.033V615.125H0V0Z" fill="white"/>
<path d="M164.033 0H163.35V615.125H164.033H164.717V0H164.033Z" fill="#F5F5F5" mask="url(#path-2-inside-1_6064_4726)"/>
<g clip-path="url(#clip1_6064_4726)">
<path d="M31.0842 38.3968C31.0842 38.7505 30.7976 39.037 30.4445 39.037C30.4402 39.037 30.4359 39.037 30.4316 39.0366H30.4307C30.4259 39.037 30.4211 39.037 30.4163 39.037H16V38.9652C16.4272 37.7325 17.0085 36.5728 17.7208 35.5079C17.7218 35.5055 17.7232 35.5036 17.7247 35.5017C18.2169 34.766 18.7714 34.0764 19.3814 33.4395C19.578 33.2334 19.7809 33.0331 19.9894 32.8385C20.6865 32.1872 21.4452 31.6006 22.2552 31.0898L23.0986 31.9351C23.2144 32.0506 23.3742 32.1225 23.5507 32.1225C23.7 32.1225 23.8373 32.0713 23.9459 31.9859C23.9463 31.9859 23.9468 31.9859 23.9468 31.985C23.9856 31.9543 24.021 31.9193 24.0516 31.8805L26.7608 29.1829L27.3057 28.6404C27.3564 28.603 27.4014 28.5584 27.4387 28.5081C27.4387 28.5076 27.4392 28.5076 27.4392 28.5076C27.5186 28.4007 27.566 28.268 27.566 28.1247C27.566 27.771 27.2794 27.4839 26.9263 27.4839H20.2832C20.254 27.4796 20.2243 27.4777 20.1937 27.4777C20.1631 27.4777 20.1339 27.4796 20.1047 27.4839C19.7938 27.5276 19.5546 27.795 19.5546 28.1185C19.5546 28.2795 19.6139 28.4266 19.712 28.5392C19.712 28.5392 19.712 28.5397 19.7124 28.5397C19.7301 28.5608 19.7498 28.5805 19.7703 28.5982L19.7727 28.6006L20.3985 29.2279C19.5488 29.7354 18.7528 30.323 18.0213 30.9815C17.2773 31.6505 16.5999 32.3919 16 33.1951V23.592C16.0416 23.2786 16.3095 23.037 16.6339 23.037H24.0047C26.7139 23.037 29.0189 24.7714 29.8728 27.1926C30.0479 27.6891 30.1618 28.2148 30.2058 28.7602C30.2197 28.9279 30.2264 29.0976 30.2264 29.2691C30.2264 31.6471 28.8969 33.7141 26.9421 34.7646C27.3478 34.9922 27.742 35.2381 28.1233 35.5017C28.1262 35.5036 28.1295 35.5055 28.1324 35.5079C29.1218 36.1908 30.0259 36.9883 30.8254 37.8816C30.8445 37.9027 30.8632 37.9233 30.8818 37.9444C30.8842 37.9473 30.8871 37.9501 30.889 37.953C30.9268 37.9957 30.9646 38.0388 31.0014 38.0819C31.054 38.1749 31.0842 38.2822 31.0842 38.3968Z" fill="#2C4BFD"/>
</g>
<path d="M89.3896 38.8409L86.9799 30.6347H88.5918L90.3828 37.4732L90.0735 37.4569L92.0599 30.6347H93.8835L95.8699 37.4569L95.5606 37.4732L97.3353 30.6347H98.9798L96.5701 38.8409H94.893L92.8089 31.7256H93.1345L91.0504 38.8409H89.3896Z" fill="#2C4BFD"/>
<path d="M82.0134 39.0364C81.2427 39.0364 80.548 38.8573 79.9292 38.4991C79.3214 38.1409 78.8383 37.6415 78.4801 37.0011C78.1328 36.3498 77.9591 35.6008 77.9591 34.7542C77.9591 33.8858 78.1382 33.1314 78.4964 32.4909C78.8546 31.8397 79.3431 31.3349 79.9618 30.9767C80.5805 30.6185 81.2752 30.4394 82.0459 30.4394C82.8275 30.4394 83.5222 30.6185 84.1301 30.9767C84.7379 31.3349 85.2155 31.8342 85.5629 32.4747C85.9211 33.1151 86.1002 33.8695 86.1002 34.7379C86.1002 35.6063 85.9211 36.3607 85.5629 37.0011C85.2155 37.6415 84.7325 38.1409 84.1138 38.4991C83.495 38.8573 82.7949 39.0364 82.0134 39.0364ZM82.0134 37.6361C82.4584 37.6361 82.86 37.5276 83.2183 37.3105C83.5873 37.0934 83.8804 36.7732 84.0975 36.3498C84.3254 35.9156 84.4394 35.3783 84.4394 34.7379C84.4394 34.0975 84.3309 33.5656 84.1138 33.1422C83.8967 32.708 83.6036 32.3824 83.2345 32.1653C82.8763 31.9482 82.4801 31.8397 82.0459 31.8397C81.6117 31.8397 81.2101 31.9482 80.8411 32.1653C80.472 32.3824 80.1735 32.708 79.9455 33.1422C79.7284 33.5656 79.6199 34.0975 79.6199 34.7379C79.6199 35.3783 79.7284 35.9156 79.9455 36.3498C80.1735 36.7732 80.4666 37.0934 80.8248 37.3105C81.1938 37.5276 81.59 37.6361 82.0134 37.6361Z" fill="#2C4BFD"/>
<path d="M69.1673 38.8405V29.5271C69.1673 28.9626 69.2595 28.5013 69.4441 28.1431C69.6395 27.7849 69.9217 27.5244 70.2908 27.3615C70.6598 27.1987 71.1049 27.1173 71.6259 27.1173H72.5865V28.5013H71.8864C71.4956 28.5013 71.2134 28.5827 71.0397 28.7455C70.8769 28.8975 70.7955 29.1689 70.7955 29.5596V38.8405H69.1673ZM67.9624 32.0182V30.6343H72.7656V32.0182H67.9624ZM74.4264 38.8405V27.1173H76.0546V38.8405H74.4264Z" fill="#2C4BFD"/>
<path d="M63.0114 39.0364C62.2299 39.0364 61.5352 38.8573 60.9273 38.4991C60.3195 38.1409 59.8418 37.6415 59.4945 37.0011C59.158 36.3607 58.9897 35.6171 58.9897 34.7705C58.9897 33.9021 59.158 33.1477 59.4945 32.5072C59.8418 31.8559 60.3195 31.3512 60.9273 30.993C61.5352 30.6239 62.2408 30.4394 63.044 30.4394C63.8473 30.4394 64.5365 30.6185 65.1118 30.9767C65.6872 31.3349 66.1322 31.8125 66.447 32.4095C66.7618 32.9957 66.9192 33.647 66.9192 34.3634C66.9192 34.4719 66.9137 34.5913 66.9029 34.7216C66.9029 34.841 66.8975 34.9767 66.8866 35.1287H60.1783V33.9726H65.2909C65.2584 33.2888 65.0304 32.7569 64.6071 32.377C64.1838 31.9862 63.6573 31.7908 63.0277 31.7908C62.5827 31.7908 62.1756 31.8939 61.8066 32.1002C61.4375 32.2956 61.139 32.5886 60.911 32.9794C60.6939 33.3593 60.5854 33.8424 60.5854 34.4285V34.8844C60.5854 35.4923 60.6939 36.0079 60.911 36.4312C61.139 36.8437 61.4375 37.1585 61.8066 37.3756C62.1756 37.5818 62.5773 37.685 63.0114 37.685C63.5325 37.685 63.9612 37.571 64.2977 37.343C64.6342 37.1151 64.8839 36.8057 65.0467 36.415H66.6749C66.5338 36.9143 66.295 37.3647 65.9585 37.7664C65.622 38.1571 65.2041 38.4665 64.7048 38.6945C64.2163 38.9224 63.6519 39.0364 63.0114 39.0364Z" fill="#2C4BFD"/>
<path d="M52.5951 39.0359C51.8136 39.0359 51.1243 38.8513 50.5273 38.4823C49.9303 38.1024 49.4635 37.5922 49.127 36.9517C48.8014 36.3005 48.6385 35.5623 48.6385 34.7374C48.6385 33.9016 48.8014 33.1634 49.127 32.523C49.4635 31.8826 49.9303 31.3778 50.5273 31.0088C51.1352 30.6288 51.8299 30.4389 52.6114 30.4389C53.2518 30.4389 53.8163 30.5691 54.3048 30.8296C54.7932 31.0793 55.1731 31.4375 55.4445 31.9043V27.1173H57.0727V38.8405H55.6073L55.4445 37.5705C55.2817 37.8201 55.07 38.0589 54.8095 38.2869C54.549 38.504 54.2342 38.6831 53.8651 38.8242C53.4961 38.9653 53.0727 39.0359 52.5951 39.0359ZM52.8556 37.6193C53.3658 37.6193 53.8163 37.4999 54.2071 37.2611C54.5978 37.0223 54.8963 36.6858 55.1026 36.2516C55.3197 35.8174 55.4282 35.3127 55.4282 34.7374C55.4282 34.1621 55.3197 33.6627 55.1026 33.2394C54.8963 32.8052 54.5978 32.4687 54.2071 32.2299C53.8163 31.9803 53.3658 31.8554 52.8556 31.8554C52.3672 31.8554 51.9276 31.9803 51.5368 32.2299C51.146 32.4687 50.8421 32.8052 50.625 33.2394C50.4079 33.6627 50.2993 34.1621 50.2993 34.7374C50.2993 35.3127 50.4079 35.8174 50.625 36.2516C50.8421 36.6858 51.146 37.0223 51.5368 37.2611C51.9276 37.4999 52.3672 37.6193 52.8556 37.6193Z" fill="#2C4BFD"/>
<path d="M44.9911 38.8405V30.6343H46.6193V38.8405H44.9911ZM45.8215 29.0874C45.5067 29.0874 45.2461 28.9898 45.0399 28.7944C44.8445 28.599 44.7468 28.3493 44.7468 28.0454C44.7468 27.7523 44.8445 27.5135 45.0399 27.329C45.2461 27.1336 45.5067 27.0359 45.8215 27.0359C46.1254 27.0359 46.3805 27.1336 46.5867 27.329C46.793 27.5135 46.8961 27.7523 46.8961 28.0454C46.8961 28.3493 46.793 28.599 46.5867 28.7944C46.3805 28.9898 46.1254 29.0874 45.8215 29.0874Z" fill="#2C4BFD"/>
<path d="M35.0841 38.8411V27.4435H38.943C39.8439 27.4435 40.5821 27.5955 41.1574 27.8994C41.7327 28.2034 42.156 28.6104 42.4274 29.1206C42.7096 29.6199 42.8507 30.1898 42.8507 30.8302C42.8507 31.4381 42.7096 32.0026 42.4274 32.5236C42.156 33.0338 41.7272 33.4462 41.1411 33.761C40.5549 34.065 39.8059 34.2169 38.8941 34.2169H36.7123V38.8411H35.0841ZM41.0759 38.8411L38.6173 33.7773H40.4084L42.9647 38.8411H41.0759ZM36.7123 32.9795H38.829C39.6323 32.9795 40.2238 32.7841 40.6038 32.3933C40.9837 31.9917 41.1736 31.4815 41.1736 30.8628C41.1736 30.2332 40.9891 29.7339 40.62 29.3648C40.251 28.9958 39.654 28.8112 38.829 28.8112H36.7123V32.9795Z" fill="#2C4BFD"/>
<path d="M16 70.7666C16 67.6978 18.4877 65.21 21.5565 65.21H142.477C145.546 65.21 148.033 67.6978 148.033 70.7666V81.5246C148.033 84.5934 145.546 87.0811 142.477 87.0811H21.5565C18.4877 87.0811 16 84.5934 16 81.5246V70.7666Z" fill="#F8F9FB"/>
<path d="M16 104.638C16 101.569 18.4877 99.0811 21.5565 99.0811H142.477C145.546 99.0811 148.033 101.569 148.033 104.638V115.396C148.033 118.464 145.546 120.952 142.477 120.952H21.5565C18.4877 120.952 16 118.464 16 115.396V104.638Z" fill="#F8F9FB"/>
<path d="M16 138.509C16 135.44 18.4877 132.952 21.5565 132.952H142.477C145.546 132.952 148.033 135.44 148.033 138.509V149.267C148.033 152.336 145.546 154.823 142.477 154.823H21.5565C18.4877 154.823 16 152.336 16 149.267V138.509Z" fill="#F8F9FB"/>
<path d="M16 172.38C16 169.311 18.4877 166.823 21.5565 166.823H142.477C145.546 166.823 148.033 169.311 148.033 172.38V183.138C148.033 186.207 145.546 188.694 142.477 188.694H21.5565C18.4877 188.694 16 186.207 16 183.138V172.38Z" fill="#F8F9FB"/>
<path d="M16 206.251C16 203.182 18.4877 200.694 21.5565 200.694H142.477C145.546 200.694 148.033 203.182 148.033 206.251V217.009C148.033 220.078 145.546 222.566 142.477 222.566H21.5565C18.4877 222.566 16 220.078 16 217.009V206.251Z" fill="#F8F9FB"/>
<path d="M16 240.122C16 237.053 18.4877 234.566 21.5565 234.566H142.477C145.546 234.566 148.033 237.053 148.033 240.122V250.88C148.033 253.949 145.546 256.437 142.477 256.437H21.5565C18.4877 256.437 16 253.949 16 250.88V240.122Z" fill="#F8F9FB"/>
<path d="M16 273.993C16 270.924 18.4877 268.437 21.5565 268.437H142.477C145.546 268.437 148.033 270.924 148.033 273.993V284.751C148.033 287.82 145.546 290.308 142.477 290.308H21.5565C18.4877 290.308 16 287.82 16 284.751V273.993Z" fill="#F8F9FB"/>
<mask id="path-19-inside-2_6064_4726" fill="white">
<path d="M164 0H984V53H164V0Z"/>
</mask>
<path d="M164 0H984V53H164V0Z" fill="white"/>
<path d="M984 53V52.3165H164V53V53.6835H984V53Z" fill="#E4E5E8" mask="url(#path-19-inside-2_6064_4726)"/>
<path d="M188 21.0565C188 17.9877 190.488 15.5 193.557 15.5H454.443C457.512 15.5 460 17.9877 460 21.0565V31.9435C460 35.0123 457.512 37.5 454.443 37.5H193.557C190.488 37.5 188 35.0123 188 31.9435V21.0565Z" fill="#F8F9FB"/>
<path d="M855 21.0565C855 17.9877 857.488 15.5 860.557 15.5H954.443C957.512 15.5 960 17.9877 960 21.0565V31.9435C960 35.0123 957.512 37.5 954.443 37.5H860.557C857.488 37.5 855 35.0123 855 31.9435V21.0565Z" fill="#F8F9FB"/>
<g clip-path="url(#clip2_6064_4726)">
<rect width="820.167" height="408.678" transform="translate(164.033 43.7422)" fill="white"/>
<path d="M180.437 65.702C180.437 62.6332 182.924 60.1455 185.993 60.1455H279.88C282.949 60.1455 285.437 62.6333 285.437 65.702V76.589C285.437 79.6578 282.949 82.1455 279.88 82.1455H185.993C182.924 82.1455 180.437 79.6578 180.437 76.589V65.702Z" fill="#F8F9FB"/>
<path d="M180.437 95.6455C180.437 92.6079 182.899 90.1455 185.937 90.1455H419.937C422.974 90.1455 425.437 92.6079 425.437 95.6455C425.437 98.6831 422.974 101.146 419.937 101.146H185.937C182.899 101.146 180.437 98.6831 180.437 95.6455Z" fill="#F8F9FB"/>
<path d="M806.861 75.202C806.861 72.1332 809.349 69.6455 812.417 69.6455H906.304C909.373 69.6455 911.861 72.1333 911.861 75.202V86.089C911.861 89.1578 909.373 91.6455 906.304 91.6455H812.417C809.349 91.6455 806.861 89.1578 806.861 86.089V75.202Z" fill="#F8F9FB"/>
<path d="M922.796 75.202C922.796 72.1332 925.284 69.6455 928.353 69.6455H962.24C965.309 69.6455 967.796 72.1333 967.796 75.202V86.089C967.796 89.1578 965.309 91.6455 962.24 91.6455H928.353C925.284 91.6455 922.796 89.1578 922.796 86.089V75.202Z" fill="#F8F9FB"/>
<path d="M180.437 139.017C180.437 130.18 187.6 123.017 196.437 123.017H681.141C689.978 123.017 697.141 130.18 697.141 139.017V420.017C697.141 428.853 689.978 436.017 681.141 436.017H196.437C187.6 436.017 180.437 428.853 180.437 420.017V139.017Z" fill="#F8F9FB"/>
<path d="M192.437 136.573C192.437 133.504 194.924 131.017 197.993 131.017H304.056C307.125 131.017 309.613 133.504 309.613 136.573V218.46C309.613 221.529 307.125 224.017 304.056 224.017H197.993C194.924 224.017 192.437 221.529 192.437 218.46V136.573Z" fill="white"/>
<path d="M317.613 136.573C317.613 133.504 320.101 131.017 323.169 131.017H429.233C432.301 131.017 434.789 133.504 434.789 136.573V218.46C434.789 221.529 432.301 224.017 429.233 224.017H323.169C320.101 224.017 317.613 221.529 317.613 218.46V136.573Z" fill="white"/>
<path d="M442.789 136.573C442.789 133.504 445.277 131.017 448.346 131.017H554.409C557.478 131.017 559.965 133.504 559.965 136.573V218.46C559.965 221.529 557.478 224.017 554.409 224.017H448.346C445.277 224.017 442.789 221.529 442.789 218.46V136.573Z" fill="white"/>
<path d="M567.965 136.573C567.965 133.504 570.453 131.017 573.522 131.017H679.585C682.654 131.017 685.142 133.504 685.142 136.573V218.46C685.142 221.529 682.654 224.017 679.585 224.017H573.522C570.453 224.017 567.965 221.529 567.965 218.46V136.573Z" fill="white"/>
<path d="M192.437 238.573C192.437 235.504 194.924 233.017 197.993 233.017H304.056C307.125 233.017 309.613 235.504 309.613 238.573V320.46C309.613 323.529 307.125 326.017 304.056 326.017H197.993C194.924 326.017 192.437 323.529 192.437 320.46V238.573Z" fill="white"/>
<path d="M317.613 238.573C317.613 235.504 320.101 233.017 323.169 233.017H429.233C432.301 233.017 434.789 235.504 434.789 238.573V320.46C434.789 323.529 432.301 326.017 429.233 326.017H323.169C320.101 326.017 317.613 323.529 317.613 320.46V238.573Z" fill="white"/>
<path d="M442.789 238.573C442.789 235.504 445.277 233.017 448.346 233.017H554.409C557.478 233.017 559.965 235.504 559.965 238.573V320.46C559.965 323.529 557.478 326.017 554.409 326.017H448.346C445.277 326.017 442.789 323.529 442.789 320.46V238.573Z" fill="white"/>
<path d="M567.965 238.573C567.965 235.504 570.453 233.017 573.522 233.017H679.585C682.654 233.017 685.142 235.504 685.142 238.573V320.46C685.142 323.529 682.654 326.017 679.585 326.017H573.522C570.453 326.017 567.965 323.529 567.965 320.46V238.573Z" fill="white"/>
<path d="M192.437 340.573C192.437 337.504 194.924 335.017 197.993 335.017H304.056C307.125 335.017 309.613 337.504 309.613 340.573V422.46C309.613 425.529 307.125 428.017 304.056 428.017H197.993C194.924 428.017 192.437 425.529 192.437 422.46V340.573Z" fill="white"/>
<path d="M317.613 340.573C317.613 337.504 320.101 335.017 323.169 335.017H429.233C432.301 335.017 434.789 337.504 434.789 340.573V422.46C434.789 425.529 432.301 428.017 429.233 428.017H323.169C320.101 428.017 317.613 425.529 317.613 422.46V340.573Z" fill="white"/>
<path d="M442.789 340.573C442.789 337.504 445.277 335.017 448.346 335.017H554.409C557.478 335.017 559.965 337.504 559.965 340.573V422.46C559.965 425.529 557.478 428.017 554.409 428.017H448.346C445.277 428.017 442.789 425.529 442.789 422.46V340.573Z" fill="white"/>
<path d="M567.965 340.573C567.965 337.504 570.453 335.017 573.522 335.017H679.585C682.654 335.017 685.142 337.504 685.142 340.573V422.46C685.142 425.529 682.654 428.017 679.585 428.017H573.522C570.453 428.017 567.965 425.529 567.965 422.46V340.573Z" fill="white"/>
<path d="M713.545 139.017C713.545 130.18 720.708 123.017 729.545 123.017H951.545C960.381 123.017 967.545 130.18 967.545 139.017V420.017C967.545 428.853 960.381 436.017 951.545 436.017H729.545C720.708 436.017 713.545 428.853 713.545 420.017V139.017Z" fill="#F8F9FB"/>
<path d="M725.545 136.573C725.545 133.504 728.033 131.017 731.101 131.017H949.988C953.057 131.017 955.545 133.504 955.545 136.573V193.71C955.545 196.779 953.057 199.267 949.988 199.267H731.101C728.033 199.267 725.545 196.779 725.545 193.71V136.573Z" fill="white"/>
<path d="M725.545 212.823C725.545 209.754 728.033 207.267 731.101 207.267H949.988C953.057 207.267 955.545 209.754 955.545 212.823V269.96C955.545 273.029 953.057 275.517 949.988 275.517H731.101C728.033 275.517 725.545 273.029 725.545 269.96V212.823Z" fill="white"/>
<path d="M725.545 289.073C725.545 286.004 728.033 283.517 731.101 283.517H949.988C953.057 283.517 955.545 286.004 955.545 289.073V346.21C955.545 349.279 953.057 351.767 949.988 351.767H731.101C728.033 351.767 725.545 349.279 725.545 346.21V289.073Z" fill="white"/>
<path d="M725.545 365.323C725.545 362.254 728.033 359.767 731.101 359.767H949.988C953.057 359.767 955.545 362.254 955.545 365.323V422.46C955.545 425.529 953.057 428.017 949.988 428.017H731.101C728.033 428.017 725.545 425.529 725.545 422.46V365.323Z" fill="white"/>
</g>
</g>
<defs>
<clipPath id="clip0_6064_4726">
<rect width="984.2" height="615.125" rx="20" fill="white"/>
</clipPath>
<clipPath id="clip1_6064_4726">
<rect width="15.0842" height="16" fill="white" transform="translate(16 23.0364)"/>
</clipPath>
<clipPath id="clip2_6064_4726">
<rect width="820.167" height="408.678" fill="white" transform="translate(164.033 43.7422)"/>
</clipPath>
</defs>
</svg>
