<svg width="222" height="48" viewBox="0 0 222 48" fill="none" xmlns="http://www.w3.org/2000/svg">
<path d="M20.6708 27.7188L19.4812 26.5291C19.3766 26.4242 19.2525 26.341 19.1157 26.2842C18.979 26.2274 18.8323 26.1982 18.6843 26.1982C18.5362 26.1982 18.3896 26.2274 18.2529 26.2842C18.1161 26.341 17.9919 26.4242 17.8874 26.5291L12.584 31.8325L10.7812 27.13L10.769 27.0991C10.654 26.8314 10.4629 26.6034 10.2193 26.4436C9.97579 26.2837 9.69061 26.199 9.39928 26.2H9.32616C9.02244 26.2128 8.72996 26.3185 8.48832 26.503C8.24669 26.6874 8.06757 26.9417 7.97522 27.2313L3.07491 42.2388C2.98896 42.5014 2.97746 42.7827 3.04168 43.0514C3.10589 43.3202 3.24332 43.5659 3.4387 43.7613C3.63408 43.9566 3.87978 44.0941 4.14852 44.1583C4.41727 44.2225 4.69855 44.211 4.96116 44.125L19.9687 39.2247C20.2555 39.1288 20.5066 38.9484 20.6891 38.7072C20.8715 38.466 20.9768 38.1752 20.9911 37.8731C21.0054 37.571 20.928 37.2716 20.7692 37.0143C20.6103 36.7569 20.3773 36.5536 20.1008 36.431L20.0699 36.4188L15.3674 34.6122L20.6708 29.3097C20.8818 29.0988 21.0003 28.8126 21.0003 28.5143C21.0003 28.2159 20.8818 27.9298 20.6708 27.7188Z" fill="#E10000"/>
<path d="M46 0.5H209.12C215.471 0.500066 220.62 5.64877 220.62 12V35.2002C220.62 41.5513 215.471 46.7001 209.12 46.7002H36C35.1716 46.7002 34.5001 46.0285 34.5 45.2002V12C34.5 5.64873 39.6487 0.5 46 0.5Z" fill="#FFF5F5"/>
<path d="M46 0.5H209.12C215.471 0.500066 220.62 5.64877 220.62 12V35.2002C220.62 41.5513 215.471 46.7001 209.12 46.7002H36C35.1716 46.7002 34.5001 46.0285 34.5 45.2002V12C34.5 5.64873 39.6487 0.5 46 0.5Z" stroke="white"/>
<path d="M50.44 28.6H47.125V18.36H50.545C51.5483 18.36 52.41 18.565 53.13 18.975C53.85 19.3816 54.4017 19.9666 54.785 20.73C55.1717 21.49 55.365 22.4016 55.365 23.465C55.365 24.5316 55.17 25.4483 54.78 26.215C54.3933 26.9816 53.8333 27.5716 53.1 27.985C52.3667 28.395 51.48 28.6 50.44 28.6ZM48.67 27.25H50.355C51.135 27.25 51.7833 27.1033 52.3 26.81C52.8167 26.5133 53.2033 26.085 53.46 25.525C53.7167 24.9616 53.845 24.275 53.845 23.465C53.845 22.6616 53.7167 21.98 53.46 21.42C53.2067 20.86 52.8283 20.435 52.325 20.145C51.8217 19.855 51.1967 19.71 50.45 19.71H48.67V27.25ZM60.4763 28.755C59.7196 28.755 59.0679 28.5933 58.5213 28.27C57.9779 27.9433 57.5579 27.485 57.2613 26.895C56.9679 26.3016 56.8213 25.6066 56.8213 24.81C56.8213 24.0233 56.9679 23.33 57.2613 22.73C57.5579 22.13 57.9713 21.6616 58.5013 21.325C59.0346 20.9883 59.6579 20.82 60.3713 20.82C60.8046 20.82 61.2246 20.8916 61.6313 21.035C62.0379 21.1783 62.4029 21.4033 62.7263 21.71C63.0496 22.0166 63.3046 22.415 63.4913 22.905C63.6779 23.3916 63.7713 23.9833 63.7713 24.68V25.21H57.6663V24.09H62.3063C62.3063 23.6966 62.2263 23.3483 62.0663 23.045C61.9063 22.7383 61.6813 22.4966 61.3913 22.32C61.1046 22.1433 60.7679 22.055 60.3813 22.055C59.9613 22.055 59.5946 22.1583 59.2813 22.365C58.9713 22.5683 58.7313 22.835 58.5613 23.165C58.3946 23.4916 58.3113 23.8466 58.3113 24.23V25.105C58.3113 25.6183 58.4013 26.055 58.5813 26.415C58.7646 26.775 59.0196 27.05 59.3463 27.24C59.6729 27.4266 60.0546 27.52 60.4913 27.52C60.7746 27.52 61.0329 27.48 61.2663 27.4C61.4996 27.3166 61.7013 27.1933 61.8713 27.03C62.0413 26.8666 62.1713 26.665 62.2613 26.425L63.6763 26.68C63.5629 27.0966 63.3596 27.4616 63.0663 27.775C62.7763 28.085 62.4113 28.3266 61.9713 28.5C61.5346 28.67 61.0363 28.755 60.4763 28.755ZM66.925 18.36V28.6H65.43V18.36H66.925ZM68.9362 28.6V20.92H70.4312V28.6H68.9362ZM69.6912 19.735C69.4312 19.735 69.2079 19.6483 69.0212 19.475C68.8379 19.2983 68.7462 19.0883 68.7462 18.845C68.7462 18.5983 68.8379 18.3883 69.0212 18.215C69.2079 18.0383 69.4312 17.95 69.6912 17.95C69.9512 17.95 70.1729 18.0383 70.3562 18.215C70.5429 18.3883 70.6362 18.5983 70.6362 18.845C70.6362 19.0883 70.5429 19.2983 70.3562 19.475C70.1729 19.6483 69.9512 19.735 69.6912 19.735ZM79.0125 20.92L76.2275 28.6H74.6275L71.8375 20.92H73.4425L75.3875 26.83H75.4675L77.4075 20.92H79.0125ZM83.4662 28.755C82.7096 28.755 82.0579 28.5933 81.5112 28.27C80.9679 27.9433 80.5479 27.485 80.2512 26.895C79.9579 26.3016 79.8112 25.6066 79.8112 24.81C79.8112 24.0233 79.9579 23.33 80.2512 22.73C80.5479 22.13 80.9612 21.6616 81.4912 21.325C82.0246 20.9883 82.6479 20.82 83.3612 20.82C83.7946 20.82 84.2146 20.8916 84.6212 21.035C85.0279 21.1783 85.3929 21.4033 85.7162 21.71C86.0396 22.0166 86.2946 22.415 86.4812 22.905C86.6679 23.3916 86.7612 23.9833 86.7612 24.68V25.21H80.6562V24.09H85.2962C85.2962 23.6966 85.2162 23.3483 85.0562 23.045C84.8962 22.7383 84.6712 22.4966 84.3812 22.32C84.0946 22.1433 83.7579 22.055 83.3712 22.055C82.9512 22.055 82.5846 22.1583 82.2712 22.365C81.9612 22.5683 81.7212 22.835 81.5512 23.165C81.3846 23.4916 81.3012 23.8466 81.3012 24.23V25.105C81.3012 25.6183 81.3912 26.055 81.5712 26.415C81.7546 26.775 82.0096 27.05 82.3362 27.24C82.6629 27.4266 83.0446 27.52 83.4812 27.52C83.7646 27.52 84.0229 27.48 84.2562 27.4C84.4896 27.3166 84.6912 27.1933 84.8612 27.03C85.0312 26.8666 85.1612 26.665 85.2512 26.425L86.6662 26.68C86.5529 27.0966 86.3496 27.4616 86.0562 27.775C85.7662 28.085 85.4012 28.3266 84.9612 28.5C84.5246 28.67 84.0262 28.755 83.4662 28.755ZM88.42 28.6V20.92H89.865V22.14H89.945C90.085 21.7266 90.3317 21.4016 90.685 21.165C91.0417 20.925 91.445 20.805 91.895 20.805C91.9883 20.805 92.0983 20.8083 92.225 20.815C92.355 20.8216 92.4567 20.83 92.53 20.84V22.27C92.47 22.2533 92.3633 22.235 92.21 22.215C92.0567 22.1916 91.9033 22.18 91.75 22.18C91.3967 22.18 91.0817 22.255 90.805 22.405C90.5317 22.5516 90.315 22.7566 90.155 23.02C89.995 23.28 89.915 23.5766 89.915 23.91V28.6H88.42ZM95.0025 31.48C94.7792 31.48 94.5758 31.4616 94.3925 31.425C94.2092 31.3916 94.0725 31.355 93.9825 31.315L94.3425 30.09C94.6158 30.1633 94.8592 30.195 95.0725 30.185C95.2858 30.175 95.4742 30.095 95.6375 29.945C95.8042 29.795 95.9508 29.55 96.0775 29.21L96.2625 28.7L93.4525 20.92H95.0525L96.9975 26.88H97.0775L99.0225 20.92H100.627L97.4625 29.625C97.3158 30.025 97.1292 30.3633 96.9025 30.64C96.6758 30.92 96.4058 31.13 96.0925 31.27C95.7792 31.41 95.4158 31.48 95.0025 31.48ZM111.464 21.05C111.41 20.5766 111.19 20.21 110.804 19.95C110.417 19.6866 109.93 19.555 109.344 19.555C108.924 19.555 108.56 19.6216 108.254 19.755C107.947 19.885 107.709 20.065 107.539 20.295C107.372 20.5216 107.289 20.78 107.289 21.07C107.289 21.3133 107.345 21.5233 107.459 21.7C107.575 21.8766 107.727 22.025 107.914 22.145C108.104 22.2616 108.307 22.36 108.524 22.44C108.74 22.5166 108.949 22.58 109.149 22.63L110.149 22.89C110.475 22.97 110.81 23.0783 111.154 23.215C111.497 23.3516 111.815 23.5316 112.109 23.755C112.402 23.9783 112.639 24.255 112.819 24.585C113.002 24.915 113.094 25.31 113.094 25.77C113.094 26.35 112.944 26.865 112.644 27.315C112.347 27.765 111.915 28.12 111.349 28.38C110.785 28.64 110.104 28.77 109.304 28.77C108.537 28.77 107.874 28.6483 107.314 28.405C106.754 28.1616 106.315 27.8166 105.999 27.37C105.682 26.92 105.507 26.3866 105.474 25.77H107.024C107.054 26.14 107.174 26.4483 107.384 26.695C107.597 26.9383 107.869 27.12 108.199 27.24C108.532 27.3566 108.897 27.415 109.294 27.415C109.73 27.415 110.119 27.3466 110.459 27.21C110.802 27.07 111.072 26.8766 111.269 26.63C111.465 26.38 111.564 26.0883 111.564 25.755C111.564 25.4516 111.477 25.2033 111.304 25.01C111.134 24.8166 110.902 24.6566 110.609 24.53C110.319 24.4033 109.99 24.2916 109.624 24.195L108.414 23.865C107.594 23.6416 106.944 23.3133 106.464 22.88C105.987 22.4466 105.749 21.8733 105.749 21.16C105.749 20.57 105.909 20.055 106.229 19.615C106.549 19.175 106.982 18.8333 107.529 18.59C108.075 18.3433 108.692 18.22 109.379 18.22C110.072 18.22 110.684 18.3416 111.214 18.585C111.747 18.8283 112.167 19.1633 112.474 19.59C112.78 20.0133 112.94 20.5 112.954 21.05H111.464ZM118.055 28.755C117.312 28.755 116.672 28.5866 116.135 28.25C115.602 27.91 115.192 27.4416 114.905 26.845C114.618 26.2483 114.475 25.565 114.475 24.795C114.475 24.015 114.622 23.3266 114.915 22.73C115.208 22.13 115.622 21.6616 116.155 21.325C116.688 20.9883 117.317 20.82 118.04 20.82C118.623 20.82 119.143 20.9283 119.6 21.145C120.057 21.3583 120.425 21.6583 120.705 22.045C120.988 22.4316 121.157 22.8833 121.21 23.4H119.755C119.675 23.04 119.492 22.73 119.205 22.47C118.922 22.21 118.542 22.08 118.065 22.08C117.648 22.08 117.283 22.19 116.97 22.41C116.66 22.6266 116.418 22.9366 116.245 23.34C116.072 23.74 115.985 24.2133 115.985 24.76C115.985 25.32 116.07 25.8033 116.24 26.21C116.41 26.6166 116.65 26.9316 116.96 27.155C117.273 27.3783 117.642 27.49 118.065 27.49C118.348 27.49 118.605 27.4383 118.835 27.335C119.068 27.2283 119.263 27.0766 119.42 26.88C119.58 26.6833 119.692 26.4466 119.755 26.17H121.21C121.157 26.6666 120.995 27.11 120.725 27.5C120.455 27.89 120.093 28.1966 119.64 28.42C119.19 28.6433 118.662 28.755 118.055 28.755ZM124.304 24.04V28.6H122.809V18.36H124.284V22.17H124.379C124.559 21.7566 124.834 21.4283 125.204 21.185C125.574 20.9416 126.057 20.82 126.654 20.82C127.18 20.82 127.64 20.9283 128.034 21.145C128.43 21.3616 128.737 21.685 128.954 22.115C129.174 22.5416 129.284 23.075 129.284 23.715V28.6H127.789V23.895C127.789 23.3316 127.644 22.895 127.354 22.585C127.064 22.2716 126.66 22.115 126.144 22.115C125.79 22.115 125.474 22.19 125.194 22.34C124.917 22.49 124.699 22.71 124.539 23C124.382 23.2866 124.304 23.6333 124.304 24.04ZM134.589 28.755C133.832 28.755 133.18 28.5933 132.634 28.27C132.09 27.9433 131.67 27.485 131.374 26.895C131.08 26.3016 130.934 25.6066 130.934 24.81C130.934 24.0233 131.08 23.33 131.374 22.73C131.67 22.13 132.084 21.6616 132.614 21.325C133.147 20.9883 133.77 20.82 134.484 20.82C134.917 20.82 135.337 20.8916 135.744 21.035C136.15 21.1783 136.515 21.4033 136.839 21.71C137.162 22.0166 137.417 22.415 137.604 22.905C137.79 23.3916 137.884 23.9833 137.884 24.68V25.21H131.779V24.09H136.419C136.419 23.6966 136.339 23.3483 136.179 23.045C136.019 22.7383 135.794 22.4966 135.504 22.32C135.217 22.1433 134.88 22.055 134.494 22.055C134.074 22.055 133.707 22.1583 133.394 22.365C133.084 22.5683 132.844 22.835 132.674 23.165C132.507 23.4916 132.424 23.8466 132.424 24.23V25.105C132.424 25.6183 132.514 26.055 132.694 26.415C132.877 26.775 133.132 27.05 133.459 27.24C133.785 27.4266 134.167 27.52 134.604 27.52C134.887 27.52 135.145 27.48 135.379 27.4C135.612 27.3166 135.814 27.1933 135.984 27.03C136.154 26.8666 136.284 26.665 136.374 26.425L137.789 26.68C137.675 27.0966 137.472 27.4616 137.179 27.775C136.889 28.085 136.524 28.3266 136.084 28.5C135.647 28.67 135.149 28.755 134.589 28.755ZM142.417 28.75C141.797 28.75 141.244 28.5916 140.757 28.275C140.274 27.955 139.894 27.5 139.617 26.91C139.344 26.3166 139.207 25.605 139.207 24.775C139.207 23.945 139.346 23.235 139.622 22.645C139.902 22.055 140.286 21.6033 140.772 21.29C141.259 20.9766 141.811 20.82 142.427 20.82C142.904 20.82 143.287 20.9 143.577 21.06C143.871 21.2166 144.097 21.4 144.257 21.61C144.421 21.82 144.547 22.005 144.637 22.165H144.727V18.36H146.222V28.6H144.762V27.405H144.637C144.547 27.5683 144.417 27.755 144.247 27.965C144.081 28.175 143.851 28.3583 143.557 28.515C143.264 28.6716 142.884 28.75 142.417 28.75ZM142.747 27.475C143.177 27.475 143.541 27.3616 143.837 27.135C144.137 26.905 144.364 26.5866 144.517 26.18C144.674 25.7733 144.752 25.3 144.752 24.76C144.752 24.2266 144.676 23.76 144.522 23.36C144.369 22.96 144.144 22.6483 143.847 22.425C143.551 22.2016 143.184 22.09 142.747 22.09C142.297 22.09 141.922 22.2066 141.622 22.44C141.322 22.6733 141.096 22.9916 140.942 23.395C140.792 23.7983 140.717 24.2533 140.717 24.76C140.717 25.2733 140.794 25.735 140.947 26.145C141.101 26.555 141.327 26.88 141.627 27.12C141.931 27.3566 142.304 27.475 142.747 27.475ZM153.221 25.415V20.92H154.721V28.6H153.251V27.27H153.171C152.995 27.68 152.711 28.0216 152.321 28.295C151.935 28.565 151.453 28.7 150.876 28.7C150.383 28.7 149.946 28.5916 149.566 28.375C149.19 28.155 148.893 27.83 148.676 27.4C148.463 26.97 148.356 26.4383 148.356 25.805V20.92H149.851V25.625C149.851 26.1483 149.996 26.565 150.286 26.875C150.576 27.185 150.953 27.34 151.416 27.34C151.696 27.34 151.975 27.27 152.251 27.13C152.531 26.99 152.763 26.7783 152.946 26.495C153.133 26.2116 153.225 25.8516 153.221 25.415ZM158.225 18.36V28.6H156.73V18.36H158.225ZM163.546 28.755C162.79 28.755 162.138 28.5933 161.591 28.27C161.048 27.9433 160.628 27.485 160.331 26.895C160.038 26.3016 159.891 25.6066 159.891 24.81C159.891 24.0233 160.038 23.33 160.331 22.73C160.628 22.13 161.041 21.6616 161.571 21.325C162.105 20.9883 162.728 20.82 163.441 20.82C163.875 20.82 164.295 20.8916 164.701 21.035C165.108 21.1783 165.473 21.4033 165.796 21.71C166.12 22.0166 166.375 22.415 166.561 22.905C166.748 23.3916 166.841 23.9833 166.841 24.68V25.21H160.736V24.09H165.376C165.376 23.6966 165.296 23.3483 165.136 23.045C164.976 22.7383 164.751 22.4966 164.461 22.32C164.175 22.1433 163.838 22.055 163.451 22.055C163.031 22.055 162.665 22.1583 162.351 22.365C162.041 22.5683 161.801 22.835 161.631 23.165C161.465 23.4916 161.381 23.8466 161.381 24.23V25.105C161.381 25.6183 161.471 26.055 161.651 26.415C161.835 26.775 162.09 27.05 162.416 27.24C162.743 27.4266 163.125 27.52 163.561 27.52C163.845 27.52 164.103 27.48 164.336 27.4C164.57 27.3166 164.771 27.1933 164.941 27.03C165.111 26.8666 165.241 26.665 165.331 26.425L166.746 26.68C166.633 27.0966 166.43 27.4616 166.136 27.775C165.846 28.085 165.481 28.3266 165.041 28.5C164.605 28.67 164.106 28.755 163.546 28.755Z" fill="#3B3B3B"/>
<rect x="176" y="7.03998" width="33.12" height="33.12" rx="7.04" fill="#E10000"/>
<path d="M192.56 31.52C196.57 31.52 199.82 28.2696 199.82 24.26C199.82 20.2504 196.57 17 192.56 17C188.55 17 185.3 20.2504 185.3 24.26C185.3 28.2696 188.55 31.52 192.56 31.52Z" stroke="white" stroke-width="1.76" stroke-linecap="round" stroke-linejoin="round"/>
<path d="M192.56 24.26L195.86 20.96" stroke="white" stroke-width="1.76" stroke-linecap="round" stroke-linejoin="round"/>
<path d="M190.58 14.36H194.54" stroke="white" stroke-width="1.76" stroke-linecap="round" stroke-linejoin="round"/>
</svg>
