<svg width="34" height="34" viewBox="0 0 34 34" fill="none" xmlns="http://www.w3.org/2000/svg">
<rect y="0.039978" width="33.12" height="33.12" rx="7.04" fill="#B22DFD"/>
<path d="M11.28 22.54C12.3736 22.54 13.26 21.6535 13.26 20.56C13.26 19.4664 12.3736 18.58 11.28 18.58C10.1865 18.58 9.30005 19.4664 9.30005 20.56C9.30005 21.6535 10.1865 22.54 11.28 22.54Z" stroke="white" stroke-width="1.76" stroke-linecap="round" stroke-linejoin="round"/>
<path d="M21.84 22.54C22.9335 22.54 23.82 21.6535 23.82 20.56C23.82 19.4664 22.9335 18.58 21.84 18.58C20.7465 18.58 19.86 19.4664 19.86 20.56C19.86 21.6535 20.7465 22.54 21.84 22.54Z" stroke="white" stroke-width="1.76" stroke-linecap="round" stroke-linejoin="round"/>
<path d="M13.26 20.56H19.86" stroke="white" stroke-width="1.76" stroke-linecap="round" stroke-linejoin="round"/>
<path d="M23.82 20.56H25.8C25.9751 20.56 26.143 20.4904 26.2667 20.3667C26.3905 20.2429 26.46 20.075 26.46 19.9V16.6C26.46 16.4249 26.3905 16.2571 26.2667 16.1333C26.143 16.0095 25.9751 15.94 25.8 15.94H23.16L19.3931 12.173C19.2694 12.0495 19.1018 11.9801 18.927 11.98H9.65313C9.54459 11.98 9.43773 12.0069 9.34203 12.0581C9.24634 12.1093 9.16475 12.1834 9.10451 12.2737L6.66003 15.94V19.9C6.66003 20.075 6.72957 20.2429 6.85334 20.3667C6.97712 20.4904 7.14499 20.56 7.32003 20.56H9.30003" stroke="white" stroke-width="1.76" stroke-linecap="round" stroke-linejoin="round"/>
<path d="M23.16 15.94H6.66003" stroke="white" stroke-width="1.76" stroke-linecap="round" stroke-linejoin="round"/>
</svg>
