<svg width="196" height="48" viewBox="0 0 196 48" fill="none" xmlns="http://www.w3.org/2000/svg">
<path d="M12 0.5H149.12C155.471 0.500058 160.62 5.64876 160.62 12V45.2002C160.62 46.0285 159.948 46.7001 159.12 46.7002H12C5.64879 46.7002 0.500107 41.5514 0.5 35.2002V12C0.500006 5.64873 5.64873 0.5 12 0.5Z" fill="#F6EDFD"/>
<path d="M12 0.5H149.12C155.471 0.500058 160.62 5.64876 160.62 12V45.2002C160.62 46.0285 159.948 46.7001 159.12 46.7002H12C5.64879 46.7002 0.500107 41.5514 0.5 35.2002V12C0.500006 5.64873 5.64873 0.5 12 0.5Z" stroke="white"/>
<rect x="12" y="7.03998" width="33.12" height="33.12" rx="7.04" fill="#B22DFD"/>
<path d="M23.28 29.54C24.3736 29.54 25.26 28.6535 25.26 27.56C25.26 26.4664 24.3736 25.58 23.28 25.58C22.1865 25.58 21.3 26.4664 21.3 27.56C21.3 28.6535 22.1865 29.54 23.28 29.54Z" stroke="white" stroke-width="1.76" stroke-linecap="round" stroke-linejoin="round"/>
<path d="M33.84 29.54C34.9335 29.54 35.82 28.6535 35.82 27.56C35.82 26.4664 34.9335 25.58 33.84 25.58C32.7465 25.58 31.86 26.4664 31.86 27.56C31.86 28.6535 32.7465 29.54 33.84 29.54Z" stroke="white" stroke-width="1.76" stroke-linecap="round" stroke-linejoin="round"/>
<path d="M25.26 27.56H31.86" stroke="white" stroke-width="1.76" stroke-linecap="round" stroke-linejoin="round"/>
<path d="M35.82 27.56H37.8C37.9751 27.56 38.143 27.4904 38.2667 27.3667C38.3905 27.2429 38.46 27.075 38.46 26.9V23.6C38.46 23.4249 38.3905 23.2571 38.2667 23.1333C38.143 23.0095 37.9751 22.94 37.8 22.94H35.16L31.3931 19.173C31.2694 19.0495 31.1018 18.9801 30.927 18.98H21.6531C21.5446 18.98 21.4377 19.0069 21.342 19.0581C21.2463 19.1093 21.1648 19.1834 21.1045 19.2737L18.66 22.94V26.9C18.66 27.075 18.7296 27.2429 18.8533 27.3667C18.9771 27.4904 19.145 27.56 19.32 27.56H21.3" stroke="white" stroke-width="1.76" stroke-linecap="round" stroke-linejoin="round"/>
<path d="M35.16 22.94H18.66" stroke="white" stroke-width="1.76" stroke-linecap="round" stroke-linejoin="round"/>
<path d="M54.245 28.6V18.36H60.595V19.69H55.79V22.81H60.14V24.135H55.79V28.6H54.245ZM63.87 18.36V28.6H62.375V18.36H63.87ZM69.1912 28.755C68.4346 28.755 67.7829 28.5933 67.2362 28.27C66.6929 27.9433 66.2729 27.485 65.9762 26.895C65.6829 26.3016 65.5362 25.6066 65.5362 24.81C65.5362 24.0233 65.6829 23.33 65.9762 22.73C66.2729 22.13 66.6862 21.6616 67.2162 21.325C67.7496 20.9883 68.3729 20.82 69.0862 20.82C69.5196 20.82 69.9396 20.8916 70.3462 21.035C70.7529 21.1783 71.1179 21.4033 71.4412 21.71C71.7646 22.0166 72.0196 22.415 72.2062 22.905C72.3929 23.3916 72.4862 23.9833 72.4862 24.68V25.21H66.3812V24.09H71.0212C71.0212 23.6966 70.9412 23.3483 70.7812 23.045C70.6212 22.7383 70.3962 22.4966 70.1062 22.32C69.8196 22.1433 69.4829 22.055 69.0962 22.055C68.6762 22.055 68.3096 22.1583 67.9962 22.365C67.6862 22.5683 67.4462 22.835 67.2762 23.165C67.1096 23.4916 67.0262 23.8466 67.0262 24.23V25.105C67.0262 25.6183 67.1162 26.055 67.2962 26.415C67.4796 26.775 67.7346 27.05 68.0612 27.24C68.3879 27.4266 68.7696 27.52 69.2062 27.52C69.4896 27.52 69.7479 27.48 69.9812 27.4C70.2146 27.3166 70.4162 27.1933 70.5862 27.03C70.7562 26.8666 70.8862 26.665 70.9762 26.425L72.3912 26.68C72.2779 27.0966 72.0746 27.4616 71.7812 27.775C71.4912 28.085 71.1262 28.3266 70.6862 28.5C70.2496 28.67 69.7512 28.755 69.1912 28.755ZM77.455 28.755C76.6983 28.755 76.0467 28.5933 75.5 28.27C74.9567 27.9433 74.5367 27.485 74.24 26.895C73.9467 26.3016 73.8 25.6066 73.8 24.81C73.8 24.0233 73.9467 23.33 74.24 22.73C74.5367 22.13 74.95 21.6616 75.48 21.325C76.0133 20.9883 76.6367 20.82 77.35 20.82C77.7833 20.82 78.2033 20.8916 78.61 21.035C79.0167 21.1783 79.3817 21.4033 79.705 21.71C80.0283 22.0166 80.2833 22.415 80.47 22.905C80.6567 23.3916 80.75 23.9833 80.75 24.68V25.21H74.645V24.09H79.285C79.285 23.6966 79.205 23.3483 79.045 23.045C78.885 22.7383 78.66 22.4966 78.37 22.32C78.0833 22.1433 77.7467 22.055 77.36 22.055C76.94 22.055 76.5733 22.1583 76.26 22.365C75.95 22.5683 75.71 22.835 75.54 23.165C75.3733 23.4916 75.29 23.8466 75.29 24.23V25.105C75.29 25.6183 75.38 26.055 75.56 26.415C75.7433 26.775 75.9983 27.05 76.325 27.24C76.6517 27.4266 77.0333 27.52 77.47 27.52C77.7533 27.52 78.0117 27.48 78.245 27.4C78.4783 27.3166 78.68 27.1933 78.85 27.03C79.02 26.8666 79.15 26.665 79.24 26.425L80.655 26.68C80.5417 27.0966 80.3383 27.4616 80.045 27.775C79.755 28.085 79.39 28.3266 78.95 28.5C78.5133 28.67 78.015 28.755 77.455 28.755ZM85.9937 20.92V22.12H81.7987V20.92H85.9937ZM82.9237 19.08H84.4187V26.345C84.4187 26.635 84.4621 26.8533 84.5487 27C84.6354 27.1433 84.7471 27.2416 84.8837 27.295C85.0237 27.345 85.1754 27.37 85.3387 27.37C85.4587 27.37 85.5637 27.3616 85.6537 27.345C85.7437 27.3283 85.8137 27.315 85.8637 27.305L86.1337 28.54C86.0471 28.5733 85.9237 28.6066 85.7637 28.64C85.6037 28.6766 85.4037 28.6966 85.1637 28.7C84.7704 28.7066 84.4037 28.6366 84.0637 28.49C83.7237 28.3433 83.4487 28.1166 83.2387 27.81C83.0287 27.5033 82.9237 27.1183 82.9237 26.655V19.08ZM90.9887 19.69V18.36H98.9137V19.69H95.7187V28.6H94.1787V19.69H90.9887ZM99.7475 28.6V20.92H101.192V22.14H101.272C101.412 21.7266 101.659 21.4016 102.012 21.165C102.369 20.925 102.772 20.805 103.222 20.805C103.316 20.805 103.426 20.8083 103.552 20.815C103.682 20.8216 103.784 20.83 103.857 20.84V22.27C103.797 22.2533 103.691 22.235 103.537 22.215C103.384 22.1916 103.231 22.18 103.077 22.18C102.724 22.18 102.409 22.255 102.132 22.405C101.859 22.5516 101.642 22.7566 101.482 23.02C101.322 23.28 101.242 23.5766 101.242 23.91V28.6H99.7475ZM107.317 28.77C106.831 28.77 106.391 28.68 105.997 28.5C105.604 28.3166 105.292 28.0516 105.062 27.705C104.836 27.3583 104.722 26.9333 104.722 26.43C104.722 25.9966 104.806 25.64 104.972 25.36C105.139 25.08 105.364 24.8583 105.647 24.695C105.931 24.5316 106.247 24.4083 106.597 24.325C106.947 24.2416 107.304 24.1783 107.667 24.135C108.127 24.0816 108.501 24.0383 108.787 24.005C109.074 23.9683 109.282 23.91 109.412 23.83C109.542 23.75 109.607 23.62 109.607 23.44V23.405C109.607 22.9683 109.484 22.63 109.237 22.39C108.994 22.15 108.631 22.03 108.147 22.03C107.644 22.03 107.247 22.1416 106.957 22.365C106.671 22.585 106.472 22.83 106.362 23.1L104.957 22.78C105.124 22.3133 105.367 21.9366 105.687 21.65C106.011 21.36 106.382 21.15 106.802 21.02C107.222 20.8866 107.664 20.82 108.127 20.82C108.434 20.82 108.759 20.8566 109.102 20.93C109.449 21 109.772 21.13 110.072 21.32C110.376 21.51 110.624 21.7816 110.817 22.135C111.011 22.485 111.107 22.94 111.107 23.5V28.6H109.647V27.55H109.587C109.491 27.7433 109.346 27.9333 109.152 28.12C108.959 28.3066 108.711 28.4616 108.407 28.585C108.104 28.7083 107.741 28.77 107.317 28.77ZM107.642 27.57C108.056 27.57 108.409 27.4883 108.702 27.325C108.999 27.1616 109.224 26.9483 109.377 26.685C109.534 26.4183 109.612 26.1333 109.612 25.83V24.84C109.559 24.8933 109.456 24.9433 109.302 24.99C109.152 25.0333 108.981 25.0716 108.787 25.105C108.594 25.135 108.406 25.1633 108.222 25.19C108.039 25.2133 107.886 25.2333 107.762 25.25C107.472 25.2866 107.207 25.3483 106.967 25.435C106.731 25.5216 106.541 25.6466 106.397 25.81C106.257 25.97 106.187 26.1833 106.187 26.45C106.187 26.82 106.324 27.1 106.597 27.29C106.871 27.4766 107.219 27.57 107.642 27.57ZM116.334 28.755C115.59 28.755 114.95 28.5866 114.414 28.25C113.88 27.91 113.47 27.4416 113.184 26.845C112.897 26.2483 112.754 25.565 112.754 24.795C112.754 24.015 112.9 23.3266 113.194 22.73C113.487 22.13 113.9 21.6616 114.434 21.325C114.967 20.9883 115.595 20.82 116.319 20.82C116.902 20.82 117.422 20.9283 117.879 21.145C118.335 21.3583 118.704 21.6583 118.984 22.045C119.267 22.4316 119.435 22.8833 119.489 23.4H118.034C117.954 23.04 117.77 22.73 117.484 22.47C117.2 22.21 116.82 22.08 116.344 22.08C115.927 22.08 115.562 22.19 115.249 22.41C114.939 22.6266 114.697 22.9366 114.524 23.34C114.35 23.74 114.264 24.2133 114.264 24.76C114.264 25.32 114.349 25.8033 114.519 26.21C114.689 26.6166 114.929 26.9316 115.239 27.155C115.552 27.3783 115.92 27.49 116.344 27.49C116.627 27.49 116.884 27.4383 117.114 27.335C117.347 27.2283 117.542 27.0766 117.699 26.88C117.859 26.6833 117.97 26.4466 118.034 26.17H119.489C119.435 26.6666 119.274 27.11 119.004 27.5C118.734 27.89 118.372 28.1966 117.919 28.42C117.469 28.6433 116.94 28.755 116.334 28.755ZM122.462 25.995L122.452 24.17H122.712L125.772 20.92H127.562L124.072 24.62H123.837L122.462 25.995ZM121.087 28.6V18.36H122.582V28.6H121.087ZM125.937 28.6L123.187 24.95L124.217 23.905L127.772 28.6H125.937ZM128.925 28.6V20.92H130.42V28.6H128.925ZM129.68 19.735C129.42 19.735 129.197 19.6483 129.01 19.475C128.827 19.2983 128.735 19.0883 128.735 18.845C128.735 18.5983 128.827 18.3883 129.01 18.215C129.197 18.0383 129.42 17.95 129.68 17.95C129.94 17.95 130.162 18.0383 130.345 18.215C130.532 18.3883 130.625 18.5983 130.625 18.845C130.625 19.0883 130.532 19.2983 130.345 19.475C130.162 19.6483 129.94 19.735 129.68 19.735ZM133.926 24.04V28.6H132.431V20.92H133.866V22.17H133.961C134.138 21.7633 134.415 21.4366 134.791 21.19C135.171 20.9433 135.65 20.82 136.226 20.82C136.75 20.82 137.208 20.93 137.601 21.15C137.995 21.3666 138.3 21.69 138.516 22.12C138.733 22.55 138.841 23.0816 138.841 23.715V28.6H137.346V23.895C137.346 23.3383 137.201 22.9033 136.911 22.59C136.621 22.2733 136.223 22.115 135.716 22.115C135.37 22.115 135.061 22.19 134.791 22.34C134.525 22.49 134.313 22.71 134.156 23C134.003 23.2866 133.926 23.6333 133.926 24.04ZM144.066 31.64C143.456 31.64 142.931 31.56 142.491 31.4C142.055 31.24 141.698 31.0283 141.421 30.765C141.145 30.5016 140.938 30.2133 140.801 29.9L142.086 29.37C142.176 29.5166 142.296 29.6716 142.446 29.835C142.6 30.0016 142.806 30.1433 143.066 30.26C143.33 30.3766 143.668 30.435 144.081 30.435C144.648 30.435 145.116 30.2966 145.486 30.02C145.856 29.7466 146.041 29.31 146.041 28.71V27.2H145.946C145.856 27.3633 145.726 27.545 145.556 27.745C145.39 27.945 145.16 28.1183 144.866 28.265C144.573 28.4116 144.191 28.485 143.721 28.485C143.115 28.485 142.568 28.3433 142.081 28.06C141.598 27.7733 141.215 27.3516 140.931 26.795C140.651 26.235 140.511 25.5466 140.511 24.73C140.511 23.9133 140.65 23.2133 140.926 22.63C141.206 22.0466 141.59 21.6 142.076 21.29C142.563 20.9766 143.115 20.82 143.731 20.82C144.208 20.82 144.593 20.9 144.886 21.06C145.18 21.2166 145.408 21.4 145.571 21.61C145.738 21.82 145.866 22.005 145.956 22.165H146.066V20.92H147.531V28.77C147.531 29.43 147.378 29.9716 147.071 30.395C146.765 30.8183 146.35 31.1316 145.826 31.335C145.306 31.5383 144.72 31.64 144.066 31.64ZM144.051 27.245C144.481 27.245 144.845 27.145 145.141 26.945C145.441 26.7416 145.668 26.4516 145.821 26.075C145.978 25.695 146.056 25.24 146.056 24.71C146.056 24.1933 145.98 23.7383 145.826 23.345C145.673 22.9516 145.448 22.645 145.151 22.425C144.855 22.2016 144.488 22.09 144.051 22.09C143.601 22.09 143.226 22.2066 142.926 22.44C142.626 22.67 142.4 22.9833 142.246 23.38C142.096 23.7766 142.021 24.22 142.021 24.71C142.021 25.2133 142.098 25.655 142.251 26.035C142.405 26.415 142.631 26.7116 142.931 26.925C143.235 27.1383 143.608 27.245 144.051 27.245Z" fill="#3B3B3B"/>
<path d="M174.449 27.7188L175.639 26.5291C175.743 26.4242 175.868 26.341 176.004 26.2842C176.141 26.2274 176.288 26.1982 176.436 26.1982C176.584 26.1982 176.731 26.2274 176.867 26.2842C177.004 26.341 177.128 26.4242 177.233 26.5291L182.536 31.8325L184.339 27.13L184.351 27.0991C184.466 26.8314 184.657 26.6034 184.901 26.4436C185.144 26.2837 185.43 26.199 185.721 26.2H185.794C186.098 26.2128 186.39 26.3185 186.632 26.503C186.873 26.6874 187.053 26.9417 187.145 27.2313L192.045 42.2388C192.131 42.5014 192.143 42.7827 192.078 43.0514C192.014 43.3202 191.877 43.5659 191.681 43.7613C191.486 43.9566 191.24 44.0941 190.972 44.1583C190.703 44.2225 190.422 44.211 190.159 44.125L175.151 39.2247C174.865 39.1288 174.614 38.9484 174.431 38.7072C174.249 38.466 174.143 38.1752 174.129 37.8731C174.115 37.571 174.192 37.2716 174.351 37.0143C174.51 36.7569 174.743 36.5536 175.019 36.431L175.05 36.4188L179.753 34.6122L174.449 29.3097C174.238 29.0988 174.12 28.8126 174.12 28.5143C174.12 28.2159 174.238 27.9298 174.449 27.7188Z" fill="#B22DFD"/>
</svg>
