<svg width="20" height="19" viewBox="0 0 20 19" fill="none" xmlns="http://www.w3.org/2000/svg">
<path fill-rule="evenodd" clip-rule="evenodd" d="M10.2476 0C4.95025 0 0.688477 4.26444 0.688477 9.56511C0.688477 13.7897 3.43673 17.3766 7.22055 18.652C7.6985 18.7317 7.85782 18.4527 7.85782 18.1737C7.85782 17.9346 7.85782 17.3368 7.85782 16.5397C5.18923 17.1375 4.63162 15.2643 4.63162 15.2643C4.19349 14.1484 3.55621 13.8694 3.55621 13.8694C2.67996 13.2716 3.63587 13.2716 3.63587 13.2716C4.59179 13.3513 5.10957 14.268 5.10957 14.268C5.946 15.7426 7.34004 15.3042 7.89765 15.065C7.97731 14.4274 8.21629 14.0288 8.4951 13.7897C6.38412 13.5506 4.15366 12.7136 4.15366 9.047C4.15366 8.01078 4.51213 7.13398 5.1494 6.4963C5.06974 6.25717 4.71128 5.30066 5.22906 3.94561C5.22906 3.94561 6.02566 3.70648 7.85782 4.94197C8.61459 4.7427 9.45101 4.62314 10.2476 4.62314C11.0442 4.62314 11.8806 4.7427 12.6374 4.94197C14.4696 3.70648 15.2661 3.94561 15.2661 3.94561C15.7839 5.26081 15.4653 6.21732 15.3458 6.4963C15.9433 7.17383 16.3415 8.01078 16.3415 9.047C16.3415 12.7136 14.1111 13.5107 11.9603 13.7498C12.3187 14.0288 12.5976 14.6266 12.5976 15.5034C12.5976 16.7788 12.5976 17.815 12.5976 18.1338C12.5976 18.373 12.7569 18.6918 13.2747 18.6121C17.0585 17.3766 19.8067 13.7897 19.8067 9.56511C19.8067 4.26444 15.545 0 10.2476 0Z" fill="#4D4D4D"/>
</svg>
