<svg width="85" height="85" viewBox="0 0 85 85" fill="none" xmlns="http://www.w3.org/2000/svg">
<g filter="url(#filter0_i_6064_4717)">
<path d="M12.0564 51.4347C6.49727 41.581 3.71769 36.6541 5.05184 31.866C6.38599 27.0778 11.3128 24.2982 21.1666 18.7391L33.0115 12.0565C42.8653 6.49736 47.7921 3.71778 52.5803 5.05193C57.3684 6.38608 60.148 11.3129 65.7072 21.1667L72.3897 33.0116C77.9489 42.8653 80.7285 47.7922 79.3943 52.5804C78.0602 57.3685 73.1333 60.1481 63.2796 65.7073L51.4346 72.3898C41.5809 77.949 36.6541 80.7286 31.8659 79.3944C27.0777 78.0603 24.2981 73.1334 18.739 63.2797L12.0564 51.4347Z" fill="#2C4BFD"/>
<path d="M50.176 35.6306L48.354 42.1698C48.297 42.3743 48.1611 42.5478 47.9762 42.6521C47.7913 42.7564 47.5725 42.783 47.368 42.726C47.1635 42.669 46.9901 42.5331 46.8857 42.3482C46.7814 42.1633 46.7548 41.9446 46.8118 41.7401L48.4199 35.9715L42.6509 34.3648C42.5497 34.3366 42.455 34.2887 42.3722 34.2239C42.2895 34.1591 42.2203 34.0786 42.1686 33.9871C42.117 33.8955 42.0839 33.7947 42.0712 33.6904C42.0585 33.586 42.0665 33.4802 42.0947 33.3789C42.1517 33.1744 42.2876 33.0009 42.4725 32.8966C42.564 32.845 42.6649 32.8119 42.7692 32.7992C42.8736 32.7865 42.9794 32.7945 43.0806 32.8227L49.6198 34.6447C49.7211 34.6729 49.8158 34.7207 49.8986 34.7855C49.9814 34.8503 50.0506 34.9308 50.1022 35.0224C50.1539 35.114 50.187 35.2148 50.1996 35.3192C50.2123 35.4236 50.2043 35.5294 50.176 35.6306ZM45.4392 37.0033L38.9001 35.1813C38.7476 35.1387 38.5859 35.1423 38.4355 35.1917C38.285 35.241 38.1526 35.3339 38.055 35.4586C37.9574 35.5832 37.899 35.734 37.8871 35.8919C37.8753 36.0497 37.9105 36.2076 37.9884 36.3454L39.9686 39.8554C37.7954 41.3167 36.2525 43.5432 35.6473 46.0912C35.042 48.6392 35.419 51.3217 36.7029 53.6043C36.8072 53.789 36.9806 53.9249 37.185 53.9818C37.3894 54.0388 37.608 54.0122 37.7928 53.9079C37.9776 53.8037 38.1134 53.6303 38.1703 53.4259C38.2273 53.2215 38.2007 53.0029 38.0965 52.8181C37.0204 50.9054 36.6969 48.66 37.1892 46.5213C37.6815 44.3826 38.9542 42.5047 40.7583 41.255L42.7055 44.7066C42.7832 44.8445 42.9001 44.9563 43.0414 45.0278C43.1826 45.0993 43.3419 45.1273 43.4991 45.1082C43.6562 45.0891 43.8042 45.0238 43.9242 44.9206C44.0443 44.8174 44.131 44.6809 44.1734 44.5283L45.9954 37.9892C46.0237 37.8879 46.0317 37.7821 46.0191 37.6777C46.0064 37.5734 45.9733 37.4725 45.9216 37.381C45.87 37.2894 45.8008 37.2089 45.718 37.1441C45.6352 37.0793 45.5405 37.0314 45.4392 37.0033Z" fill="white"/>
</g>
<defs>
<filter id="filter0_i_6064_4717" x="0.263672" y="-5.33624" width="83.9189" height="89.5188" filterUnits="userSpaceOnUse" color-interpolation-filters="sRGB">
<feFlood flood-opacity="0" result="BackgroundImageFix"/>
<feBlend mode="normal" in="SourceGraphic" in2="BackgroundImageFix" result="shape"/>
<feColorMatrix in="SourceAlpha" type="matrix" values="0 0 0 0 0 0 0 0 0 0 0 0 0 0 0 0 0 0 127 0" result="hardAlpha"/>
<feOffset dy="-5.6"/>
<feGaussianBlur stdDeviation="7.16"/>
<feComposite in2="hardAlpha" operator="arithmetic" k2="-1" k3="1"/>
<feColorMatrix type="matrix" values="0 0 0 0 0 0 0 0 0 0 0 0 0 0 0 0 0 0 0.25 0"/>
<feBlend mode="normal" in2="shape" result="effect1_innerShadow_6064_4717"/>
</filter>
</defs>
</svg>
