<svg width="21" height="20" viewBox="0 0 21 20" fill="none" xmlns="http://www.w3.org/2000/svg">
<path d="M10.344 1.80182C13.0122 1.80182 13.3282 1.81182 14.3822 1.85991C15.016 1.86767 15.6437 1.98412 16.2381 2.20418C16.6692 2.37053 17.0606 2.62535 17.3873 2.95224C17.714 3.27913 17.9687 3.67085 18.1349 4.10219C18.3549 4.69697 18.4712 5.32509 18.479 5.95924C18.5266 7.01395 18.537 7.33013 18.537 10C18.537 12.6699 18.5271 12.986 18.479 14.0408C18.4712 14.6749 18.3549 15.303 18.1349 15.8978C17.9687 16.3291 17.714 16.7209 17.3873 17.0478C17.0606 17.3747 16.6692 17.6295 16.2381 17.7958C15.6437 18.0159 15.016 18.1323 14.3822 18.1401C13.3286 18.1877 13.0127 18.1982 10.344 18.1982C7.6753 18.1982 7.35933 18.1882 6.30575 18.1401C5.672 18.1323 5.04427 18.0159 4.44985 17.7958C4.01879 17.6295 3.62732 17.3747 3.30063 17.0478C2.97394 16.7209 2.71928 16.3291 2.55304 15.8978C2.33311 15.303 2.21674 14.6749 2.20898 14.0408C2.16139 12.986 2.15093 12.6699 2.15093 10C2.15093 7.33013 2.16092 7.01395 2.20898 5.95924C2.21674 5.32509 2.33311 4.69697 2.55304 4.10219C2.71928 3.67085 2.97394 3.27913 3.30063 2.95224C3.62732 2.62535 4.01879 2.37053 4.44985 2.20418C5.04427 1.98412 5.672 1.86767 6.30575 1.85991C7.3598 1.81229 7.67578 1.80182 10.344 1.80182ZM10.344 0C7.63152 0 7.28985 0.011428 6.2239 0.0599971C5.39448 0.0765049 4.57386 0.233646 3.79696 0.524737C3.1305 0.775994 2.52686 1.16974 2.02815 1.67849C1.51925 2.17769 1.12542 2.78206 0.874165 3.44936C0.583256 4.22675 0.426213 5.04788 0.409716 5.87782C0.362129 6.94348 0.350708 7.28537 0.350708 9.99952C0.350708 12.7137 0.362129 13.0556 0.410668 14.1222C0.427165 14.9521 0.584208 15.7733 0.875117 16.5506C1.12609 17.2179 1.5196 17.8222 2.02815 18.3215C2.52713 18.8304 3.13111 19.2241 3.79791 19.4753C4.57482 19.7664 5.39543 19.9235 6.22485 19.94C7.2908 19.9876 7.63105 20 10.3449 20C13.0588 20 13.3991 19.9886 14.465 19.94C15.2944 19.9235 16.1151 19.7664 16.892 19.4753C17.5556 19.2179 18.1582 18.8247 18.6614 18.3209C19.1645 17.8172 19.557 17.2139 19.8138 16.5497C20.1047 15.7723 20.2618 14.9512 20.2783 14.1212C20.3258 13.0556 20.3373 12.7137 20.3373 9.99952C20.3373 7.28537 20.3258 6.94348 20.2773 5.87686C20.2608 5.04693 20.1038 4.2258 19.8129 3.44841C19.5619 2.78119 19.1684 2.17684 18.6598 1.67754C18.1608 1.16867 17.5569 0.774919 16.8901 0.523785C16.1132 0.232694 15.2925 0.0755526 14.4631 0.0590448C13.3981 0.0114281 13.0564 0 10.344 0Z" fill="#4D4D4D"/>
<path d="M10.3449 4.8667C9.32995 4.8667 8.33777 5.16786 7.49385 5.7321C6.64994 6.29634 5.99218 7.09832 5.60377 8.03662C5.21536 8.97491 5.11373 10.0074 5.31174 11.0035C5.50975 11.9996 5.99851 12.9145 6.7162 13.6327C7.4339 14.3508 8.34829 14.8399 9.34376 15.038C10.3392 15.2362 11.3711 15.1345 12.3088 14.7458C13.2465 14.3572 14.048 13.699 14.6118 12.8545C15.1757 12.0101 15.4767 11.0173 15.4767 10.0017C15.4767 8.63981 14.936 7.3337 13.9736 6.3707C13.0112 5.40771 11.706 4.8667 10.3449 4.8667ZM10.3449 13.3349C9.68609 13.3349 9.04206 13.1394 8.49427 12.7731C7.94647 12.4069 7.51952 11.8863 7.26739 11.2772C7.01527 10.6682 6.94931 9.998 7.07784 9.35142C7.20637 8.70485 7.52362 8.11094 7.98948 7.64478C8.45535 7.17863 9.04889 6.86118 9.69506 6.73256C10.3412 6.60395 11.011 6.66996 11.6197 6.92224C12.2284 7.17452 12.7486 7.60174 13.1146 8.14988C13.4806 8.69802 13.676 9.34245 13.676 10.0017C13.676 10.8857 13.3251 11.7335 12.7004 12.3586C12.0757 12.9837 11.2284 13.3349 10.3449 13.3349Z" fill="#4D4D4D"/>
<path d="M15.6784 5.86253C16.3407 5.86253 16.8776 5.3253 16.8776 4.66259C16.8776 3.99988 16.3407 3.46265 15.6784 3.46265C15.0161 3.46265 14.4792 3.99988 14.4792 4.66259C14.4792 5.3253 15.0161 5.86253 15.6784 5.86253Z" fill="#4D4D4D"/>
</svg>
