<svg width="125" height="24" viewBox="0 0 125 24" fill="none" xmlns="http://www.w3.org/2000/svg">
<g clip-path="url(#clip0_6064_4688)">
<path d="M22.6263 23.0405C22.6263 23.571 22.1964 24.0009 21.6668 24.0009C21.6604 24.0009 21.6539 24.0009 21.6474 24.0002H21.646C21.6388 24.0009 21.6317 24.0009 21.6245 24.0009H0V23.8931C0.640826 22.0442 1.51272 20.3045 2.58125 18.7072C2.58268 18.7036 2.58483 18.7007 2.58699 18.6979C3.32541 17.5944 4.15712 16.56 5.07207 15.6046C5.36701 15.2955 5.67128 14.995 5.98416 14.7031C7.02971 13.7262 8.16784 12.8463 9.38276 12.08L10.6479 13.3481C10.8216 13.5213 11.0613 13.6291 11.326 13.6291C11.5499 13.6291 11.7559 13.5522 11.9188 13.4243C11.9195 13.4243 11.9202 13.4243 11.9202 13.4228C11.9784 13.3768 12.0315 13.3243 12.0774 13.2661L16.1412 9.21963L16.9586 8.40588C17.0346 8.3498 17.1021 8.28295 17.1581 8.20747C17.1581 8.20675 17.1588 8.20675 17.1588 8.20675C17.2779 8.04644 17.349 7.84732 17.349 7.63238C17.349 7.10186 16.9191 6.67126 16.3895 6.67126H6.42477C6.38099 6.66479 6.3365 6.66191 6.29058 6.66191C6.24465 6.66191 6.20087 6.66479 6.1571 6.67126C5.69065 6.73667 5.33185 7.1378 5.33185 7.62303C5.33185 7.86457 5.42083 8.08526 5.56794 8.2542C5.56794 8.2542 5.56794 8.25491 5.56866 8.25491C5.59521 8.28654 5.62463 8.31602 5.65549 8.34262L5.65908 8.34621L6.59771 9.2872C5.32324 10.0485 4.12913 10.9298 3.0319 11.9175C1.91602 12.9211 0.899884 14.0331 0 15.238V0.83336C0.0624321 0.363223 0.464294 0.000915527 0.950834 0.000915527H12.0071C16.0709 0.000915527 19.5283 2.60248 20.8093 6.23419C21.0719 6.97893 21.2427 7.76752 21.3087 8.58559C21.3295 8.83719 21.3396 9.09167 21.3396 9.34902C21.3396 12.916 19.3453 16.0165 16.4132 17.5922C17.0217 17.9337 17.613 18.3025 18.185 18.6979C18.1893 18.7007 18.1943 18.7036 18.1986 18.7072C19.6826 19.7316 21.0389 20.9278 22.238 22.2677C22.2667 22.2994 22.2947 22.3303 22.3227 22.3619C22.3263 22.3662 22.3306 22.3705 22.3335 22.3748C22.3902 22.4388 22.4469 22.5035 22.5021 22.5682C22.5811 22.7077 22.6263 22.8687 22.6263 23.0405Z" fill="#2C4BFD"/>
</g>
<path d="M110.084 23.7068L106.47 11.3975H108.888L111.574 21.6553L111.11 21.6309L114.09 11.3975H116.825L119.805 21.6309L119.341 21.6553L122.003 11.3975H124.47L120.855 23.7068H118.34L115.213 13.0339H115.702L112.576 23.7068H110.084Z" fill="#2C4BFD"/>
<path d="M99.0201 24C97.8641 24 96.822 23.7313 95.8939 23.194C94.9821 22.6567 94.2576 21.9077 93.7203 20.9471C93.1992 19.9702 92.9387 18.8467 92.9387 17.5767C92.9387 16.2741 93.2074 15.1425 93.7447 14.1818C94.282 13.2049 95.0147 12.4478 95.9428 11.9105C96.8709 11.3732 97.9129 11.1045 99.069 11.1045C100.241 11.1045 101.283 11.3732 102.195 11.9105C103.107 12.4478 103.823 13.1968 104.344 14.1574C104.882 15.1181 105.15 16.2497 105.15 17.5523C105.15 18.8548 104.882 19.9864 104.344 20.9471C103.823 21.9077 103.099 22.6567 102.171 23.194C101.243 23.7313 100.192 24 99.0201 24ZM99.0201 21.8996C99.6877 21.8996 100.29 21.7368 100.827 21.4111C101.381 21.0855 101.821 20.6052 102.146 19.9702C102.488 19.3189 102.659 18.5129 102.659 17.5523C102.659 16.5916 102.496 15.7938 102.171 15.1588C101.845 14.5075 101.405 14.019 100.852 13.6934C100.315 13.3677 99.7202 13.2049 99.069 13.2049C98.4177 13.2049 97.8152 13.3677 97.2616 13.6934C96.708 14.019 96.2603 14.5075 95.9184 15.1588C95.5927 15.7938 95.4299 16.5916 95.4299 17.5523C95.4299 18.5129 95.5927 19.3189 95.9184 19.9702C96.2603 20.6052 96.6999 21.0855 97.2372 21.4111C97.7908 21.7368 98.3851 21.8996 99.0201 21.8996Z" fill="#2C4BFD"/>
<path d="M79.751 23.7061V9.73603C79.751 8.88935 79.8894 8.19736 80.1662 7.66005C80.4593 7.12274 80.8827 6.73196 81.4363 6.48773C81.9898 6.2435 82.6574 6.12138 83.439 6.12138H84.8799V8.19736H83.8297C83.2436 8.19736 82.8202 8.31948 82.5597 8.56371C82.3155 8.79166 82.1934 9.19872 82.1934 9.78487V23.7061H79.751ZM77.9437 13.4728V11.3968H85.1486V13.4728H77.9437ZM87.6398 23.7061V6.12138H90.0821V23.7061H87.6398Z" fill="#2C4BFD"/>
<path d="M70.5173 24C69.345 24 68.3029 23.7313 67.3911 23.194C66.4793 22.6567 65.7629 21.9077 65.2419 20.9471C64.7371 19.9864 64.4847 18.8711 64.4847 17.6011C64.4847 16.2985 64.7371 15.1669 65.2419 14.2063C65.7629 13.2293 66.4793 12.4722 67.3911 11.9349C68.3029 11.3813 69.3613 11.1045 70.5661 11.1045C71.771 11.1045 72.8049 11.3732 73.6679 11.9105C74.5308 12.4478 75.1984 13.1642 75.6706 14.0597C76.1428 14.939 76.3789 15.9159 76.3789 16.9905C76.3789 17.1533 76.3707 17.3324 76.3545 17.5278C76.3545 17.7069 76.3463 17.9105 76.33 18.1384H66.2676V16.4044H73.9365C73.8877 15.3786 73.5458 14.5808 72.9108 14.0109C72.2758 13.4247 71.4861 13.1316 70.5417 13.1316C69.8741 13.1316 69.2636 13.2863 68.71 13.5957C68.1564 13.8888 67.7086 14.3284 67.3667 14.9145C67.041 15.4844 66.8782 16.209 66.8782 17.0882V17.7721C66.8782 18.6839 67.041 19.4573 67.3667 20.0923C67.7086 20.711 68.1564 21.1832 68.71 21.5088C69.2636 21.8182 69.866 21.9729 70.5173 21.9729C71.2988 21.9729 71.942 21.8019 72.4467 21.46C72.9515 21.1181 73.326 20.654 73.5702 20.0679H76.0125C75.8009 20.8168 75.4426 21.4925 74.9379 22.095C74.4332 22.6811 73.8063 23.1452 73.0573 23.4871C72.3246 23.829 71.4779 24 70.5173 24Z" fill="#2C4BFD"/>
<path d="M54.8927 23.9992C53.7204 23.9992 52.6865 23.7224 51.791 23.1688C50.8955 22.599 50.1953 21.8337 49.6906 20.873C49.2021 19.8961 48.9579 18.7889 48.9579 17.5515C48.9579 16.2977 49.2021 15.1906 49.6906 14.2299C50.1953 13.2693 50.8955 12.5121 51.791 11.9585C52.7028 11.3887 53.7448 11.1037 54.9172 11.1037C55.8778 11.1037 56.7245 11.2991 57.4572 11.6899C58.1899 12.0644 58.7598 12.6017 59.1668 13.3018V6.12138H61.6091V23.7061H59.411L59.1668 21.8011C58.9226 22.1756 58.6051 22.5338 58.2143 22.8757C57.8235 23.2014 57.3514 23.47 56.7978 23.6817C56.2442 23.8934 55.6092 23.9992 54.8927 23.9992ZM55.2835 21.8744C56.0488 21.8744 56.7245 21.6953 57.3106 21.3371C57.8968 20.9789 58.3446 20.4741 58.6539 19.8228C58.9796 19.1716 59.1424 18.4144 59.1424 17.5515C59.1424 16.6885 58.9796 15.9395 58.6539 15.3045C58.3446 14.6532 57.8968 14.1485 57.3106 13.7903C56.7245 13.4158 56.0488 13.2286 55.2835 13.2286C54.5508 13.2286 53.8914 13.4158 53.3052 13.7903C52.7191 14.1485 52.2632 14.6532 51.9375 15.3045C51.6119 15.9395 51.4491 16.6885 51.4491 17.5515C51.4491 18.4144 51.6119 19.1716 51.9375 19.8228C52.2632 20.4741 52.7191 20.9789 53.3052 21.3371C53.8914 21.6953 54.5508 21.8744 55.2835 21.8744Z" fill="#2C4BFD"/>
<path d="M43.4866 23.7062V11.3968H45.9289V23.7062H43.4866ZM44.7322 9.07663C44.26 9.07663 43.8692 8.93009 43.5599 8.63701C43.2668 8.34393 43.1202 7.96944 43.1202 7.51354C43.1202 7.07392 43.2668 6.71571 43.5599 6.43892C43.8692 6.14584 44.26 5.9993 44.7322 5.9993C45.1881 5.9993 45.5707 6.14584 45.8801 6.43892C46.1894 6.71571 46.3441 7.07392 46.3441 7.51354C46.3441 7.96944 46.1894 8.34393 45.8801 8.63701C45.5707 8.93009 45.1881 9.07663 44.7322 9.07663Z" fill="#2C4BFD"/>
<path d="M28.6262 23.7071V6.61078H34.4145C35.766 6.61078 36.8731 6.83873 37.7361 7.29463C38.5991 7.75053 39.2341 8.36111 39.6411 9.12638C40.0645 9.87536 40.2761 10.7302 40.2761 11.6908C40.2761 12.6026 40.0645 13.4493 39.6411 14.2308C39.2341 14.9961 38.5909 15.6148 37.7117 16.087C36.8324 16.5429 35.709 16.7709 34.3413 16.7709H31.0685V23.7071H28.6262ZM37.614 23.7071L33.9261 16.1114H36.6126L40.4471 23.7071H37.614ZM31.0685 14.9147H34.2436C35.4485 14.9147 36.3358 14.6216 36.9057 14.0355C37.4756 13.433 37.7605 12.6678 37.7605 11.7397C37.7605 10.7953 37.4837 10.0463 36.9301 9.49273C36.3765 8.93913 35.481 8.66233 34.2436 8.66233H31.0685V14.9147Z" fill="#2C4BFD"/>
<defs>
<clipPath id="clip0_6064_4688">
<rect width="22.6263" height="24" fill="white"/>
</clipPath>
</defs>
</svg>
