<svg width="104" height="141" viewBox="0 0 104 141" fill="none" xmlns="http://www.w3.org/2000/svg">
<path opacity="0.7" d="M140.796 143.368C140.796 146.669 138.121 149.344 134.826 149.344C134.786 149.344 134.745 149.344 134.705 149.34H134.696C134.652 149.344 134.607 149.344 134.562 149.344H0L0 148.673C3.98766 137.168 9.4132 126.343 16.0623 116.403C16.0712 116.381 16.0846 116.363 16.098 116.345C20.693 109.479 25.8684 103.042 31.5619 97.0967C33.3972 95.1732 35.2906 93.3034 37.2375 91.4872C43.7437 85.4081 50.8259 79.9328 58.386 75.1643L66.2586 83.0551C67.3392 84.1332 68.8307 84.8042 70.4784 84.8042C71.8717 84.8042 73.1533 84.3255 74.1669 83.5293C74.1714 83.5293 74.1758 83.5293 74.1758 83.5204C74.5375 83.2341 74.868 82.9075 75.1538 82.5452L100.442 57.3652L105.528 52.3014C106.001 51.9525 106.421 51.5365 106.769 51.0668C106.769 51.0623 106.774 51.0623 106.774 51.0623C107.515 50.0648 107.957 48.8257 107.957 47.4882C107.957 44.1869 105.282 41.5074 101.987 41.5074L39.9793 41.5074C39.7069 41.4672 39.4301 41.4493 39.1443 41.4493C38.8585 41.4493 38.5861 41.4672 38.3137 41.5074C35.4111 41.9145 33.1784 44.4106 33.1784 47.43C33.1784 48.9331 33.7321 50.3063 34.6475 51.3576C34.6475 51.3576 34.6475 51.362 34.652 51.362C34.8172 51.5589 35.0003 51.7423 35.1923 51.9078L35.2147 51.9301L41.0555 57.7856C33.1248 62.5228 25.6943 68.0071 18.8666 74.1533C11.9228 80.398 5.59969 87.3182 0 94.8153L0 5.18004C0.388495 2.25453 2.88916 0 5.91674 0L74.7162 0C100.004 0 121.519 16.1887 129.49 38.7877C131.124 43.422 132.187 48.3292 132.598 53.4197C132.727 54.9854 132.79 56.5689 132.79 58.1703C132.79 80.3667 120.38 99.6599 102.134 109.465C105.921 111.59 109.6 113.885 113.159 116.345C113.186 116.363 113.217 116.381 113.244 116.403C122.479 122.778 130.919 130.221 138.38 138.559C138.559 138.756 138.733 138.949 138.907 139.145C138.93 139.172 138.956 139.199 138.974 139.226C139.327 139.624 139.68 140.027 140.024 140.429C140.515 141.297 140.796 142.299 140.796 143.368Z" fill="white"/>
</svg>
