<svg width="34" height="34" viewBox="0 0 34 34" fill="none" xmlns="http://www.w3.org/2000/svg">
<rect y="0.039978" width="33.12" height="33.12" rx="7.04" fill="#682DFA"/>
<path d="M8.77194 18.0437C8.42829 16.1888 8.75801 14.2722 9.70177 12.6388C10.6455 11.0053 12.1413 9.76242 13.9199 9.13373V15.0737L8.77194 18.0437Z" stroke="white" stroke-width="1.76" stroke-linecap="round" stroke-linejoin="round"/>
<path d="M16.5601 16.6346V8.67999C17.9477 8.6802 19.3109 9.04497 20.5132 9.73777C21.7154 10.4306 22.7146 11.4271 23.4106 12.6275C24.1066 13.828 24.475 15.1902 24.4788 16.5778C24.4827 17.9654 24.122 19.3297 23.4327 20.534C22.7435 21.7383 21.7499 22.7404 20.5515 23.44C19.3531 24.1395 17.992 24.5119 16.6044 24.5199C15.2168 24.5278 13.8515 24.1711 12.6451 23.4854C11.4388 22.7997 10.4338 21.8091 9.73071 20.6128L16.5601 16.6346Z" stroke="white" stroke-width="1.76" stroke-linecap="round" stroke-linejoin="round"/>
</svg>
