<svg width="242" height="48" viewBox="0 0 242 48" fill="none" xmlns="http://www.w3.org/2000/svg">
<path d="M12 0.5H195.12C201.471 0.500058 206.62 5.64876 206.62 12V45.2002C206.62 46.0285 205.948 46.7001 205.12 46.7002H12C5.64879 46.7002 0.500107 41.5514 0.5 35.2002V12C0.500006 5.64873 5.64873 0.5 12 0.5Z" fill="#F0EDFD"/>
<path d="M12 0.5H195.12C201.471 0.500058 206.62 5.64876 206.62 12V45.2002C206.62 46.0285 205.948 46.7001 205.12 46.7002H12C5.64879 46.7002 0.500107 41.5514 0.5 35.2002V12C0.500006 5.64873 5.64873 0.5 12 0.5Z" stroke="white"/>
<rect x="12" y="7.03998" width="33.12" height="33.12" rx="7.04" fill="#682DFA"/>
<path d="M20.7719 25.0437C20.4283 23.1888 20.758 21.2722 21.7018 19.6388C22.6455 18.0053 24.1413 16.7624 25.9199 16.1337V22.0737L20.7719 25.0437Z" stroke="white" stroke-width="1.76" stroke-linecap="round" stroke-linejoin="round"/>
<path d="M28.5601 23.6346V15.68C29.9477 15.6802 31.3109 16.045 32.5132 16.7378C33.7154 17.4306 34.7146 18.4271 35.4106 19.6275C36.1066 20.828 36.475 22.1902 36.4788 23.5778C36.4827 24.9654 36.122 26.3297 35.4327 27.534C34.7435 28.7383 33.7499 29.7404 32.5515 30.44C31.3531 31.1395 29.992 31.5119 28.6044 31.5199C27.2168 31.5278 25.8515 31.1711 24.6451 30.4854C23.4388 29.7997 22.4338 28.8091 21.7307 27.6128L28.5601 23.6346Z" stroke="white" stroke-width="1.76" stroke-linecap="round" stroke-linejoin="round"/>
<path d="M54.2451 28.6V18.36H57.8951C58.6918 18.36 59.3518 18.505 59.8751 18.795C60.3985 19.085 60.7901 19.4816 61.0501 19.985C61.3101 20.485 61.4401 21.0483 61.4401 21.675C61.4401 22.305 61.3085 22.8716 61.0451 23.375C60.7851 23.875 60.3918 24.2716 59.8651 24.565C59.3418 24.855 58.6835 25 57.8901 25H55.3801V23.69H57.7501C58.2535 23.69 58.6618 23.6033 58.9751 23.43C59.2885 23.2533 59.5185 23.0133 59.6651 22.71C59.8118 22.4066 59.8851 22.0616 59.8851 21.675C59.8851 21.2883 59.8118 20.945 59.6651 20.645C59.5185 20.345 59.2868 20.11 58.9701 19.94C58.6568 19.77 58.2435 19.685 57.7301 19.685H55.7901V28.6H54.2451ZM66.3451 28.755C65.5885 28.755 64.9368 28.5933 64.3901 28.27C63.8468 27.9433 63.4268 27.485 63.1301 26.895C62.8368 26.3016 62.6901 25.6066 62.6901 24.81C62.6901 24.0233 62.8368 23.33 63.1301 22.73C63.4268 22.13 63.8401 21.6616 64.3701 21.325C64.9035 20.9883 65.5268 20.82 66.2401 20.82C66.6735 20.82 67.0935 20.8916 67.5001 21.035C67.9068 21.1783 68.2718 21.4033 68.5951 21.71C68.9185 22.0166 69.1735 22.415 69.3601 22.905C69.5468 23.3916 69.6401 23.9833 69.6401 24.68V25.21H63.5351V24.09H68.1751C68.1751 23.6966 68.0951 23.3483 67.9351 23.045C67.7751 22.7383 67.5501 22.4966 67.2601 22.32C66.9735 22.1433 66.6368 22.055 66.2501 22.055C65.8301 22.055 65.4635 22.1583 65.1501 22.365C64.8401 22.5683 64.6001 22.835 64.4301 23.165C64.2635 23.4916 64.1801 23.8466 64.1801 24.23V25.105C64.1801 25.6183 64.2701 26.055 64.4501 26.415C64.6335 26.775 64.8885 27.05 65.2151 27.24C65.5418 27.4266 65.9235 27.52 66.3601 27.52C66.6435 27.52 66.9018 27.48 67.1351 27.4C67.3685 27.3166 67.5701 27.1933 67.7401 27.03C67.9101 26.8666 68.0401 26.665 68.1301 26.425L69.5451 26.68C69.4318 27.0966 69.2285 27.4616 68.9351 27.775C68.6451 28.085 68.2801 28.3266 67.8401 28.5C67.4035 28.67 66.9051 28.755 66.3451 28.755ZM71.2989 28.6V20.92H72.7439V22.14H72.8239C72.9639 21.7266 73.2105 21.4016 73.5639 21.165C73.9205 20.925 74.3239 20.805 74.7739 20.805C74.8672 20.805 74.9772 20.8083 75.1039 20.815C75.2339 20.8216 75.3355 20.83 75.4089 20.84V22.27C75.3489 22.2533 75.2422 22.235 75.0889 22.215C74.9355 22.1916 74.7822 22.18 74.6289 22.18C74.2755 22.18 73.9605 22.255 73.6839 22.405C73.4105 22.5516 73.1939 22.7566 73.0339 23.02C72.8739 23.28 72.7939 23.5766 72.7939 23.91V28.6H71.2989ZM80.8114 20.92V22.12H76.4714V20.92H80.8114ZM77.6614 28.6V20.03C77.6614 19.55 77.7664 19.1516 77.9764 18.835C78.1864 18.515 78.4647 18.2766 78.8114 18.12C79.158 17.96 79.5347 17.88 79.9414 17.88C80.2414 17.88 80.498 17.905 80.7114 17.955C80.9247 18.0016 81.083 18.045 81.1864 18.085L80.8364 19.295C80.7664 19.275 80.6764 19.2516 80.5664 19.225C80.4564 19.195 80.323 19.18 80.1664 19.18C79.803 19.18 79.543 19.27 79.3864 19.45C79.233 19.63 79.1564 19.89 79.1564 20.23V28.6H77.6614ZM85.2864 28.755C84.5664 28.755 83.938 28.59 83.4014 28.26C82.8647 27.93 82.448 27.4683 82.1514 26.875C81.8547 26.2816 81.7064 25.5883 81.7064 24.795C81.7064 23.9983 81.8547 23.3016 82.1514 22.705C82.448 22.1083 82.8647 21.645 83.4014 21.315C83.938 20.985 84.5664 20.82 85.2864 20.82C86.0064 20.82 86.6347 20.985 87.1714 21.315C87.708 21.645 88.1247 22.1083 88.4214 22.705C88.718 23.3016 88.8664 23.9983 88.8664 24.795C88.8664 25.5883 88.718 26.2816 88.4214 26.875C88.1247 27.4683 87.708 27.93 87.1714 28.26C86.6347 28.59 86.0064 28.755 85.2864 28.755ZM85.2914 27.5C85.758 27.5 86.1447 27.3766 86.4514 27.13C86.758 26.8833 86.9847 26.555 87.1314 26.145C87.2814 25.735 87.3564 25.2833 87.3564 24.79C87.3564 24.3 87.2814 23.85 87.1314 23.44C86.9847 23.0266 86.758 22.695 86.4514 22.445C86.1447 22.195 85.758 22.07 85.2914 22.07C84.8214 22.07 84.4314 22.195 84.1214 22.445C83.8147 22.695 83.5864 23.0266 83.4364 23.44C83.2897 23.85 83.2164 24.3 83.2164 24.79C83.2164 25.2833 83.2897 25.735 83.4364 26.145C83.5864 26.555 83.8147 26.8833 84.1214 27.13C84.4314 27.3766 84.8214 27.5 85.2914 27.5ZM90.5351 28.6V20.92H91.9801V22.14H92.0601C92.2001 21.7266 92.4468 21.4016 92.8001 21.165C93.1568 20.925 93.5601 20.805 94.0101 20.805C94.1035 20.805 94.2135 20.8083 94.3401 20.815C94.4701 20.8216 94.5718 20.83 94.6451 20.84V22.27C94.5851 22.2533 94.4785 22.235 94.3251 22.215C94.1718 22.1916 94.0185 22.18 93.8651 22.18C93.5118 22.18 93.1968 22.255 92.9201 22.405C92.6468 22.5516 92.4301 22.7566 92.2701 23.02C92.1101 23.28 92.0301 23.5766 92.0301 23.91V28.6H90.5351ZM95.9389 28.6V20.92H97.3739V22.17H97.4689C97.6289 21.7466 97.8905 21.4166 98.2539 21.18C98.6172 20.94 99.0522 20.82 99.5589 20.82C100.072 20.82 100.502 20.94 100.849 21.18C101.199 21.42 101.457 21.75 101.624 22.17H101.704C101.887 21.76 102.179 21.4333 102.579 21.19C102.979 20.9433 103.456 20.82 104.009 20.82C104.706 20.82 105.274 21.0383 105.714 21.475C106.157 21.9116 106.379 22.57 106.379 23.45V28.6H104.884V23.59C104.884 23.07 104.742 22.6933 104.459 22.46C104.176 22.2266 103.837 22.11 103.444 22.11C102.957 22.11 102.579 22.26 102.309 22.56C102.039 22.8566 101.904 23.2383 101.904 23.705V28.6H100.414V23.495C100.414 23.0783 100.284 22.7433 100.024 22.49C99.7639 22.2366 99.4255 22.11 99.0089 22.11C98.7255 22.11 98.4639 22.185 98.2239 22.335C97.9872 22.4816 97.7955 22.6866 97.6489 22.95C97.5055 23.2133 97.4339 23.5183 97.4339 23.865V28.6H95.9389ZM110.618 28.77C110.131 28.77 109.691 28.68 109.298 28.5C108.904 28.3166 108.593 28.0516 108.363 27.705C108.136 27.3583 108.023 26.9333 108.023 26.43C108.023 25.9966 108.106 25.64 108.273 25.36C108.439 25.08 108.664 24.8583 108.948 24.695C109.231 24.5316 109.548 24.4083 109.898 24.325C110.248 24.2416 110.604 24.1783 110.968 24.135C111.428 24.0816 111.801 24.0383 112.088 24.005C112.374 23.9683 112.583 23.91 112.713 23.83C112.843 23.75 112.908 23.62 112.908 23.44V23.405C112.908 22.9683 112.784 22.63 112.538 22.39C112.294 22.15 111.931 22.03 111.448 22.03C110.944 22.03 110.548 22.1416 110.258 22.365C109.971 22.585 109.773 22.83 109.663 23.1L108.258 22.78C108.424 22.3133 108.668 21.9366 108.988 21.65C109.311 21.36 109.683 21.15 110.103 21.02C110.523 20.8866 110.964 20.82 111.428 20.82C111.734 20.82 112.059 20.8566 112.403 20.93C112.749 21 113.073 21.13 113.373 21.32C113.676 21.51 113.924 21.7816 114.118 22.135C114.311 22.485 114.408 22.94 114.408 23.5V28.6H112.948V27.55H112.888C112.791 27.7433 112.646 27.9333 112.453 28.12C112.259 28.3066 112.011 28.4616 111.708 28.585C111.404 28.7083 111.041 28.77 110.618 28.77ZM110.943 27.57C111.356 27.57 111.709 27.4883 112.003 27.325C112.299 27.1616 112.524 26.9483 112.678 26.685C112.834 26.4183 112.913 26.1333 112.913 25.83V24.84C112.859 24.8933 112.756 24.9433 112.603 24.99C112.453 25.0333 112.281 25.0716 112.088 25.105C111.894 25.135 111.706 25.1633 111.523 25.19C111.339 25.2133 111.186 25.2333 111.063 25.25C110.773 25.2866 110.508 25.3483 110.268 25.435C110.031 25.5216 109.841 25.6466 109.698 25.81C109.558 25.97 109.488 26.1833 109.488 26.45C109.488 26.82 109.624 27.1 109.898 27.29C110.171 27.4766 110.519 27.57 110.943 27.57ZM117.894 24.04V28.6H116.399V20.92H117.834V22.17H117.929C118.106 21.7633 118.382 21.4366 118.759 21.19C119.139 20.9433 119.617 20.82 120.194 20.82C120.717 20.82 121.176 20.93 121.569 21.15C121.962 21.3666 122.267 21.69 122.484 22.12C122.701 22.55 122.809 23.0816 122.809 23.715V28.6H121.314V23.895C121.314 23.3383 121.169 22.9033 120.879 22.59C120.589 22.2733 120.191 22.115 119.684 22.115C119.337 22.115 119.029 22.19 118.759 22.34C118.492 22.49 118.281 22.71 118.124 23C117.971 23.2866 117.894 23.6333 117.894 24.04ZM128.049 28.755C127.306 28.755 126.666 28.5866 126.129 28.25C125.596 27.91 125.186 27.4416 124.899 26.845C124.612 26.2483 124.469 25.565 124.469 24.795C124.469 24.015 124.616 23.3266 124.909 22.73C125.202 22.13 125.616 21.6616 126.149 21.325C126.682 20.9883 127.311 20.82 128.034 20.82C128.617 20.82 129.137 20.9283 129.594 21.145C130.051 21.3583 130.419 21.6583 130.699 22.045C130.982 22.4316 131.151 22.8833 131.204 23.4H129.749C129.669 23.04 129.486 22.73 129.199 22.47C128.916 22.21 128.536 22.08 128.059 22.08C127.642 22.08 127.277 22.19 126.964 22.41C126.654 22.6266 126.412 22.9366 126.239 23.34C126.066 23.74 125.979 24.2133 125.979 24.76C125.979 25.32 126.064 25.8033 126.234 26.21C126.404 26.6166 126.644 26.9316 126.954 27.155C127.267 27.3783 127.636 27.49 128.059 27.49C128.342 27.49 128.599 27.4383 128.829 27.335C129.062 27.2283 129.257 27.0766 129.414 26.88C129.574 26.6833 129.686 26.4466 129.749 26.17H131.204C131.151 26.6666 130.989 27.11 130.719 27.5C130.449 27.89 130.087 28.1966 129.634 28.42C129.184 28.6433 128.656 28.755 128.049 28.755ZM136.113 28.755C135.356 28.755 134.704 28.5933 134.158 28.27C133.614 27.9433 133.194 27.485 132.898 26.895C132.604 26.3016 132.458 25.6066 132.458 24.81C132.458 24.0233 132.604 23.33 132.898 22.73C133.194 22.13 133.608 21.6616 134.138 21.325C134.671 20.9883 135.294 20.82 136.008 20.82C136.441 20.82 136.861 20.8916 137.268 21.035C137.674 21.1783 138.039 21.4033 138.363 21.71C138.686 22.0166 138.941 22.415 139.128 22.905C139.314 23.3916 139.408 23.9833 139.408 24.68V25.21H133.303V24.09H137.943C137.943 23.6966 137.863 23.3483 137.703 23.045C137.543 22.7383 137.318 22.4966 137.028 22.32C136.741 22.1433 136.404 22.055 136.018 22.055C135.598 22.055 135.231 22.1583 134.918 22.365C134.608 22.5683 134.368 22.835 134.198 23.165C134.031 23.4916 133.948 23.8466 133.948 24.23V25.105C133.948 25.6183 134.038 26.055 134.218 26.415C134.401 26.775 134.656 27.05 134.983 27.24C135.309 27.4266 135.691 27.52 136.128 27.52C136.411 27.52 136.669 27.48 136.903 27.4C137.136 27.3166 137.338 27.1933 137.508 27.03C137.678 26.8666 137.808 26.665 137.898 26.425L139.313 26.68C139.199 27.0966 138.996 27.4616 138.703 27.775C138.413 28.085 138.048 28.3266 137.608 28.5C137.171 28.67 136.673 28.755 136.113 28.755ZM144.913 18.36H146.788L150.048 26.32H150.168L153.428 18.36H155.303V28.6H153.833V21.19H153.738L150.718 28.585H149.498L146.478 21.185H146.383V28.6H144.913V18.36ZM160.739 28.755C159.982 28.755 159.331 28.5933 158.784 28.27C158.241 27.9433 157.821 27.485 157.524 26.895C157.231 26.3016 157.084 25.6066 157.084 24.81C157.084 24.0233 157.231 23.33 157.524 22.73C157.821 22.13 158.234 21.6616 158.764 21.325C159.297 20.9883 159.921 20.82 160.634 20.82C161.067 20.82 161.487 20.8916 161.894 21.035C162.301 21.1783 162.666 21.4033 162.989 21.71C163.312 22.0166 163.567 22.415 163.754 22.905C163.941 23.3916 164.034 23.9833 164.034 24.68V25.21H157.929V24.09H162.569C162.569 23.6966 162.489 23.3483 162.329 23.045C162.169 22.7383 161.944 22.4966 161.654 22.32C161.367 22.1433 161.031 22.055 160.644 22.055C160.224 22.055 159.857 22.1583 159.544 22.365C159.234 22.5683 158.994 22.835 158.824 23.165C158.657 23.4916 158.574 23.8466 158.574 24.23V25.105C158.574 25.6183 158.664 26.055 158.844 26.415C159.027 26.775 159.282 27.05 159.609 27.24C159.936 27.4266 160.317 27.52 160.754 27.52C161.037 27.52 161.296 27.48 161.529 27.4C161.762 27.3166 161.964 27.1933 162.134 27.03C162.304 26.8666 162.434 26.665 162.524 26.425L163.939 26.68C163.826 27.0966 163.622 27.4616 163.329 27.775C163.039 28.085 162.674 28.3266 162.234 28.5C161.797 28.67 161.299 28.755 160.739 28.755ZM169.278 20.92V22.12H165.083V20.92H169.278ZM166.208 19.08H167.703V26.345C167.703 26.635 167.746 26.8533 167.833 27C167.919 27.1433 168.031 27.2416 168.168 27.295C168.308 27.345 168.459 27.37 168.623 27.37C168.743 27.37 168.848 27.3616 168.938 27.345C169.028 27.3283 169.098 27.315 169.148 27.305L169.418 28.54C169.331 28.5733 169.208 28.6066 169.048 28.64C168.888 28.6766 168.688 28.6966 168.448 28.7C168.054 28.7066 167.688 28.6366 167.348 28.49C167.008 28.3433 166.733 28.1166 166.523 27.81C166.313 27.5033 166.208 27.1183 166.208 26.655V19.08ZM170.931 28.6V20.92H172.376V22.14H172.456C172.596 21.7266 172.843 21.4016 173.196 21.165C173.553 20.925 173.956 20.805 174.406 20.805C174.5 20.805 174.61 20.8083 174.736 20.815C174.866 20.8216 174.968 20.83 175.041 20.84V22.27C174.981 22.2533 174.875 22.235 174.721 22.215C174.568 22.1916 174.415 22.18 174.261 22.18C173.908 22.18 173.593 22.255 173.316 22.405C173.043 22.5516 172.826 22.7566 172.666 23.02C172.506 23.28 172.426 23.5766 172.426 23.91V28.6H170.931ZM176.335 28.6V20.92H177.83V28.6H176.335ZM177.09 19.735C176.83 19.735 176.607 19.6483 176.42 19.475C176.237 19.2983 176.145 19.0883 176.145 18.845C176.145 18.5983 176.237 18.3883 176.42 18.215C176.607 18.0383 176.83 17.95 177.09 17.95C177.35 17.95 177.572 18.0383 177.755 18.215C177.942 18.3883 178.035 18.5983 178.035 18.845C178.035 19.0883 177.942 19.2983 177.755 19.475C177.572 19.6483 177.35 19.735 177.09 19.735ZM183.076 28.755C182.333 28.755 181.693 28.5866 181.156 28.25C180.623 27.91 180.213 27.4416 179.926 26.845C179.64 26.2483 179.496 25.565 179.496 24.795C179.496 24.015 179.643 23.3266 179.936 22.73C180.23 22.13 180.643 21.6616 181.176 21.325C181.71 20.9883 182.338 20.82 183.061 20.82C183.645 20.82 184.165 20.9283 184.621 21.145C185.078 21.3583 185.446 21.6583 185.726 22.045C186.01 22.4316 186.178 22.8833 186.231 23.4H184.776C184.696 23.04 184.513 22.73 184.226 22.47C183.943 22.21 183.563 22.08 183.086 22.08C182.67 22.08 182.305 22.19 181.991 22.41C181.681 22.6266 181.44 22.9366 181.266 23.34C181.093 23.74 181.006 24.2133 181.006 24.76C181.006 25.32 181.091 25.8033 181.261 26.21C181.431 26.6166 181.671 26.9316 181.981 27.155C182.295 27.3783 182.663 27.49 183.086 27.49C183.37 27.49 183.626 27.4383 183.856 27.335C184.09 27.2283 184.285 27.0766 184.441 26.88C184.601 26.6833 184.713 26.4466 184.776 26.17H186.231C186.178 26.6666 186.016 27.11 185.746 27.5C185.476 27.89 185.115 28.1966 184.661 28.42C184.211 28.6433 183.683 28.755 183.076 28.755ZM193.585 22.795L192.23 23.035C192.173 22.8616 192.083 22.6966 191.96 22.54C191.84 22.3833 191.677 22.255 191.47 22.155C191.263 22.055 191.005 22.005 190.695 22.005C190.272 22.005 189.918 22.1 189.635 22.29C189.352 22.4766 189.21 22.7183 189.21 23.015C189.21 23.2716 189.305 23.4783 189.495 23.635C189.685 23.7916 189.992 23.92 190.415 24.02L191.635 24.3C192.342 24.4633 192.868 24.715 193.215 25.055C193.562 25.395 193.735 25.8366 193.735 26.38C193.735 26.84 193.602 27.25 193.335 27.61C193.072 27.9666 192.703 28.2466 192.23 28.45C191.76 28.6533 191.215 28.755 190.595 28.755C189.735 28.755 189.033 28.5716 188.49 28.205C187.947 27.835 187.613 27.31 187.49 26.63L188.935 26.41C189.025 26.7866 189.21 27.0716 189.49 27.265C189.77 27.455 190.135 27.55 190.585 27.55C191.075 27.55 191.467 27.4483 191.76 27.245C192.053 27.0383 192.2 26.7866 192.2 26.49C192.2 26.25 192.11 26.0483 191.93 25.885C191.753 25.7216 191.482 25.5983 191.115 25.515L189.815 25.23C189.098 25.0666 188.568 24.8066 188.225 24.45C187.885 24.0933 187.715 23.6416 187.715 23.095C187.715 22.6416 187.842 22.245 188.095 21.905C188.348 21.565 188.698 21.3 189.145 21.11C189.592 20.9166 190.103 20.82 190.68 20.82C191.51 20.82 192.163 21 192.64 21.36C193.117 21.7166 193.432 22.195 193.585 22.795Z" fill="#3B3B3B"/>
<path d="M220.449 27.7188L221.639 26.5291C221.743 26.4242 221.868 26.341 222.004 26.2842C222.141 26.2274 222.288 26.1982 222.436 26.1982C222.584 26.1982 222.731 26.2274 222.867 26.2842C223.004 26.341 223.128 26.4242 223.233 26.5291L228.536 31.8325L230.339 27.13L230.351 27.0991C230.466 26.8314 230.657 26.6034 230.901 26.4436C231.144 26.2837 231.43 26.199 231.721 26.2H231.794C232.098 26.2128 232.39 26.3185 232.632 26.503C232.873 26.6874 233.053 26.9417 233.145 27.2313L238.045 42.2388C238.131 42.5014 238.143 42.7827 238.078 43.0514C238.014 43.3202 237.877 43.5659 237.681 43.7613C237.486 43.9566 237.24 44.0941 236.972 44.1583C236.703 44.2225 236.422 44.211 236.159 44.125L221.151 39.2247C220.865 39.1288 220.614 38.9484 220.431 38.7072C220.249 38.466 220.143 38.1752 220.129 37.8731C220.115 37.571 220.192 37.2716 220.351 37.0143C220.51 36.7569 220.743 36.5536 221.019 36.431L221.05 36.4188L225.753 34.6122L220.449 29.3097C220.238 29.0988 220.12 28.8126 220.12 28.5143C220.12 28.2159 220.238 27.9298 220.449 27.7188Z" fill="#682DFA"/>
</svg>
