<svg width="1275" height="105" viewBox="0 0 1275 105" fill="none" xmlns="http://www.w3.org/2000/svg">
<g opacity="0.5">
<path d="M1104.11 101.015L1055.12 -65.8303H1087.89L1124.31 73.2071L1118.02 72.876L1158.4 -65.8303H1195.48L1235.87 72.876L1229.58 73.2071L1265.66 -65.8303H1299.1L1250.1 101.015H1216.01L1173.63 -43.6505H1180.25L1137.88 101.015H1104.11Z" fill="url(#paint0_linear_6064_4918)"/>
<path d="M954.143 104.989C938.474 104.989 924.35 101.347 911.77 94.0642C899.411 86.7813 889.59 76.6294 882.307 63.6084C875.245 50.3668 871.714 35.1389 871.714 17.9247C871.714 0.269165 875.356 -15.0691 882.638 -28.09C889.921 -41.3317 899.853 -51.594 912.432 -58.8769C925.012 -66.1598 939.136 -69.8013 954.806 -69.8013C970.696 -69.8013 984.82 -66.1598 997.179 -58.8769C1009.54 -51.594 1019.25 -41.4421 1026.31 -28.4211C1033.59 -15.4001 1037.23 -0.0618668 1037.23 17.5937C1037.23 35.2492 1033.59 50.5875 1026.31 63.6084C1019.25 76.6294 1009.43 86.7813 996.848 94.0642C984.268 101.347 970.033 104.989 954.143 104.989ZM954.143 76.5191C963.192 76.5191 971.358 74.3121 978.64 69.8982C986.144 65.4843 992.103 58.9738 996.517 50.3668C1001.15 41.539 1003.47 30.6146 1003.47 17.5937C1003.47 4.57272 1001.26 -6.24131 996.848 -14.8484C992.434 -23.6762 986.475 -30.297 978.972 -34.7109C971.689 -39.1248 963.633 -41.3317 954.806 -41.3317C945.978 -41.3317 937.812 -39.1248 930.308 -34.7109C922.805 -30.297 916.736 -23.6762 912.101 -14.8484C907.687 -6.24131 905.48 4.57272 905.48 17.5937C905.48 30.6146 907.687 41.539 912.101 50.3668C916.736 58.9738 922.694 65.4843 929.977 69.8982C937.481 74.3121 945.536 76.5191 954.143 76.5191Z" fill="url(#paint1_linear_6064_4918)"/>
<path d="M692.963 101.005V-88.3511C692.963 -99.8272 694.839 -109.207 698.591 -116.49C702.564 -123.773 708.302 -129.069 715.805 -132.38C723.309 -135.69 732.357 -137.345 742.951 -137.345H762.482V-109.207H748.247C740.302 -109.207 734.564 -107.551 731.033 -104.241C727.723 -101.151 726.068 -95.634 726.068 -87.689V101.005H692.963ZM668.466 -37.7017V-65.8403H766.124V-37.7017H668.466ZM799.89 101.005V-137.345H832.994V101.005H799.89Z" fill="url(#paint2_linear_6064_4918)"/>
<path d="M567.807 104.989C551.917 104.989 537.792 101.347 525.433 94.0642C513.075 86.7813 503.364 76.6294 496.302 63.6084C489.46 50.5875 486.04 35.4699 486.04 18.2558C486.04 0.60022 489.46 -14.738 496.302 -27.759C503.364 -41.0007 513.075 -51.263 525.433 -58.5459C537.792 -66.0495 552.137 -69.8013 568.469 -69.8013C584.8 -69.8013 598.814 -66.1598 610.511 -58.8769C622.208 -51.594 631.256 -41.8834 637.657 -29.7453C644.057 -17.8278 647.257 -4.58611 647.257 9.97971C647.257 12.1867 647.146 14.6143 646.926 17.2626C646.926 19.6903 646.815 22.4489 646.595 25.5387H510.206V2.03472H614.153C613.491 -11.869 608.856 -22.683 600.249 -30.4073C591.642 -38.3523 580.938 -42.3248 568.138 -42.3248C559.089 -42.3248 550.813 -40.2282 543.31 -36.035C535.806 -32.0625 529.737 -26.1038 525.102 -18.1588C520.689 -10.4345 518.482 -0.613617 518.482 11.3039V20.5731C518.482 32.9319 520.689 43.4149 525.102 52.022C529.737 60.4084 535.806 66.8085 543.31 71.2224C550.813 75.4156 558.979 77.5122 567.807 77.5122C578.4 77.5122 587.118 75.1949 593.959 70.5603C600.801 65.9257 605.877 59.6359 609.187 51.6909H642.291C639.422 61.8429 634.567 71.0017 627.725 79.1674C620.884 87.1124 612.387 93.4022 602.235 98.0367C592.304 102.671 580.828 104.989 567.807 104.989Z" fill="url(#paint3_linear_6064_4918)"/>
<path d="M356.026 104.977C340.136 104.977 326.122 101.225 313.983 93.7218C301.845 85.9975 292.355 75.6248 285.514 62.6039C278.893 49.3622 275.583 34.355 275.583 17.5822C275.583 0.588745 278.893 -14.4185 285.514 -27.4394C292.355 -40.4604 301.845 -50.7227 313.983 -58.2263C326.342 -65.9506 340.467 -69.8128 356.357 -69.8128C369.378 -69.8128 380.854 -67.1644 390.785 -61.8677C400.716 -56.7918 408.441 -49.5089 413.958 -40.019V-137.345H447.062V101.005H417.268L413.958 75.1834C410.647 80.2594 406.344 85.1147 401.047 89.7493C395.751 94.1632 389.35 97.8046 381.847 100.674C374.343 103.543 365.736 104.977 356.026 104.977ZM361.322 76.1766C371.695 76.1766 380.854 73.7489 388.799 68.8936C396.744 64.0384 402.813 57.1969 407.006 48.3691C411.42 39.5413 413.627 29.279 413.627 17.5822C413.627 5.88542 411.42 -4.26651 407.006 -12.8736C402.813 -21.7014 396.744 -28.5429 388.799 -33.3982C380.854 -38.4741 371.695 -41.0121 361.322 -41.0121C351.391 -41.0121 342.453 -38.4741 334.508 -33.3982C326.563 -28.5429 320.383 -21.7014 315.97 -12.8736C311.556 -4.26651 309.349 5.88542 309.349 17.5822C309.349 29.279 311.556 39.5413 315.97 48.3691C320.383 57.1969 326.563 64.0384 334.508 68.8936C342.453 73.7489 351.391 76.1766 361.322 76.1766Z" fill="url(#paint4_linear_6064_4918)"/>
<path d="M201.422 101.005V-65.8398H234.526V101.005H201.422ZM218.305 -97.2888C211.905 -97.2888 206.608 -99.275 202.415 -103.248C198.442 -107.22 196.456 -112.296 196.456 -118.475C196.456 -124.434 198.442 -129.289 202.415 -133.041C206.608 -137.014 211.905 -139 218.305 -139C224.484 -139 229.671 -137.014 233.864 -133.041C238.057 -129.289 240.154 -124.434 240.154 -118.475C240.154 -112.296 238.057 -107.22 233.864 -103.248C229.671 -99.275 224.484 -97.2888 218.305 -97.2888Z" fill="url(#paint5_linear_6064_4918)"/>
<path d="M-0.00012207 101.02V-130.709H78.4567C96.7743 -130.709 111.782 -127.619 123.478 -121.44C135.175 -115.26 143.782 -106.984 149.3 -96.6115C155.038 -86.4595 157.907 -74.8731 157.907 -61.8521C157.907 -49.4932 155.038 -38.0171 149.3 -27.4238C143.782 -17.0511 135.065 -8.66475 123.147 -2.26462C111.23 3.91483 96.0019 7.00455 77.4636 7.00455H33.104V101.02H-0.00012207ZM121.823 101.02L71.8359 -1.93358H108.25L160.224 101.02H121.823ZM33.104 -18.1546H76.1394C92.4708 -18.1546 104.499 -22.1271 112.223 -30.0721C119.947 -38.2378 123.809 -48.6104 123.809 -61.19C123.809 -73.9903 120.058 -84.1422 112.554 -91.6458C105.05 -99.1494 92.9122 -102.901 76.1394 -102.901H33.104V-18.1546Z" fill="url(#paint6_linear_6064_4918)"/>
</g>
<defs>
<linearGradient id="paint0_linear_6064_4918" x1="1268.75" y1="-567.414" x2="1186.36" y2="143.49" gradientUnits="userSpaceOnUse">
<stop stop-color="#2C4BFD"/>
<stop offset="1" stop-color="white"/>
</linearGradient>
<linearGradient id="paint1_linear_6064_4918" x1="1016.65" y1="-595.27" x2="885.765" y2="136.067" gradientUnits="userSpaceOnUse">
<stop stop-color="#2C4BFD"/>
<stop offset="1" stop-color="white"/>
</linearGradient>
<linearGradient id="paint2_linear_6064_4918" x1="812.528" y1="-853.894" x2="574.208" y2="116.814" gradientUnits="userSpaceOnUse">
<stop stop-color="#2C4BFD"/>
<stop offset="1" stop-color="white"/>
</linearGradient>
<linearGradient id="paint3_linear_6064_4918" x1="627.203" y1="-595.27" x2="493.053" y2="134.841" gradientUnits="userSpaceOnUse">
<stop stop-color="#2C4BFD"/>
<stop offset="1" stop-color="white"/>
</linearGradient>
<linearGradient id="paint4_linear_6064_4918" x1="425.731" y1="-865.836" x2="188.735" y2="123.779" gradientUnits="userSpaceOnUse">
<stop stop-color="#2C4BFD"/>
<stop offset="1" stop-color="white"/>
</linearGradient>
<linearGradient id="paint5_linear_6064_4918" x1="234.718" y1="-860.525" x2="-282.135" y2="-305.249" gradientUnits="userSpaceOnUse">
<stop stop-color="#2C4BFD"/>
<stop offset="1" stop-color="white"/>
</linearGradient>
<linearGradient id="paint6_linear_6064_4918" x1="140.293" y1="-827.353" x2="-91.0643" y2="116.569" gradientUnits="userSpaceOnUse">
<stop stop-color="#2C4BFD"/>
<stop offset="1" stop-color="white"/>
</linearGradient>
</defs>
</svg>
