<svg width="1438" height="286" viewBox="0 0 1438 286" fill="none" xmlns="http://www.w3.org/2000/svg">
<mask id="path-1-outside-1_11519_27017" maskUnits="userSpaceOnUse" x="-0.700195" y="-0.790039" width="1450" height="287" fill="black">
<rect fill="white" x="-0.700195" y="-0.790039" width="1450" height="287"/>
<path d="M1 281.21V20.5117H103.798C157.274 20.5117 190.517 51.5859 190.517 100.004V100.365C190.517 135.414 171.728 163.959 139.931 174.618L198.466 281.21H151.674L98.5586 180.941H41.4688V281.21H1ZM41.4688 148.061H99.8232C130.897 148.061 148.964 131.078 148.964 101.449V101.088C148.964 72.1816 129.813 54.4766 98.5586 54.4766H41.4688V148.061ZM256.647 49.96C243.097 49.96 232.077 38.9395 232.077 25.5703C232.077 12.0205 243.097 1 256.647 1C270.016 1 281.217 12.0205 281.217 25.5703C281.217 38.9395 270.016 49.96 256.647 49.96ZM236.954 281.21V85.0088H275.978V281.21H236.954ZM397.211 284.462C347.889 284.462 315.912 244.896 315.912 183.29V182.929C315.912 120.78 347.347 81.5762 397.211 81.5762C424.13 81.5762 447.074 94.9453 457.553 116.083H460.624V8.0459H499.647V281.21H460.624V250.316H457.553C446.171 271.815 424.672 284.462 397.211 284.462ZM408.412 251.039C441.112 251.039 461.166 225.204 461.166 183.29V182.929C461.166 141.015 440.931 115.18 408.412 115.18C375.531 115.18 355.839 140.834 355.839 182.929V183.29C355.839 225.385 375.531 251.039 408.412 251.039ZM632.985 285.004C575.533 285.004 540.846 245.8 540.846 183.651V183.471C540.846 122.226 576.256 81.2148 630.997 81.2148C685.738 81.2148 719.342 120.78 719.342 179.677V193.407H580.231C580.953 230.985 601.549 252.846 633.888 252.846C659 252.846 673.995 240.38 678.693 230.263L679.415 228.817L717.174 228.637L716.813 230.263C710.309 256.098 683.209 285.004 632.985 285.004ZM631.178 113.373C604.44 113.373 584.205 131.62 580.773 165.404H680.499C677.428 130.355 657.736 113.373 631.178 113.373ZM772.464 281.21V115.902H740.126V85.0088H772.464V64.4131C772.464 25.3896 792.338 6.23926 833.168 6.23926C842.02 6.23926 849.608 6.96191 856.293 8.0459V36.7715C852.679 36.2295 847.44 35.8682 841.297 35.8682C819.618 35.8682 811.127 46.3467 811.127 66.2197V85.0088H854.667V115.902H811.488V281.21H772.464ZM893.155 281.21V8.0459H932.359V281.21H893.155ZM1066.42 285.004C1008.79 285.004 973.558 246.522 973.558 183.29V182.929C973.558 119.877 1008.97 81.2148 1066.42 81.2148C1123.69 81.2148 1159.1 119.696 1159.1 182.929V183.29C1159.1 246.522 1123.87 285.004 1066.42 285.004ZM1066.42 252.304C1100.02 252.304 1119.17 226.649 1119.17 183.29V182.929C1119.17 139.389 1100.02 113.915 1066.42 113.915C1032.64 113.915 1013.67 139.389 1013.67 182.929V183.29C1013.67 226.83 1032.64 252.304 1066.42 252.304ZM1228.66 281.21L1174.46 85.0088H1213.85L1249.08 236.405H1251.97L1292.44 85.0088H1329.65L1370.12 236.405H1373.19L1408.24 85.0088H1447.09L1393.07 281.21H1352.78L1312.13 134.872H1309.06L1268.59 281.21H1228.66Z"/>
</mask>
<path d="M1 281.21V20.5117H103.798C157.274 20.5117 190.517 51.5859 190.517 100.004V100.365C190.517 135.414 171.728 163.959 139.931 174.618L198.466 281.21H151.674L98.5586 180.941H41.4688V281.21H1ZM41.4688 148.061H99.8232C130.897 148.061 148.964 131.078 148.964 101.449V101.088C148.964 72.1816 129.813 54.4766 98.5586 54.4766H41.4688V148.061ZM256.647 49.96C243.097 49.96 232.077 38.9395 232.077 25.5703C232.077 12.0205 243.097 1 256.647 1C270.016 1 281.217 12.0205 281.217 25.5703C281.217 38.9395 270.016 49.96 256.647 49.96ZM236.954 281.21V85.0088H275.978V281.21H236.954ZM397.211 284.462C347.889 284.462 315.912 244.896 315.912 183.29V182.929C315.912 120.78 347.347 81.5762 397.211 81.5762C424.13 81.5762 447.074 94.9453 457.553 116.083H460.624V8.0459H499.647V281.21H460.624V250.316H457.553C446.171 271.815 424.672 284.462 397.211 284.462ZM408.412 251.039C441.112 251.039 461.166 225.204 461.166 183.29V182.929C461.166 141.015 440.931 115.18 408.412 115.18C375.531 115.18 355.839 140.834 355.839 182.929V183.29C355.839 225.385 375.531 251.039 408.412 251.039ZM632.985 285.004C575.533 285.004 540.846 245.8 540.846 183.651V183.471C540.846 122.226 576.256 81.2148 630.997 81.2148C685.738 81.2148 719.342 120.78 719.342 179.677V193.407H580.231C580.953 230.985 601.549 252.846 633.888 252.846C659 252.846 673.995 240.38 678.693 230.263L679.415 228.817L717.174 228.637L716.813 230.263C710.309 256.098 683.209 285.004 632.985 285.004ZM631.178 113.373C604.44 113.373 584.205 131.62 580.773 165.404H680.499C677.428 130.355 657.736 113.373 631.178 113.373ZM772.464 281.21V115.902H740.126V85.0088H772.464V64.4131C772.464 25.3896 792.338 6.23926 833.168 6.23926C842.02 6.23926 849.608 6.96191 856.293 8.0459V36.7715C852.679 36.2295 847.44 35.8682 841.297 35.8682C819.618 35.8682 811.127 46.3467 811.127 66.2197V85.0088H854.667V115.902H811.488V281.21H772.464ZM893.155 281.21V8.0459H932.359V281.21H893.155ZM1066.42 285.004C1008.79 285.004 973.558 246.522 973.558 183.29V182.929C973.558 119.877 1008.97 81.2148 1066.42 81.2148C1123.69 81.2148 1159.1 119.696 1159.1 182.929V183.29C1159.1 246.522 1123.87 285.004 1066.42 285.004ZM1066.42 252.304C1100.02 252.304 1119.17 226.649 1119.17 183.29V182.929C1119.17 139.389 1100.02 113.915 1066.42 113.915C1032.64 113.915 1013.67 139.389 1013.67 182.929V183.29C1013.67 226.83 1032.64 252.304 1066.42 252.304ZM1228.66 281.21L1174.46 85.0088H1213.85L1249.08 236.405H1251.97L1292.44 85.0088H1329.65L1370.12 236.405H1373.19L1408.24 85.0088H1447.09L1393.07 281.21H1352.78L1312.13 134.872H1309.06L1268.59 281.21H1228.66Z" fill="#F8F9FB"/>
<path d="M1 281.21H0V282.21H1V281.21ZM1 20.5117V19.5117H0V20.5117H1ZM139.931 174.618L139.613 173.67L138.478 174.05L139.054 175.1L139.931 174.618ZM198.466 281.21V282.21H200.156L199.342 280.729L198.466 281.21ZM151.674 281.21L150.79 281.678L151.072 282.21H151.674V281.21ZM98.5586 180.941L99.4423 180.473L99.1605 179.941H98.5586V180.941ZM41.4688 180.941V179.941H40.4688V180.941H41.4688ZM41.4688 281.21V282.21H42.4688V281.21H41.4688ZM41.4688 148.061H40.4688V149.061H41.4688V148.061ZM41.4688 54.4766V53.4766H40.4688V54.4766H41.4688ZM1 281.21H2V20.5117H1H0V281.21H1ZM1 20.5117V21.5117H103.798V20.5117V19.5117H1V20.5117ZM103.798 20.5117V21.5117C130.345 21.5117 151.763 29.2227 166.533 42.8364C181.295 56.4421 189.517 76.0338 189.517 100.004H190.517H191.517C191.517 75.556 183.117 55.4017 167.889 41.3658C152.669 27.3379 130.727 19.5117 103.798 19.5117V20.5117ZM190.517 100.004H189.517V100.365H190.517H191.517V100.004H190.517ZM190.517 100.365H189.517C189.517 135.035 170.956 163.163 139.613 173.67L139.931 174.618L140.249 175.566C172.499 164.755 191.517 135.794 191.517 100.365H190.517ZM139.931 174.618L139.054 175.1L197.589 281.691L198.466 281.21L199.342 280.729L140.807 174.137L139.931 174.618ZM198.466 281.21V280.21H151.674V281.21V282.21H198.466V281.21ZM151.674 281.21L152.557 280.742L99.4423 180.473L98.5586 180.941L97.6749 181.41L150.79 281.678L151.674 281.21ZM98.5586 180.941V179.941H41.4688V180.941V181.941H98.5586V180.941ZM41.4688 180.941H40.4688V281.21H41.4688H42.4688V180.941H41.4688ZM41.4688 281.21V280.21H1V281.21V282.21H41.4688V281.21ZM41.4688 148.061V149.061H99.8232V148.061V147.061H41.4688V148.061ZM99.8232 148.061V149.061C115.536 149.061 128.096 144.765 136.734 136.592C145.379 128.412 149.964 116.47 149.964 101.449H148.964H147.964C147.964 116.057 143.516 127.421 135.359 135.139C127.195 142.865 115.184 147.061 99.8232 147.061V148.061ZM148.964 101.449H149.964V101.088H148.964H147.964V101.449H148.964ZM148.964 101.088H149.964C149.964 86.4053 145.093 74.4681 136.161 66.2082C127.237 57.957 114.371 53.4766 98.5586 53.4766V54.4766V55.4766C114.002 55.4766 126.337 59.8486 134.803 67.6766C143.259 75.4958 147.964 86.8642 147.964 101.088H148.964ZM98.5586 54.4766V53.4766H41.4688V54.4766V55.4766H98.5586V54.4766ZM41.4688 54.4766H40.4688V148.061H41.4688H42.4688V54.4766H41.4688ZM236.954 281.21H235.954V282.21H236.954V281.21ZM236.954 85.0088V84.0088H235.954V85.0088H236.954ZM275.978 85.0088H276.978V84.0088H275.978V85.0088ZM275.978 281.21V282.21H276.978V281.21H275.978ZM256.647 49.96V48.96C243.645 48.96 233.077 38.3824 233.077 25.5703H232.077H231.077C231.077 39.4965 242.55 50.96 256.647 50.96V49.96ZM232.077 25.5703H233.077C233.077 12.5728 243.649 2 256.647 2V1V0C242.545 0 231.077 11.4682 231.077 25.5703H232.077ZM256.647 1V2C269.469 2 280.217 12.5775 280.217 25.5703H281.217H282.217C282.217 11.4635 270.564 0 256.647 0V1ZM281.217 25.5703H280.217C280.217 38.3776 269.473 48.96 256.647 48.96V49.96V50.96C270.559 50.96 282.217 39.5013 282.217 25.5703H281.217ZM236.954 281.21H237.954V85.0088H236.954H235.954V281.21H236.954ZM236.954 85.0088V86.0088H275.978V85.0088V84.0088H236.954V85.0088ZM275.978 85.0088H274.978V281.21H275.978H276.978V85.0088H275.978ZM275.978 281.21V280.21H236.954V281.21V282.21H275.978V281.21ZM457.553 116.083L456.657 116.527L456.932 117.083H457.553V116.083ZM460.624 116.083V117.083H461.624V116.083H460.624ZM460.624 8.0459V7.0459H459.624V8.0459H460.624ZM499.647 8.0459H500.647V7.0459H499.647V8.0459ZM499.647 281.21V282.21H500.647V281.21H499.647ZM460.624 281.21H459.624V282.21H460.624V281.21ZM460.624 250.316H461.624V249.316H460.624V250.316ZM457.553 250.316V249.316H456.95L456.669 249.849L457.553 250.316ZM397.211 284.462V283.462C372.843 283.462 352.808 273.7 338.845 256.351C324.864 238.982 316.912 213.93 316.912 183.29H315.912H314.912C314.912 214.257 322.948 239.791 337.287 257.605C351.643 275.441 372.258 285.462 397.211 285.462V284.462ZM315.912 183.29H316.912V182.929H315.912H314.912V183.29H315.912ZM315.912 182.929H316.912C316.912 152.012 324.732 126.917 338.643 109.572C352.535 92.2519 372.566 82.5762 397.211 82.5762V81.5762V80.5762C371.992 80.5762 351.374 90.5025 337.083 108.321C322.81 126.116 314.912 151.697 314.912 182.929H315.912ZM397.211 81.5762V82.5762C423.804 82.5762 446.37 95.7758 456.657 116.527L457.553 116.083L458.448 115.639C447.778 94.1148 424.456 80.5762 397.211 80.5762V81.5762ZM457.553 116.083V117.083H460.624V116.083V115.083H457.553V116.083ZM460.624 116.083H461.624V8.0459H460.624H459.624V116.083H460.624ZM460.624 8.0459V9.0459H499.647V8.0459V7.0459H460.624V8.0459ZM499.647 8.0459H498.647V281.21H499.647H500.647V8.0459H499.647ZM499.647 281.21V280.21H460.624V281.21V282.21H499.647V281.21ZM460.624 281.21H461.624V250.316H460.624H459.624V281.21H460.624ZM460.624 250.316V249.316H457.553V250.316V251.316H460.624V250.316ZM457.553 250.316L456.669 249.849C445.476 270.99 424.337 283.462 397.211 283.462V284.462V285.462C425.006 285.462 446.865 272.641 458.436 250.784L457.553 250.316ZM408.412 251.039V252.039C425.053 252.039 438.54 245.451 447.841 233.496C457.119 221.571 462.166 204.393 462.166 183.29H461.166H460.166C460.166 204.101 455.186 220.798 446.262 232.268C437.361 243.71 424.471 250.039 408.412 250.039V251.039ZM461.166 183.29H462.166V182.929H461.166H460.166V183.29H461.166ZM461.166 182.929H462.166C462.166 161.824 457.073 144.646 447.772 132.721C438.45 120.769 424.964 114.18 408.412 114.18V115.18V116.18C424.379 116.18 437.27 122.508 446.195 133.951C455.142 145.423 460.166 162.119 460.166 182.929H461.166ZM408.412 115.18V114.18C391.683 114.18 378.239 120.72 369.004 132.657C359.793 144.562 354.839 161.74 354.839 182.929H355.839H356.839C356.839 162.022 361.73 145.326 370.586 133.881C379.417 122.466 392.26 116.18 408.412 116.18V115.18ZM355.839 182.929H354.839V183.29H355.839H356.839V182.929H355.839ZM355.839 183.29H354.839C354.839 204.478 359.793 221.657 369.004 233.562C378.239 245.498 391.683 252.039 408.412 252.039V251.039V250.039C392.26 250.039 379.417 243.753 370.586 232.338C361.73 220.892 356.839 204.196 356.839 183.29H355.839ZM719.342 193.407V194.407H720.342V193.407H719.342ZM580.231 193.407V192.407H579.211L579.231 193.426L580.231 193.407ZM678.693 230.263L677.798 229.815L677.792 229.828L677.786 229.842L678.693 230.263ZM679.415 228.817L679.41 227.817L678.796 227.82L678.521 228.37L679.415 228.817ZM717.174 228.637L718.15 228.854L718.422 227.631L717.169 227.637L717.174 228.637ZM716.813 230.263L717.782 230.507L717.786 230.493L717.789 230.48L716.813 230.263ZM580.773 165.404L579.778 165.303L579.666 166.404H580.773V165.404ZM680.499 165.404V166.404H681.591L681.495 165.317L680.499 165.404ZM632.985 285.004V284.004C604.498 284.004 581.75 274.292 566.113 256.963C550.466 239.622 541.846 214.545 541.846 183.651H540.846H539.846C539.846 214.906 548.569 240.505 564.629 258.303C580.699 276.114 604.02 286.004 632.985 286.004V285.004ZM540.846 183.651H541.846V183.471H540.846H539.846V183.651H540.846ZM540.846 183.471H541.846C541.846 153.036 550.643 127.724 566.146 110.035C581.637 92.3591 603.893 82.2148 630.997 82.2148V81.2148V80.2148C603.36 80.2148 580.54 90.576 564.642 108.717C548.754 126.845 539.846 152.66 539.846 183.471H540.846ZM630.997 81.2148V82.2148C658.111 82.2148 679.914 92.0048 694.948 109.022C709.995 126.052 718.342 150.413 718.342 179.677H719.342H720.342C720.342 150.044 711.887 125.174 696.447 107.698C680.995 90.2076 658.624 80.2148 630.997 80.2148V81.2148ZM719.342 179.677H718.342V193.407H719.342H720.342V179.677H719.342ZM719.342 193.407V192.407H580.231V193.407V194.407H719.342V193.407ZM580.231 193.407L579.231 193.426C579.595 212.388 584.977 227.505 594.465 237.893C603.964 248.293 617.482 253.846 633.888 253.846V252.846V251.846C617.955 251.846 605.006 246.468 595.942 236.544C586.866 226.607 581.589 212.005 581.23 193.388L580.231 193.407ZM633.888 252.846V253.846C659.328 253.846 674.714 241.207 679.6 230.684L678.693 230.263L677.786 229.842C673.277 239.553 658.673 251.846 633.888 251.846V252.846ZM678.693 230.263L679.587 230.71L680.31 229.265L679.415 228.817L678.521 228.37L677.798 229.815L678.693 230.263ZM679.415 228.817L679.42 229.817L717.179 229.637L717.174 228.637L717.169 227.637L679.41 227.817L679.415 228.817ZM717.174 228.637L716.198 228.42L715.836 230.046L716.813 230.263L717.789 230.48L718.15 228.854L717.174 228.637ZM716.813 230.263L715.843 230.019C709.457 255.383 682.778 284.004 632.985 284.004V285.004V286.004C683.64 286.004 711.16 256.812 717.782 230.507L716.813 230.263ZM631.178 113.373V112.373C617.571 112.373 605.566 117.022 596.53 126.011C587.502 134.993 581.512 148.234 579.778 165.303L580.773 165.404L581.768 165.505C583.466 148.79 589.309 136.016 597.941 127.429C606.566 118.848 618.047 114.373 631.178 114.373V113.373ZM580.773 165.404V166.404H680.499V165.404V164.404H580.773V165.404ZM680.499 165.404L681.495 165.317C679.945 147.626 674.188 134.373 665.353 125.538C656.51 116.695 644.678 112.373 631.178 112.373V113.373V114.373C644.235 114.373 655.529 118.542 663.939 126.952C672.357 135.371 677.982 148.134 679.503 165.492L680.499 165.404ZM772.464 281.21H771.464V282.21H772.464V281.21ZM772.464 115.902H773.464V114.902H772.464V115.902ZM740.126 115.902H739.126V116.902H740.126V115.902ZM740.126 85.0088V84.0088H739.126V85.0088H740.126ZM772.464 85.0088V86.0088H773.464V85.0088H772.464ZM856.293 8.0459H857.293V7.19501L856.453 7.05881L856.293 8.0459ZM856.293 36.7715L856.144 37.7604L857.293 37.9327V36.7715H856.293ZM811.127 85.0088H810.127V86.0088H811.127V85.0088ZM854.667 85.0088H855.667V84.0088H854.667V85.0088ZM854.667 115.902V116.902H855.667V115.902H854.667ZM811.488 115.902V114.902H810.488V115.902H811.488ZM811.488 281.21V282.21H812.488V281.21H811.488ZM772.464 281.21H773.464V115.902H772.464H771.464V281.21H772.464ZM772.464 115.902V114.902H740.126V115.902V116.902H772.464V115.902ZM740.126 115.902H741.126V85.0088H740.126H739.126V115.902H740.126ZM740.126 85.0088V86.0088H772.464V85.0088V84.0088H740.126V85.0088ZM772.464 85.0088H773.464V64.4131H772.464H771.464V85.0088H772.464ZM772.464 64.4131H773.464C773.464 45.0603 778.391 30.8246 788.197 21.4139C798.012 11.9956 812.891 7.23926 833.168 7.23926V6.23926V5.23926C812.614 5.23926 797.142 10.0581 786.812 19.9709C776.475 29.8912 771.464 44.7424 771.464 64.4131H772.464ZM833.168 6.23926V7.23926C841.964 7.23926 849.499 7.95721 856.133 9.03299L856.293 8.0459L856.453 7.05881C849.718 5.96661 842.076 5.23926 833.168 5.23926V6.23926ZM856.293 8.0459H855.293V36.7715H856.293H857.293V8.0459H856.293ZM856.293 36.7715L856.441 35.7825C852.764 35.231 847.472 34.8682 841.297 34.8682V35.8682V36.8682C847.408 36.8682 852.595 37.228 856.144 37.7604L856.293 36.7715ZM841.297 35.8682V34.8682C830.313 34.8682 822.452 37.5227 817.356 42.904C812.271 48.2743 810.127 56.1661 810.127 66.2197H811.127H812.127C812.127 56.4003 814.228 49.1163 818.808 44.2791C823.378 39.4529 830.602 36.8682 841.297 36.8682V35.8682ZM811.127 66.2197H810.127V85.0088H811.127H812.127V66.2197H811.127ZM811.127 85.0088V86.0088H854.667V85.0088V84.0088H811.127V85.0088ZM854.667 85.0088H853.667V115.902H854.667H855.667V85.0088H854.667ZM854.667 115.902V114.902H811.488V115.902V116.902H854.667V115.902ZM811.488 115.902H810.488V281.21H811.488H812.488V115.902H811.488ZM811.488 281.21V280.21H772.464V281.21V282.21H811.488V281.21ZM893.155 281.21H892.155V282.21H893.155V281.21ZM893.155 8.0459V7.0459H892.155V8.0459H893.155ZM932.359 8.0459H933.359V7.0459H932.359V8.0459ZM932.359 281.21V282.21H933.359V281.21H932.359ZM893.155 281.21H894.155V8.0459H893.155H892.155V281.21H893.155ZM893.155 8.0459V9.0459H932.359V8.0459V7.0459H893.155V8.0459ZM932.359 8.0459H931.359V281.21H932.359H933.359V8.0459H932.359ZM932.359 281.21V280.21H893.155V281.21V282.21H932.359V281.21ZM1066.42 285.004V284.004C1037.84 284.004 1014.91 274.468 999.115 257.185C983.314 239.89 974.558 214.726 974.558 183.29H973.558H972.558C972.558 215.087 981.417 240.779 997.638 258.534C1013.87 276.299 1037.37 286.004 1066.42 286.004V285.004ZM973.558 183.29H974.558V182.929H973.558H972.558V183.29H973.558ZM973.558 182.929H974.558C974.558 151.585 983.358 126.42 999.183 109.102C1015 91.7943 1037.93 82.2148 1066.42 82.2148V81.2148V80.2148C1037.46 80.2148 1013.96 89.9664 997.706 107.753C981.463 125.528 972.558 151.221 972.558 182.929H973.558ZM1066.42 81.2148V82.2148C1094.82 82.2148 1117.71 91.7495 1133.5 109.034C1149.3 126.33 1158.1 151.494 1158.1 182.929H1159.1H1160.1C1160.1 151.131 1151.19 125.439 1134.97 107.685C1118.74 89.9209 1095.29 80.2148 1066.42 80.2148V81.2148ZM1159.1 182.929H1158.1V183.29H1159.1H1160.1V182.929H1159.1ZM1159.1 183.29H1158.1C1158.1 214.726 1149.34 239.89 1133.57 257.185C1117.8 274.469 1094.91 284.004 1066.42 284.004V285.004V286.004C1095.38 286.004 1118.83 276.298 1135.04 258.533C1151.24 240.779 1160.1 215.087 1160.1 183.29H1159.1ZM1066.42 252.304V253.304C1083.5 253.304 1097 246.766 1106.19 234.661C1115.36 222.594 1120.17 205.099 1120.17 183.29H1119.17H1118.17C1118.17 204.84 1113.41 221.852 1104.6 233.452C1095.82 245.014 1082.94 251.304 1066.42 251.304V252.304ZM1119.17 183.29H1120.17V182.929H1119.17H1118.17V183.29H1119.17ZM1119.17 182.929H1120.17C1120.17 161.03 1115.36 143.534 1106.19 131.489C1097 119.406 1083.5 112.915 1066.42 112.915V113.915V114.915C1082.94 114.915 1095.82 121.161 1104.6 132.7C1113.41 144.276 1118.17 161.287 1118.17 182.929H1119.17ZM1066.42 113.915V112.915C1049.25 112.915 1035.75 119.405 1026.58 131.49C1017.43 143.536 1012.67 161.032 1012.67 182.929H1013.67H1014.67C1014.67 161.285 1019.38 144.275 1028.17 132.699C1036.93 121.162 1049.81 114.915 1066.42 114.915V113.915ZM1013.67 182.929H1012.67V183.29H1013.67H1014.67V182.929H1013.67ZM1013.67 183.29H1012.67C1012.67 205.186 1017.43 222.683 1026.58 234.729C1035.75 246.814 1049.25 253.304 1066.42 253.304V252.304V251.304C1049.81 251.304 1036.93 245.057 1028.17 233.52C1019.38 221.944 1014.67 204.934 1014.67 183.29H1013.67ZM1228.66 281.21L1227.7 281.476L1227.9 282.21H1228.66V281.21ZM1174.46 85.0088V84.0088H1173.15L1173.5 85.2751L1174.46 85.0088ZM1213.85 85.0088L1214.82 84.7822L1214.64 84.0088H1213.85V85.0088ZM1249.08 236.405L1248.1 236.632L1248.28 237.405H1249.08V236.405ZM1251.97 236.405V237.405H1252.74L1252.93 236.664L1251.97 236.405ZM1292.44 85.0088V84.0088H1291.67L1291.47 84.7505L1292.44 85.0088ZM1329.65 85.0088L1330.62 84.7505L1330.42 84.0088H1329.65V85.0088ZM1370.12 236.405L1369.16 236.664L1369.35 237.405H1370.12V236.405ZM1373.19 236.405V237.405H1373.99L1374.17 236.631L1373.19 236.405ZM1408.24 85.0088V84.0088H1407.45L1407.27 84.7832L1408.24 85.0088ZM1447.09 85.0088L1448.05 85.2742L1448.4 84.0088H1447.09V85.0088ZM1393.07 281.21V282.21H1393.83L1394.03 281.475L1393.07 281.21ZM1352.78 281.21L1351.82 281.478L1352.02 282.21H1352.78V281.21ZM1312.13 134.872L1313.09 134.604L1312.89 133.872H1312.13V134.872ZM1309.06 134.872V133.872H1308.3L1308.09 134.606L1309.06 134.872ZM1268.59 281.21V282.21H1269.35L1269.55 281.477L1268.59 281.21ZM1228.66 281.21L1229.63 280.944L1175.43 84.7425L1174.46 85.0088L1173.5 85.2751L1227.7 281.476L1228.66 281.21ZM1174.46 85.0088V86.0088H1213.85V85.0088V84.0088H1174.46V85.0088ZM1213.85 85.0088L1212.87 85.2354L1248.1 236.632L1249.08 236.405L1250.05 236.179L1214.82 84.7822L1213.85 85.0088ZM1249.08 236.405V237.405H1251.97V236.405V235.405H1249.08V236.405ZM1251.97 236.405L1252.93 236.664L1293.4 85.267L1292.44 85.0088L1291.47 84.7505L1251 236.147L1251.97 236.405ZM1292.44 85.0088V86.0088H1329.65V85.0088V84.0088H1292.44V85.0088ZM1329.65 85.0088L1328.69 85.267L1369.16 236.664L1370.12 236.405L1371.09 236.147L1330.62 84.7505L1329.65 85.0088ZM1370.12 236.405V237.405H1373.19V236.405V235.405H1370.12V236.405ZM1373.19 236.405L1374.17 236.631L1409.22 85.2343L1408.24 85.0088L1407.27 84.7832L1372.22 236.18L1373.19 236.405ZM1408.24 85.0088V86.0088H1447.09V85.0088V84.0088H1408.24V85.0088ZM1447.09 85.0088L1446.12 84.7433L1392.1 280.945L1393.07 281.21L1394.03 281.475L1448.05 85.2742L1447.09 85.0088ZM1393.07 281.21V280.21H1352.78V281.21V282.21H1393.07V281.21ZM1352.78 281.21L1353.74 280.942L1313.09 134.604L1312.13 134.872L1311.17 135.14L1351.82 281.478L1352.78 281.21ZM1312.13 134.872V133.872H1309.06V134.872V135.872H1312.13V134.872ZM1309.06 134.872L1308.09 134.606L1267.63 280.943L1268.59 281.21L1269.55 281.477L1310.02 135.139L1309.06 134.872ZM1268.59 281.21V280.21H1228.66V281.21V282.21H1268.59V281.21Z" fill="#E9EAEB" mask="url(#path-1-outside-1_11519_27017)"/>
</svg>
