<svg width="23" height="24" viewBox="0 0 23 24" fill="none" xmlns="http://www.w3.org/2000/svg">
<g clip-path="url(#clip0_6064_4689)">
<path d="M22.6263 23.0405C22.6263 23.571 22.1964 24.0009 21.6668 24.0009C21.6604 24.0009 21.6539 24.0009 21.6474 24.0002H21.646C21.6388 24.0009 21.6317 24.0009 21.6245 24.0009H0V23.8931C0.640826 22.0442 1.51272 20.3045 2.58125 18.7072C2.58268 18.7036 2.58483 18.7007 2.58699 18.6979C3.32541 17.5944 4.15712 16.56 5.07207 15.6046C5.36701 15.2955 5.67128 14.995 5.98416 14.7031C7.02971 13.7262 8.16784 12.8463 9.38276 12.08L10.6479 13.3481C10.8216 13.5213 11.0613 13.6291 11.326 13.6291C11.5499 13.6291 11.7559 13.5522 11.9188 13.4243C11.9195 13.4243 11.9202 13.4243 11.9202 13.4228C11.9784 13.3768 12.0315 13.3243 12.0774 13.2661L16.1412 9.21963L16.9586 8.40588C17.0346 8.3498 17.1021 8.28295 17.1581 8.20747C17.1581 8.20675 17.1588 8.20675 17.1588 8.20675C17.2779 8.04644 17.349 7.84732 17.349 7.63238C17.349 7.10186 16.9191 6.67126 16.3895 6.67126H6.42477C6.38099 6.66479 6.3365 6.66191 6.29058 6.66191C6.24465 6.66191 6.20087 6.66479 6.1571 6.67126C5.69065 6.73667 5.33185 7.1378 5.33185 7.62303C5.33185 7.86457 5.42083 8.08526 5.56794 8.2542C5.56794 8.2542 5.56794 8.25491 5.56866 8.25491C5.59521 8.28654 5.62463 8.31602 5.65549 8.34262L5.65908 8.34621L6.59771 9.2872C5.32324 10.0485 4.12913 10.9298 3.0319 11.9175C1.91602 12.9211 0.899884 14.0331 0 15.238V0.83336C0.0624321 0.363223 0.464294 0.000915527 0.950834 0.000915527H12.0071C16.0709 0.000915527 19.5283 2.60248 20.8093 6.23419C21.0719 6.97893 21.2427 7.76752 21.3087 8.58559C21.3295 8.83719 21.3396 9.09167 21.3396 9.34902C21.3396 12.916 19.3453 16.0165 16.4132 17.5922C17.0217 17.9337 17.613 18.3025 18.185 18.6979C18.1893 18.7007 18.1943 18.7036 18.1986 18.7072C19.6826 19.7316 21.0389 20.9278 22.238 22.2677C22.2667 22.2994 22.2947 22.3303 22.3227 22.3619C22.3263 22.3662 22.3306 22.3705 22.3335 22.3748C22.3902 22.4388 22.4469 22.5035 22.5021 22.5682C22.5811 22.7077 22.6263 22.8687 22.6263 23.0405Z" fill="#2C4BFD"/>
</g>
<defs>
<clipPath id="clip0_6064_4689">
<rect width="22.6263" height="24" fill="white"/>
</clipPath>
</defs>
</svg>
