<svg width="34" height="34" viewBox="0 0 34 34" fill="none" xmlns="http://www.w3.org/2000/svg">
<rect y="0.039978" width="33.12" height="33.12" rx="7.04" fill="#2C4BFD"/>
<path d="M22.5 24.52C23.5935 24.52 24.48 23.6335 24.48 22.54C24.48 21.4465 23.5935 20.56 22.5 20.56C21.4065 20.56 20.52 21.4465 20.52 22.54C20.52 23.6335 21.4065 24.52 22.5 24.52Z" stroke="white" stroke-width="1.76" stroke-linecap="round" stroke-linejoin="round"/>
<path d="M11.9399 10.66H19.8599C20.5601 10.66 21.2316 10.9381 21.7267 11.4332C22.2217 11.9283 22.4999 12.5998 22.4999 13.3C22.4999 14.0001 22.2217 14.6716 21.7267 15.1667C21.2316 15.6618 20.5601 15.94 19.8599 15.94H11.9399C11.0647 15.94 10.2253 16.2877 9.60644 16.9065C8.98757 17.5254 8.63989 18.3648 8.63989 19.24C8.63989 20.1152 8.98757 20.9546 9.60644 21.5734C10.2253 22.1923 11.0647 22.54 11.9399 22.54H20.5199" stroke="white" stroke-width="1.76" stroke-linecap="round" stroke-linejoin="round"/>
</svg>
