<svg width="201" height="48" viewBox="0 0 201 48" fill="none" xmlns="http://www.w3.org/2000/svg">
<path d="M20.6708 27.7188L19.4812 26.5291C19.3766 26.4242 19.2525 26.341 19.1157 26.2842C18.979 26.2274 18.8323 26.1982 18.6843 26.1982C18.5362 26.1982 18.3896 26.2274 18.2529 26.2842C18.1161 26.341 17.9919 26.4242 17.8874 26.5291L12.584 31.8325L10.7812 27.13L10.769 27.0991C10.654 26.8314 10.4629 26.6034 10.2193 26.4436C9.97579 26.2837 9.69061 26.199 9.39928 26.2H9.32616C9.02244 26.2128 8.72996 26.3185 8.48832 26.503C8.24669 26.6874 8.06757 26.9417 7.97522 27.2313L3.07491 42.2388C2.98896 42.5014 2.97746 42.7827 3.04168 43.0514C3.10589 43.3202 3.24332 43.5659 3.4387 43.7613C3.63408 43.9566 3.87978 44.0941 4.14852 44.1583C4.41727 44.2225 4.69855 44.211 4.96116 44.125L19.9687 39.2247C20.2555 39.1288 20.5066 38.9484 20.6891 38.7072C20.8715 38.466 20.9768 38.1752 20.9911 37.8731C21.0054 37.571 20.928 37.2716 20.7692 37.0143C20.6103 36.7569 20.3773 36.5536 20.1008 36.431L20.0699 36.4188L15.3674 34.6122L20.6708 29.3097C20.8818 29.0988 21.0003 28.8126 21.0003 28.5143C21.0003 28.2159 20.8818 27.9298 20.6708 27.7188Z" fill="#2C4BFD"/>
<path d="M46 0.5H188.12C194.471 0.500066 199.62 5.64877 199.62 12V35.2002C199.62 41.5513 194.471 46.7001 188.12 46.7002H36C35.1716 46.7002 34.5001 46.0285 34.5 45.2002V12C34.5 5.64873 39.6487 0.5 46 0.5Z" fill="#EDF2FD"/>
<path d="M46 0.5H188.12C194.471 0.500066 199.62 5.64877 199.62 12V35.2002C199.62 41.5513 194.471 46.7001 188.12 46.7002H36C35.1716 46.7002 34.5001 46.0285 34.5 45.2002V12C34.5 5.64873 39.6487 0.5 46 0.5Z" stroke="white"/>
<path d="M47.125 28.6V18.36H50.775C51.5683 18.36 52.2267 18.4966 52.75 18.77C53.2767 19.0433 53.67 19.4216 53.93 19.905C54.19 20.385 54.32 20.94 54.32 21.57C54.32 22.1966 54.1883 22.7483 53.925 23.225C53.665 23.6983 53.2717 24.0666 52.745 24.33C52.2217 24.5933 51.5633 24.725 50.77 24.725H48.005V23.395H50.63C51.13 23.395 51.5367 23.3233 51.85 23.18C52.1667 23.0366 52.3983 22.8283 52.545 22.555C52.6917 22.2816 52.765 21.9533 52.765 21.57C52.765 21.1833 52.69 20.8483 52.54 20.565C52.3933 20.2816 52.1617 20.065 51.845 19.915C51.5317 19.7616 51.12 19.685 50.61 19.685H48.67V28.6H47.125ZM52.18 23.98L54.71 28.6H52.95L50.47 23.98H52.18ZM59.2188 28.755C58.4988 28.755 57.8704 28.59 57.3338 28.26C56.7971 27.93 56.3804 27.4683 56.0838 26.875C55.7871 26.2816 55.6388 25.5883 55.6388 24.795C55.6388 23.9983 55.7871 23.3016 56.0838 22.705C56.3804 22.1083 56.7971 21.645 57.3338 21.315C57.8704 20.985 58.4988 20.82 59.2188 20.82C59.9388 20.82 60.5671 20.985 61.1038 21.315C61.6404 21.645 62.0571 22.1083 62.3538 22.705C62.6504 23.3016 62.7988 23.9983 62.7988 24.795C62.7988 25.5883 62.6504 26.2816 62.3538 26.875C62.0571 27.4683 61.6404 27.93 61.1038 28.26C60.5671 28.59 59.9388 28.755 59.2188 28.755ZM59.2238 27.5C59.6904 27.5 60.0771 27.3766 60.3838 27.13C60.6904 26.8833 60.9171 26.555 61.0638 26.145C61.2138 25.735 61.2888 25.2833 61.2888 24.79C61.2888 24.3 61.2138 23.85 61.0638 23.44C60.9171 23.0266 60.6904 22.695 60.3838 22.445C60.0771 22.195 59.6904 22.07 59.2238 22.07C58.7538 22.07 58.3638 22.195 58.0538 22.445C57.7471 22.695 57.5188 23.0266 57.3688 23.44C57.2221 23.85 57.1488 24.3 57.1488 24.79C57.1488 25.2833 57.2221 25.735 57.3688 26.145C57.5188 26.555 57.7471 26.8833 58.0538 27.13C58.3638 27.3766 58.7538 27.5 59.2238 27.5ZM69.3325 25.415V20.92H70.8325V28.6H69.3625V27.27H69.2825C69.1058 27.68 68.8225 28.0216 68.4325 28.295C68.0458 28.565 67.5642 28.7 66.9875 28.7C66.4942 28.7 66.0575 28.5916 65.6775 28.375C65.3008 28.155 65.0042 27.83 64.7875 27.4C64.5742 26.97 64.4675 26.4383 64.4675 25.805V20.92H65.9625V25.625C65.9625 26.1483 66.1075 26.565 66.3975 26.875C66.6875 27.185 67.0642 27.34 67.5275 27.34C67.8075 27.34 68.0858 27.27 68.3625 27.13C68.6425 26.99 68.8742 26.7783 69.0575 26.495C69.2442 26.2116 69.3358 25.8516 69.3325 25.415ZM76.4263 20.92V22.12H72.2313V20.92H76.4263ZM73.3563 19.08H74.8513V26.345C74.8513 26.635 74.8946 26.8533 74.9813 27C75.0679 27.1433 75.1796 27.2416 75.3163 27.295C75.4563 27.345 75.6079 27.37 75.7713 27.37C75.8913 27.37 75.9963 27.3616 76.0863 27.345C76.1763 27.3283 76.2463 27.315 76.2963 27.305L76.5663 28.54C76.4796 28.5733 76.3563 28.6066 76.1963 28.64C76.0363 28.6766 75.8363 28.6966 75.5963 28.7C75.2029 28.7066 74.8363 28.6366 74.4963 28.49C74.1563 28.3433 73.8813 28.1166 73.6713 27.81C73.4613 27.5033 73.3563 27.1183 73.3563 26.655V19.08ZM81.3075 28.755C80.5508 28.755 79.8992 28.5933 79.3525 28.27C78.8092 27.9433 78.3892 27.485 78.0925 26.895C77.7992 26.3016 77.6525 25.6066 77.6525 24.81C77.6525 24.0233 77.7992 23.33 78.0925 22.73C78.3892 22.13 78.8025 21.6616 79.3325 21.325C79.8658 20.9883 80.4892 20.82 81.2025 20.82C81.6358 20.82 82.0558 20.8916 82.4625 21.035C82.8692 21.1783 83.2342 21.4033 83.5575 21.71C83.8808 22.0166 84.1358 22.415 84.3225 22.905C84.5092 23.3916 84.6025 23.9833 84.6025 24.68V25.21H78.4975V24.09H83.1375C83.1375 23.6966 83.0575 23.3483 82.8975 23.045C82.7375 22.7383 82.5125 22.4966 82.2225 22.32C81.9358 22.1433 81.5992 22.055 81.2125 22.055C80.7925 22.055 80.4258 22.1583 80.1125 22.365C79.8025 22.5683 79.5625 22.835 79.3925 23.165C79.2258 23.4916 79.1425 23.8466 79.1425 24.23V25.105C79.1425 25.6183 79.2325 26.055 79.4125 26.415C79.5958 26.775 79.8508 27.05 80.1775 27.24C80.5042 27.4266 80.8858 27.52 81.3225 27.52C81.6058 27.52 81.8642 27.48 82.0975 27.4C82.3308 27.3166 82.5325 27.1933 82.7025 27.03C82.8725 26.8666 83.0025 26.665 83.0925 26.425L84.5075 26.68C84.3942 27.0966 84.1908 27.4616 83.8975 27.775C83.6075 28.085 83.2425 28.3266 82.8025 28.5C82.3658 28.67 81.8675 28.755 81.3075 28.755ZM90.1075 28.6V18.36H93.7575C94.5542 18.36 95.2142 18.505 95.7375 18.795C96.2608 19.085 96.6525 19.4816 96.9125 19.985C97.1725 20.485 97.3025 21.0483 97.3025 21.675C97.3025 22.305 97.1708 22.8716 96.9075 23.375C96.6475 23.875 96.2542 24.2716 95.7275 24.565C95.2042 24.855 94.5458 25 93.7525 25H91.2425V23.69H93.6125C94.1158 23.69 94.5242 23.6033 94.8375 23.43C95.1508 23.2533 95.3808 23.0133 95.5275 22.71C95.6742 22.4066 95.7475 22.0616 95.7475 21.675C95.7475 21.2883 95.6742 20.945 95.5275 20.645C95.3808 20.345 95.1492 20.11 94.8325 19.94C94.5192 19.77 94.1058 19.685 93.5925 19.685H91.6525V28.6H90.1075ZM100.489 18.36V28.6H98.9938V18.36H100.489ZM104.735 28.77C104.248 28.77 103.808 28.68 103.415 28.5C103.022 28.3166 102.71 28.0516 102.48 27.705C102.253 27.3583 102.14 26.9333 102.14 26.43C102.14 25.9966 102.223 25.64 102.39 25.36C102.557 25.08 102.782 24.8583 103.065 24.695C103.348 24.5316 103.665 24.4083 104.015 24.325C104.365 24.2416 104.722 24.1783 105.085 24.135C105.545 24.0816 105.918 24.0383 106.205 24.005C106.492 23.9683 106.7 23.91 106.83 23.83C106.96 23.75 107.025 23.62 107.025 23.44V23.405C107.025 22.9683 106.902 22.63 106.655 22.39C106.412 22.15 106.048 22.03 105.565 22.03C105.062 22.03 104.665 22.1416 104.375 22.365C104.088 22.585 103.89 22.83 103.78 23.1L102.375 22.78C102.542 22.3133 102.785 21.9366 103.105 21.65C103.428 21.36 103.8 21.15 104.22 21.02C104.64 20.8866 105.082 20.82 105.545 20.82C105.852 20.82 106.177 20.8566 106.52 20.93C106.867 21 107.19 21.13 107.49 21.32C107.793 21.51 108.042 21.7816 108.235 22.135C108.428 22.485 108.525 22.94 108.525 23.5V28.6H107.065V27.55H107.005C106.908 27.7433 106.763 27.9333 106.57 28.12C106.377 28.3066 106.128 28.4616 105.825 28.585C105.522 28.7083 105.158 28.77 104.735 28.77ZM105.06 27.57C105.473 27.57 105.827 27.4883 106.12 27.325C106.417 27.1616 106.642 26.9483 106.795 26.685C106.952 26.4183 107.03 26.1333 107.03 25.83V24.84C106.977 24.8933 106.873 24.9433 106.72 24.99C106.57 25.0333 106.398 25.0716 106.205 25.105C106.012 25.135 105.823 25.1633 105.64 25.19C105.457 25.2133 105.303 25.2333 105.18 25.25C104.89 25.2866 104.625 25.3483 104.385 25.435C104.148 25.5216 103.958 25.6466 103.815 25.81C103.675 25.97 103.605 26.1833 103.605 26.45C103.605 26.82 103.742 27.1 104.015 27.29C104.288 27.4766 104.637 27.57 105.06 27.57ZM112.011 24.04V28.6H110.516V20.92H111.951V22.17H112.046C112.223 21.7633 112.5 21.4366 112.876 21.19C113.256 20.9433 113.735 20.82 114.311 20.82C114.835 20.82 115.293 20.93 115.686 21.15C116.08 21.3666 116.385 21.69 116.601 22.12C116.818 22.55 116.926 23.0816 116.926 23.715V28.6H115.431V23.895C115.431 23.3383 115.286 22.9033 114.996 22.59C114.706 22.2733 114.308 22.115 113.801 22.115C113.455 22.115 113.146 22.19 112.876 22.34C112.61 22.49 112.398 22.71 112.241 23C112.088 23.2866 112.011 23.6333 112.011 24.04ZM120.426 24.04V28.6H118.931V20.92H120.366V22.17H120.461C120.638 21.7633 120.915 21.4366 121.291 21.19C121.671 20.9433 122.15 20.82 122.726 20.82C123.25 20.82 123.708 20.93 124.101 21.15C124.495 21.3666 124.8 21.69 125.016 22.12C125.233 22.55 125.341 23.0816 125.341 23.715V28.6H123.846V23.895C123.846 23.3383 123.701 22.9033 123.411 22.59C123.121 22.2733 122.723 22.115 122.216 22.115C121.87 22.115 121.561 22.19 121.291 22.34C121.025 22.49 120.813 22.71 120.656 23C120.503 23.2866 120.426 23.6333 120.426 24.04ZM127.346 28.6V20.92H128.841V28.6H127.346ZM128.101 19.735C127.841 19.735 127.618 19.6483 127.431 19.475C127.248 19.2983 127.156 19.0883 127.156 18.845C127.156 18.5983 127.248 18.3883 127.431 18.215C127.618 18.0383 127.841 17.95 128.101 17.95C128.361 17.95 128.583 18.0383 128.766 18.215C128.953 18.3883 129.046 18.5983 129.046 18.845C129.046 19.0883 128.953 19.2983 128.766 19.475C128.583 19.6483 128.361 19.735 128.101 19.735ZM132.348 24.04V28.6H130.853V20.92H132.288V22.17H132.383C132.559 21.7633 132.836 21.4366 133.213 21.19C133.593 20.9433 134.071 20.82 134.648 20.82C135.171 20.82 135.629 20.93 136.023 21.15C136.416 21.3666 136.721 21.69 136.938 22.12C137.154 22.55 137.263 23.0816 137.263 23.715V28.6H135.768V23.895C135.768 23.3383 135.623 22.9033 135.333 22.59C135.043 22.2733 134.644 22.115 134.138 22.115C133.791 22.115 133.483 22.19 133.213 22.34C132.946 22.49 132.734 22.71 132.578 23C132.424 23.2866 132.348 23.6333 132.348 24.04ZM142.487 31.64C141.877 31.64 141.352 31.56 140.912 31.4C140.476 31.24 140.119 31.0283 139.842 30.765C139.566 30.5016 139.359 30.2133 139.222 29.9L140.507 29.37C140.597 29.5166 140.717 29.6716 140.867 29.835C141.021 30.0016 141.227 30.1433 141.487 30.26C141.751 30.3766 142.089 30.435 142.502 30.435C143.069 30.435 143.537 30.2966 143.907 30.02C144.277 29.7466 144.462 29.31 144.462 28.71V27.2H144.367C144.277 27.3633 144.147 27.545 143.977 27.745C143.811 27.945 143.581 28.1183 143.287 28.265C142.994 28.4116 142.612 28.485 142.142 28.485C141.536 28.485 140.989 28.3433 140.502 28.06C140.019 27.7733 139.636 27.3516 139.352 26.795C139.072 26.235 138.932 25.5466 138.932 24.73C138.932 23.9133 139.071 23.2133 139.347 22.63C139.627 22.0466 140.011 21.6 140.497 21.29C140.984 20.9766 141.536 20.82 142.152 20.82C142.629 20.82 143.014 20.9 143.307 21.06C143.601 21.2166 143.829 21.4 143.992 21.61C144.159 21.82 144.287 22.005 144.377 22.165H144.487V20.92H145.952V28.77C145.952 29.43 145.799 29.9716 145.492 30.395C145.186 30.8183 144.771 31.1316 144.247 31.335C143.727 31.5383 143.141 31.64 142.487 31.64ZM142.472 27.245C142.902 27.245 143.266 27.145 143.562 26.945C143.862 26.7416 144.089 26.4516 144.242 26.075C144.399 25.695 144.477 25.24 144.477 24.71C144.477 24.1933 144.401 23.7383 144.247 23.345C144.094 22.9516 143.869 22.645 143.572 22.425C143.276 22.2016 142.909 22.09 142.472 22.09C142.022 22.09 141.647 22.2066 141.347 22.44C141.047 22.67 140.821 22.9833 140.667 23.38C140.517 23.7766 140.442 24.22 140.442 24.71C140.442 25.2133 140.519 25.655 140.672 26.035C140.826 26.415 141.052 26.7116 141.352 26.925C141.656 27.1383 142.029 27.245 142.472 27.245Z" fill="#3B3B3B"/>
<rect x="155" y="7.03998" width="33.12" height="33.12" rx="7.04" fill="#2C4BFD"/>
<path d="M177.5 31.52C178.594 31.52 179.48 30.6335 179.48 29.54C179.48 28.4465 178.594 27.56 177.5 27.56C176.406 27.56 175.52 28.4465 175.52 29.54C175.52 30.6335 176.406 31.52 177.5 31.52Z" stroke="white" stroke-width="1.76" stroke-linecap="round" stroke-linejoin="round"/>
<path d="M166.94 17.66H174.86C175.56 17.66 176.232 17.9381 176.727 18.4332C177.222 18.9283 177.5 19.5998 177.5 20.3C177.5 21.0001 177.222 21.6716 176.727 22.1667C176.232 22.6618 175.56 22.94 174.86 22.94H166.94C166.065 22.94 165.225 23.2877 164.606 23.9065C163.988 24.5254 163.64 25.3648 163.64 26.24C163.64 27.1152 163.988 27.9546 164.606 28.5734C165.225 29.1923 166.065 29.54 166.94 29.54H175.52" stroke="white" stroke-width="1.76" stroke-linecap="round" stroke-linejoin="round"/>
</svg>
