<svg width="229" height="48" viewBox="0 0 229 48" fill="none" xmlns="http://www.w3.org/2000/svg">
<path d="M12 0.5H182.12C188.471 0.500066 193.62 5.64877 193.62 12V45.2002C193.62 46.0285 192.948 46.7001 192.12 46.7002H12C5.64879 46.7002 0.500107 41.5514 0.5 35.2002V12C0.500006 5.64873 5.64873 0.5 12 0.5Z" fill="#EDFDF0"/>
<path d="M12 0.5H182.12C188.471 0.500066 193.62 5.64877 193.62 12V45.2002C193.62 46.0285 192.948 46.7001 192.12 46.7002H12C5.64879 46.7002 0.500107 41.5514 0.5 35.2002V12C0.500006 5.64873 5.64873 0.5 12 0.5Z" stroke="white"/>
<rect x="12" y="7.03998" width="33.12" height="33.12" rx="7.04" fill="#008E2C"/>
<path d="M24.6 29.5399C26.058 29.5399 27.24 28.358 27.24 26.8999C27.24 25.4419 26.058 24.2599 24.6 24.2599C23.1419 24.2599 21.96 25.4419 21.96 26.8999C21.96 28.358 23.1419 29.5399 24.6 29.5399Z" stroke="white" stroke-width="1.76" stroke-linecap="round" stroke-linejoin="round"/>
<path d="M24.6 20.96C26.058 20.96 27.24 19.778 27.24 18.32C27.24 16.862 26.058 15.68 24.6 15.68C23.1419 15.68 21.96 16.862 21.96 18.32C21.96 19.778 23.1419 20.96 24.6 20.96Z" stroke="white" stroke-width="1.76" stroke-linecap="round" stroke-linejoin="round"/>
<path d="M32.52 29.5399C33.978 29.5399 35.16 28.358 35.16 26.8999C35.16 25.4419 33.978 24.2599 32.52 24.2599C31.062 24.2599 29.88 25.4419 29.88 26.8999C29.88 28.358 31.062 29.5399 32.52 29.5399Z" stroke="white" stroke-width="1.76" stroke-linecap="round" stroke-linejoin="round"/>
<path d="M20.64 31.52C21.1011 30.9052 21.699 30.4062 22.3863 30.0626C23.0736 29.7189 23.8316 29.54 24.6 29.54C25.3685 29.54 26.1264 29.7189 26.8137 30.0626C27.5011 30.4062 28.0989 30.9052 28.56 31.52C29.0211 30.9052 29.619 30.4062 30.3063 30.0626C30.9936 29.7189 31.7516 29.54 32.52 29.54C33.2885 29.54 34.0464 29.7189 34.7337 30.0626C35.4211 30.4062 36.0189 30.9052 36.48 31.52" stroke="white" stroke-width="1.76" stroke-linecap="round" stroke-linejoin="round"/>
<path d="M32.52 20.96C33.978 20.96 35.16 19.778 35.16 18.32C35.16 16.862 33.978 15.68 32.52 15.68C31.062 15.68 29.88 16.862 29.88 18.32C29.88 19.778 31.062 20.96 32.52 20.96Z" stroke="white" stroke-width="1.76" stroke-linecap="round" stroke-linejoin="round"/>
<path d="M20.64 22.94C21.1011 22.3252 21.699 21.8262 22.3863 21.4825C23.0736 21.1389 23.8316 20.96 24.6 20.96C25.3685 20.96 26.1264 21.1389 26.8137 21.4825C27.5011 21.8262 28.0989 22.3252 28.56 22.94C29.0211 22.3252 29.619 21.8262 30.3063 21.4825C30.9936 21.1389 31.7516 20.96 32.52 20.96C33.2885 20.96 34.0464 21.1389 34.7337 21.4825C35.4211 21.8262 36.0189 22.3252 36.48 22.94" stroke="white" stroke-width="1.76" stroke-linecap="round" stroke-linejoin="round"/>
<path d="M59.83 21.05C59.7767 20.5766 59.5567 20.21 59.17 19.95C58.7833 19.6866 58.2967 19.555 57.71 19.555C57.29 19.555 56.9267 19.6216 56.62 19.755C56.3133 19.885 56.075 20.065 55.905 20.295C55.7383 20.5216 55.655 20.78 55.655 21.07C55.655 21.3133 55.7117 21.5233 55.825 21.7C55.9417 21.8766 56.0933 22.025 56.28 22.145C56.47 22.2616 56.6733 22.36 56.89 22.44C57.1067 22.5166 57.315 22.58 57.515 22.63L58.515 22.89C58.8417 22.97 59.1767 23.0783 59.52 23.215C59.8633 23.3516 60.1817 23.5316 60.475 23.755C60.7683 23.9783 61.005 24.255 61.185 24.585C61.3683 24.915 61.46 25.31 61.46 25.77C61.46 26.35 61.31 26.865 61.01 27.315C60.7133 27.765 60.2817 28.12 59.715 28.38C59.1517 28.64 58.47 28.77 57.67 28.77C56.9033 28.77 56.24 28.6483 55.68 28.405C55.12 28.1616 54.6817 27.8166 54.365 27.37C54.0483 26.92 53.8733 26.3866 53.84 25.77H55.39C55.42 26.14 55.54 26.4483 55.75 26.695C55.9633 26.9383 56.235 27.12 56.565 27.24C56.8983 27.3566 57.2633 27.415 57.66 27.415C58.0967 27.415 58.485 27.3466 58.825 27.21C59.1683 27.07 59.4383 26.8766 59.635 26.63C59.8317 26.38 59.93 26.0883 59.93 25.755C59.93 25.4516 59.8433 25.2033 59.67 25.01C59.5 24.8166 59.2683 24.6566 58.975 24.53C58.685 24.4033 58.3567 24.2916 57.99 24.195L56.78 23.865C55.96 23.6416 55.31 23.3133 54.83 22.88C54.3533 22.4466 54.115 21.8733 54.115 21.16C54.115 20.57 54.275 20.055 54.595 19.615C54.915 19.175 55.3483 18.8333 55.895 18.59C56.4417 18.3433 57.0583 18.22 57.745 18.22C58.4383 18.22 59.05 18.3416 59.58 18.585C60.1133 18.8283 60.5333 19.1633 60.84 19.59C61.1467 20.0133 61.3067 20.5 61.32 21.05H59.83ZM66.7712 20.92V22.12H62.5762V20.92H66.7712ZM63.7012 19.08H65.1962V26.345C65.1962 26.635 65.2396 26.8533 65.3262 27C65.4129 27.1433 65.5246 27.2416 65.6612 27.295C65.8012 27.345 65.9529 27.37 66.1162 27.37C66.2362 27.37 66.3412 27.3616 66.4312 27.345C66.5212 27.3283 66.5912 27.315 66.6412 27.305L66.9112 28.54C66.8246 28.5733 66.7012 28.6066 66.5412 28.64C66.3812 28.6766 66.1812 28.6966 65.9412 28.7C65.5479 28.7066 65.1812 28.6366 64.8412 28.49C64.5012 28.3433 64.2262 28.1166 64.0162 27.81C63.8062 27.5033 63.7012 27.1183 63.7012 26.655V19.08ZM70.66 28.77C70.1733 28.77 69.7333 28.68 69.34 28.5C68.9467 28.3166 68.635 28.0516 68.405 27.705C68.1783 27.3583 68.065 26.9333 68.065 26.43C68.065 25.9966 68.1483 25.64 68.315 25.36C68.4817 25.08 68.7067 24.8583 68.99 24.695C69.2733 24.5316 69.59 24.4083 69.94 24.325C70.29 24.2416 70.6467 24.1783 71.01 24.135C71.47 24.0816 71.8433 24.0383 72.13 24.005C72.4167 23.9683 72.625 23.91 72.755 23.83C72.885 23.75 72.95 23.62 72.95 23.44V23.405C72.95 22.9683 72.8267 22.63 72.58 22.39C72.3367 22.15 71.9733 22.03 71.49 22.03C70.9867 22.03 70.59 22.1416 70.3 22.365C70.0133 22.585 69.815 22.83 69.705 23.1L68.3 22.78C68.4667 22.3133 68.71 21.9366 69.03 21.65C69.3533 21.36 69.725 21.15 70.145 21.02C70.565 20.8866 71.0067 20.82 71.47 20.82C71.7767 20.82 72.1017 20.8566 72.445 20.93C72.7917 21 73.115 21.13 73.415 21.32C73.7183 21.51 73.9667 21.7816 74.16 22.135C74.3533 22.485 74.45 22.94 74.45 23.5V28.6H72.99V27.55H72.93C72.8333 27.7433 72.6883 27.9333 72.495 28.12C72.3017 28.3066 72.0533 28.4616 71.75 28.585C71.4467 28.7083 71.0833 28.77 70.66 28.77ZM70.985 27.57C71.3983 27.57 71.7517 27.4883 72.045 27.325C72.3417 27.1616 72.5667 26.9483 72.72 26.685C72.8767 26.4183 72.955 26.1333 72.955 25.83V24.84C72.9017 24.8933 72.7983 24.9433 72.645 24.99C72.495 25.0333 72.3233 25.0716 72.13 25.105C71.9367 25.135 71.7483 25.1633 71.565 25.19C71.3817 25.2133 71.2283 25.2333 71.105 25.25C70.815 25.2866 70.55 25.3483 70.31 25.435C70.0733 25.5216 69.8833 25.6466 69.74 25.81C69.6 25.97 69.53 26.1833 69.53 26.45C69.53 26.82 69.6667 27.1 69.94 27.29C70.2133 27.4766 70.5617 27.57 70.985 27.57ZM80.0962 20.92V22.12H75.7562V20.92H80.0962ZM76.9462 28.6V20.03C76.9462 19.55 77.0512 19.1516 77.2612 18.835C77.4712 18.515 77.7496 18.2766 78.0962 18.12C78.4429 17.96 78.8196 17.88 79.2262 17.88C79.5262 17.88 79.7829 17.905 79.9962 17.955C80.2096 18.0016 80.3679 18.045 80.4712 18.085L80.1212 19.295C80.0512 19.275 79.9612 19.2516 79.8512 19.225C79.7412 19.195 79.6079 19.18 79.4512 19.18C79.0879 19.18 78.8279 19.27 78.6712 19.45C78.5179 19.63 78.4412 19.89 78.4412 20.23V28.6H76.9462ZM85.2937 20.92V22.12H80.9537V20.92H85.2937ZM82.1437 28.6V20.03C82.1437 19.55 82.2487 19.1516 82.4587 18.835C82.6687 18.515 82.9471 18.2766 83.2937 18.12C83.6404 17.96 84.0171 17.88 84.4237 17.88C84.7237 17.88 84.9804 17.905 85.1937 17.955C85.4071 18.0016 85.5654 18.045 85.6687 18.085L85.3187 19.295C85.2487 19.275 85.1587 19.2516 85.0487 19.225C84.9387 19.195 84.8054 19.18 84.6487 19.18C84.2854 19.18 84.0254 19.27 83.8687 19.45C83.7154 19.63 83.6387 19.89 83.6387 20.23V28.6H82.1437ZM90.6825 18.36H92.5575L95.8175 26.32H95.9375L99.1975 18.36H101.072V28.6H99.6025V21.19H99.5075L96.4875 28.585H95.2675L92.2475 21.185H92.1525V28.6H90.6825V18.36ZM105.434 28.77C104.947 28.77 104.507 28.68 104.114 28.5C103.72 28.3166 103.409 28.0516 103.179 27.705C102.952 27.3583 102.839 26.9333 102.839 26.43C102.839 25.9966 102.922 25.64 103.089 25.36C103.255 25.08 103.48 24.8583 103.764 24.695C104.047 24.5316 104.364 24.4083 104.714 24.325C105.064 24.2416 105.42 24.1783 105.784 24.135C106.244 24.0816 106.617 24.0383 106.904 24.005C107.19 23.9683 107.399 23.91 107.529 23.83C107.659 23.75 107.724 23.62 107.724 23.44V23.405C107.724 22.9683 107.6 22.63 107.354 22.39C107.11 22.15 106.747 22.03 106.264 22.03C105.76 22.03 105.364 22.1416 105.074 22.365C104.787 22.585 104.589 22.83 104.479 23.1L103.074 22.78C103.24 22.3133 103.484 21.9366 103.804 21.65C104.127 21.36 104.499 21.15 104.919 21.02C105.339 20.8866 105.78 20.82 106.244 20.82C106.55 20.82 106.875 20.8566 107.219 20.93C107.565 21 107.889 21.13 108.189 21.32C108.492 21.51 108.74 21.7816 108.934 22.135C109.127 22.485 109.224 22.94 109.224 23.5V28.6H107.764V27.55H107.704C107.607 27.7433 107.462 27.9333 107.269 28.12C107.075 28.3066 106.827 28.4616 106.524 28.585C106.22 28.7083 105.857 28.77 105.434 28.77ZM105.759 27.57C106.172 27.57 106.525 27.4883 106.819 27.325C107.115 27.1616 107.34 26.9483 107.494 26.685C107.65 26.4183 107.729 26.1333 107.729 25.83V24.84C107.675 24.8933 107.572 24.9433 107.419 24.99C107.269 25.0333 107.097 25.0716 106.904 25.105C106.71 25.135 106.522 25.1633 106.339 25.19C106.155 25.2133 106.002 25.2333 105.879 25.25C105.589 25.2866 105.324 25.3483 105.084 25.435C104.847 25.5216 104.657 25.6466 104.514 25.81C104.374 25.97 104.304 26.1833 104.304 26.45C104.304 26.82 104.44 27.1 104.714 27.29C104.987 27.4766 105.335 27.57 105.759 27.57ZM112.71 24.04V28.6H111.215V20.92H112.65V22.17H112.745C112.922 21.7633 113.198 21.4366 113.575 21.19C113.955 20.9433 114.433 20.82 115.01 20.82C115.533 20.82 115.992 20.93 116.385 21.15C116.778 21.3666 117.083 21.69 117.3 22.12C117.517 22.55 117.625 23.0816 117.625 23.715V28.6H116.13V23.895C116.13 23.3383 115.985 22.9033 115.695 22.59C115.405 22.2733 115.007 22.115 114.5 22.115C114.153 22.115 113.845 22.19 113.575 22.34C113.308 22.49 113.097 22.71 112.94 23C112.787 23.2866 112.71 23.6333 112.71 24.04ZM121.865 28.77C121.378 28.77 120.938 28.68 120.545 28.5C120.152 28.3166 119.84 28.0516 119.61 27.705C119.383 27.3583 119.27 26.9333 119.27 26.43C119.27 25.9966 119.353 25.64 119.52 25.36C119.687 25.08 119.912 24.8583 120.195 24.695C120.478 24.5316 120.795 24.4083 121.145 24.325C121.495 24.2416 121.852 24.1783 122.215 24.135C122.675 24.0816 123.048 24.0383 123.335 24.005C123.622 23.9683 123.83 23.91 123.96 23.83C124.09 23.75 124.155 23.62 124.155 23.44V23.405C124.155 22.9683 124.032 22.63 123.785 22.39C123.542 22.15 123.178 22.03 122.695 22.03C122.192 22.03 121.795 22.1416 121.505 22.365C121.218 22.585 121.02 22.83 120.91 23.1L119.505 22.78C119.672 22.3133 119.915 21.9366 120.235 21.65C120.558 21.36 120.93 21.15 121.35 21.02C121.77 20.8866 122.212 20.82 122.675 20.82C122.982 20.82 123.307 20.8566 123.65 20.93C123.997 21 124.32 21.13 124.62 21.32C124.923 21.51 125.172 21.7816 125.365 22.135C125.558 22.485 125.655 22.94 125.655 23.5V28.6H124.195V27.55H124.135C124.038 27.7433 123.893 27.9333 123.7 28.12C123.507 28.3066 123.258 28.4616 122.955 28.585C122.652 28.7083 122.288 28.77 121.865 28.77ZM122.19 27.57C122.603 27.57 122.957 27.4883 123.25 27.325C123.547 27.1616 123.772 26.9483 123.925 26.685C124.082 26.4183 124.16 26.1333 124.16 25.83V24.84C124.107 24.8933 124.003 24.9433 123.85 24.99C123.7 25.0333 123.528 25.0716 123.335 25.105C123.142 25.135 122.953 25.1633 122.77 25.19C122.587 25.2133 122.433 25.2333 122.31 25.25C122.02 25.2866 121.755 25.3483 121.515 25.435C121.278 25.5216 121.088 25.6466 120.945 25.81C120.805 25.97 120.735 26.1833 120.735 26.45C120.735 26.82 120.872 27.1 121.145 27.29C121.418 27.4766 121.767 27.57 122.19 27.57ZM130.866 31.64C130.256 31.64 129.731 31.56 129.291 31.4C128.855 31.24 128.498 31.0283 128.221 30.765C127.945 30.5016 127.738 30.2133 127.601 29.9L128.886 29.37C128.976 29.5166 129.096 29.6716 129.246 29.835C129.4 30.0016 129.606 30.1433 129.866 30.26C130.13 30.3766 130.468 30.435 130.881 30.435C131.448 30.435 131.916 30.2966 132.286 30.02C132.656 29.7466 132.841 29.31 132.841 28.71V27.2H132.746C132.656 27.3633 132.526 27.545 132.356 27.745C132.19 27.945 131.96 28.1183 131.666 28.265C131.373 28.4116 130.991 28.485 130.521 28.485C129.915 28.485 129.368 28.3433 128.881 28.06C128.398 27.7733 128.015 27.3516 127.731 26.795C127.451 26.235 127.311 25.5466 127.311 24.73C127.311 23.9133 127.45 23.2133 127.726 22.63C128.006 22.0466 128.39 21.6 128.876 21.29C129.363 20.9766 129.915 20.82 130.531 20.82C131.008 20.82 131.393 20.9 131.686 21.06C131.98 21.2166 132.208 21.4 132.371 21.61C132.538 21.82 132.666 22.005 132.756 22.165H132.866V20.92H134.331V28.77C134.331 29.43 134.178 29.9716 133.871 30.395C133.565 30.8183 133.15 31.1316 132.626 31.335C132.106 31.5383 131.52 31.64 130.866 31.64ZM130.851 27.245C131.281 27.245 131.645 27.145 131.941 26.945C132.241 26.7416 132.468 26.4516 132.621 26.075C132.778 25.695 132.856 25.24 132.856 24.71C132.856 24.1933 132.78 23.7383 132.626 23.345C132.473 22.9516 132.248 22.645 131.951 22.425C131.655 22.2016 131.288 22.09 130.851 22.09C130.401 22.09 130.026 22.2066 129.726 22.44C129.426 22.67 129.2 22.9833 129.046 23.38C128.896 23.7766 128.821 24.22 128.821 24.71C128.821 25.2133 128.898 25.655 129.051 26.035C129.205 26.415 129.431 26.7116 129.731 26.925C130.035 27.1383 130.408 27.245 130.851 27.245ZM139.646 28.755C138.89 28.755 138.238 28.5933 137.691 28.27C137.148 27.9433 136.728 27.485 136.431 26.895C136.138 26.3016 135.991 25.6066 135.991 24.81C135.991 24.0233 136.138 23.33 136.431 22.73C136.728 22.13 137.141 21.6616 137.671 21.325C138.205 20.9883 138.828 20.82 139.541 20.82C139.975 20.82 140.395 20.8916 140.801 21.035C141.208 21.1783 141.573 21.4033 141.896 21.71C142.22 22.0166 142.475 22.415 142.661 22.905C142.848 23.3916 142.941 23.9833 142.941 24.68V25.21H136.836V24.09H141.476C141.476 23.6966 141.396 23.3483 141.236 23.045C141.076 22.7383 140.851 22.4966 140.561 22.32C140.275 22.1433 139.938 22.055 139.551 22.055C139.131 22.055 138.765 22.1583 138.451 22.365C138.141 22.5683 137.901 22.835 137.731 23.165C137.565 23.4916 137.481 23.8466 137.481 24.23V25.105C137.481 25.6183 137.571 26.055 137.751 26.415C137.935 26.775 138.19 27.05 138.516 27.24C138.843 27.4266 139.225 27.52 139.661 27.52C139.945 27.52 140.203 27.48 140.436 27.4C140.67 27.3166 140.871 27.1933 141.041 27.03C141.211 26.8666 141.341 26.665 141.431 26.425L142.846 26.68C142.733 27.0966 142.53 27.4616 142.236 27.775C141.946 28.085 141.581 28.3266 141.141 28.5C140.705 28.67 140.206 28.755 139.646 28.755ZM144.6 28.6V20.92H146.035V22.17H146.13C146.29 21.7466 146.552 21.4166 146.915 21.18C147.278 20.94 147.713 20.82 148.22 20.82C148.733 20.82 149.163 20.94 149.51 21.18C149.86 21.42 150.118 21.75 150.285 22.17H150.365C150.548 21.76 150.84 21.4333 151.24 21.19C151.64 20.9433 152.117 20.82 152.67 20.82C153.367 20.82 153.935 21.0383 154.375 21.475C154.818 21.9116 155.04 22.57 155.04 23.45V28.6H153.545V23.59C153.545 23.07 153.403 22.6933 153.12 22.46C152.837 22.2266 152.498 22.11 152.105 22.11C151.618 22.11 151.24 22.26 150.97 22.56C150.7 22.8566 150.565 23.2383 150.565 23.705V28.6H149.075V23.495C149.075 23.0783 148.945 22.7433 148.685 22.49C148.425 22.2366 148.087 22.11 147.67 22.11C147.387 22.11 147.125 22.185 146.885 22.335C146.648 22.4816 146.457 22.6866 146.31 22.95C146.167 23.2133 146.095 23.5183 146.095 23.865V28.6H144.6ZM160.354 28.755C159.597 28.755 158.945 28.5933 158.399 28.27C157.855 27.9433 157.435 27.485 157.139 26.895C156.845 26.3016 156.699 25.6066 156.699 24.81C156.699 24.0233 156.845 23.33 157.139 22.73C157.435 22.13 157.849 21.6616 158.379 21.325C158.912 20.9883 159.535 20.82 160.249 20.82C160.682 20.82 161.102 20.8916 161.509 21.035C161.915 21.1783 162.28 21.4033 162.604 21.71C162.927 22.0166 163.182 22.415 163.369 22.905C163.555 23.3916 163.649 23.9833 163.649 24.68V25.21H157.544V24.09H162.184C162.184 23.6966 162.104 23.3483 161.944 23.045C161.784 22.7383 161.559 22.4966 161.269 22.32C160.982 22.1433 160.645 22.055 160.259 22.055C159.839 22.055 159.472 22.1583 159.159 22.365C158.849 22.5683 158.609 22.835 158.439 23.165C158.272 23.4916 158.189 23.8466 158.189 24.23V25.105C158.189 25.6183 158.279 26.055 158.459 26.415C158.642 26.775 158.897 27.05 159.224 27.24C159.55 27.4266 159.932 27.52 160.369 27.52C160.652 27.52 160.91 27.48 161.144 27.4C161.377 27.3166 161.579 27.1933 161.749 27.03C161.919 26.8666 162.049 26.665 162.139 26.425L163.554 26.68C163.44 27.0966 163.237 27.4616 162.944 27.775C162.654 28.085 162.289 28.3266 161.849 28.5C161.412 28.67 160.914 28.755 160.354 28.755ZM166.802 24.04V28.6H165.307V20.92H166.742V22.17H166.837C167.014 21.7633 167.291 21.4366 167.667 21.19C168.047 20.9433 168.526 20.82 169.102 20.82C169.626 20.82 170.084 20.93 170.477 21.15C170.871 21.3666 171.176 21.69 171.392 22.12C171.609 22.55 171.717 23.0816 171.717 23.715V28.6H170.222V23.895C170.222 23.3383 170.077 22.9033 169.787 22.59C169.497 22.2733 169.099 22.115 168.592 22.115C168.246 22.115 167.937 22.19 167.667 22.34C167.401 22.49 167.189 22.71 167.032 23C166.879 23.2866 166.802 23.6333 166.802 24.04ZM177.307 20.92V22.12H173.112V20.92H177.307ZM174.237 19.08H175.732V26.345C175.732 26.635 175.776 26.8533 175.862 27C175.949 27.1433 176.061 27.2416 176.197 27.295C176.337 27.345 176.489 27.37 176.652 27.37C176.772 27.37 176.877 27.3616 176.967 27.345C177.057 27.3283 177.127 27.315 177.177 27.305L177.447 28.54C177.361 28.5733 177.237 28.6066 177.077 28.64C176.917 28.6766 176.717 28.6966 176.477 28.7C176.084 28.7066 175.717 28.6366 175.377 28.49C175.037 28.3433 174.762 28.1166 174.552 27.81C174.342 27.5033 174.237 27.1183 174.237 26.655V19.08Z" fill="#3B3B3B"/>
<path d="M207.449 27.7188L208.639 26.5291C208.743 26.4242 208.868 26.341 209.004 26.2842C209.141 26.2274 209.288 26.1982 209.436 26.1982C209.584 26.1982 209.731 26.2274 209.867 26.2842C210.004 26.341 210.128 26.4242 210.233 26.5291L215.536 31.8325L217.339 27.13L217.351 27.0991C217.466 26.8314 217.657 26.6034 217.901 26.4436C218.144 26.2837 218.43 26.199 218.721 26.2H218.794C219.098 26.2128 219.39 26.3185 219.632 26.503C219.873 26.6874 220.053 26.9417 220.145 27.2313L225.045 42.2388C225.131 42.5014 225.143 42.7827 225.078 43.0514C225.014 43.3202 224.877 43.5659 224.681 43.7613C224.486 43.9566 224.24 44.0941 223.972 44.1583C223.703 44.2225 223.422 44.211 223.159 44.125L208.151 39.2247C207.865 39.1288 207.614 38.9484 207.431 38.7072C207.249 38.466 207.143 38.1752 207.129 37.8731C207.115 37.571 207.192 37.2716 207.351 37.0143C207.51 36.7569 207.743 36.5536 208.019 36.431L208.05 36.4188L212.753 34.6122L207.449 29.3097C207.238 29.0988 207.12 28.8126 207.12 28.5143C207.12 28.2159 207.238 27.9298 207.449 27.7188Z" fill="#008E2C"/>
</svg>
