<svg width="17" height="14" viewBox="0 0 17 14" fill="none" xmlns="http://www.w3.org/2000/svg">
<path d="M16.4838 1.5451C15.8656 1.82 15.2131 1.99181 14.5263 2.0949C15.2131 1.68255 15.7626 1.02966 16.003 0.239318C15.3505 0.617307 14.6293 0.892208 13.8395 1.06402C13.2213 0.411131 12.3285 -0.0012207 11.3669 -0.0012207C9.5125 -0.0012207 8.00149 1.51073 8.00149 3.36632C8.00149 3.64122 8.03583 3.88176 8.10451 4.12229C5.32288 3.98484 2.81597 2.6447 1.13326 0.582944C0.858529 1.09838 0.686823 1.64819 0.686823 2.26671C0.686823 3.43504 1.27062 4.46592 2.19783 5.08445C1.64838 5.05009 1.13326 4.91264 0.652482 4.6721V4.70646C0.652482 6.35587 1.82008 7.73037 3.36543 8.03963C3.0907 8.10836 2.78163 8.14272 2.47256 8.14272C2.26652 8.14272 2.02613 8.10836 1.82008 8.074C2.26652 9.41414 3.5028 10.4107 4.97947 10.4107C3.81187 11.3041 2.36954 11.8539 0.789846 11.8539C0.515117 11.8539 0.240388 11.8539 0 11.8195C1.51101 12.7817 3.26241 13.3315 5.18551 13.3315C11.4013 13.3315 14.801 8.17708 14.801 3.70994C14.801 3.57249 14.801 3.40068 14.801 3.26323C15.4535 2.81651 16.0373 2.23235 16.4838 1.5451Z" fill="#4D4D4D"/>
</svg>
