<svg width="34" height="34" viewBox="0 0 34 34" fill="none" xmlns="http://www.w3.org/2000/svg">
<rect y="0.039978" width="33.12" height="33.12" rx="7.04" fill="#008E2C"/>
<path d="M12.6 22.5399C14.058 22.5399 15.24 21.358 15.24 19.8999C15.24 18.4419 14.058 17.2599 12.6 17.2599C11.1419 17.2599 9.95996 18.4419 9.95996 19.8999C9.95996 21.358 11.1419 22.5399 12.6 22.5399Z" stroke="white" stroke-width="1.76" stroke-linecap="round" stroke-linejoin="round"/>
<path d="M12.6 13.96C14.058 13.96 15.24 12.778 15.24 11.32C15.24 9.86196 14.058 8.67999 12.6 8.67999C11.1419 8.67999 9.95996 9.86196 9.95996 11.32C9.95996 12.778 11.1419 13.96 12.6 13.96Z" stroke="white" stroke-width="1.76" stroke-linecap="round" stroke-linejoin="round"/>
<path d="M20.52 22.5399C21.978 22.5399 23.16 21.358 23.16 19.8999C23.16 18.4419 21.978 17.2599 20.52 17.2599C19.062 17.2599 17.88 18.4419 17.88 19.8999C17.88 21.358 19.062 22.5399 20.52 22.5399Z" stroke="white" stroke-width="1.76" stroke-linecap="round" stroke-linejoin="round"/>
<path d="M8.64001 24.52C9.10109 23.9052 9.69897 23.4062 10.3863 23.0626C11.0736 22.7189 11.8316 22.54 12.6 22.54C13.3685 22.54 14.1264 22.7189 14.8137 23.0626C15.5011 23.4062 16.0989 23.9052 16.56 24.52C17.0211 23.9052 17.619 23.4062 18.3063 23.0626C18.9936 22.7189 19.7516 22.54 20.52 22.54C21.2885 22.54 22.0464 22.7189 22.7337 23.0626C23.4211 23.4062 24.0189 23.9052 24.48 24.52" stroke="white" stroke-width="1.76" stroke-linecap="round" stroke-linejoin="round"/>
<path d="M20.52 13.96C21.978 13.96 23.16 12.778 23.16 11.32C23.16 9.86196 21.978 8.67999 20.52 8.67999C19.062 8.67999 17.88 9.86196 17.88 11.32C17.88 12.778 19.062 13.96 20.52 13.96Z" stroke="white" stroke-width="1.76" stroke-linecap="round" stroke-linejoin="round"/>
<path d="M8.64001 15.94C9.10109 15.3252 9.69897 14.8262 10.3863 14.4825C11.0736 14.1389 11.8316 13.96 12.6 13.96C13.3685 13.96 14.1264 14.1389 14.8137 14.4825C15.5011 14.8262 16.0989 15.3252 16.56 15.94C17.0211 15.3252 17.619 14.8262 18.3063 14.4825C18.9936 14.1389 19.7516 13.96 20.52 13.96C21.2885 13.96 22.0464 14.1389 22.7337 14.4825C23.4211 14.8262 24.0189 15.3252 24.48 15.94" stroke="white" stroke-width="1.76" stroke-linecap="round" stroke-linejoin="round"/>
</svg>
