<svg width="34" height="34" viewBox="0 0 34 34" fill="none" xmlns="http://www.w3.org/2000/svg">
<rect y="0.039978" width="33.12" height="33.12" rx="7.04" fill="#FE7500"/>
<path d="M21.8401 15.94C22.6087 15.9394 23.3668 16.1181 24.0542 16.4618C24.7416 16.8055 25.3394 17.3048 25.8001 17.92" stroke="white" stroke-width="1.76" stroke-linecap="round" stroke-linejoin="round"/>
<path d="M7.32007 17.92C7.78075 17.3048 8.37854 16.8055 9.06597 16.4618C9.75339 16.1181 10.5115 15.9394 11.2801 15.94" stroke="white" stroke-width="1.76" stroke-linecap="round" stroke-linejoin="round"/>
<path d="M16.56 21.22C18.3825 21.22 19.86 19.7425 19.86 17.92C19.86 16.0975 18.3825 14.62 16.56 14.62C14.7375 14.62 13.26 16.0975 13.26 17.92C13.26 19.7425 14.7375 21.22 16.56 21.22Z" stroke="white" stroke-width="1.76" stroke-linecap="round" stroke-linejoin="round"/>
<path d="M11.9399 23.86C12.4137 23.056 13.0891 22.3895 13.8994 21.9265C14.7097 21.4635 15.6267 21.22 16.5599 21.22C17.4932 21.22 18.4102 21.4635 19.2205 21.9265C20.0307 22.3895 20.7062 23.056 21.1799 23.86" stroke="white" stroke-width="1.76" stroke-linecap="round" stroke-linejoin="round"/>
<path d="M19.2825 12.64C19.4059 12.1619 19.6609 11.7281 20.0185 11.3877C20.3761 11.0473 20.822 10.814 21.3056 10.7144C21.7891 10.6147 22.2909 10.6526 22.754 10.8237C23.2171 10.9949 23.6229 11.2925 23.9253 11.6828C24.2278 12.073 24.4147 12.5402 24.4649 13.0314C24.5152 13.5225 24.4267 14.0179 24.2095 14.4613C23.9923 14.9047 23.6551 15.2783 23.2363 15.5397C22.8174 15.801 22.3337 15.9397 21.84 15.94" stroke="white" stroke-width="1.76" stroke-linecap="round" stroke-linejoin="round"/>
<path d="M11.28 15.94C10.7863 15.9397 10.3026 15.801 9.88372 15.5397C9.46487 15.2783 9.12771 14.9047 8.91052 14.4613C8.69333 14.0179 8.60483 13.5225 8.65506 13.0314C8.70528 12.5402 8.89223 12.073 9.19466 11.6828C9.4971 11.2925 9.9029 10.9949 10.366 10.8237C10.8291 10.6526 11.3309 10.6147 11.8144 10.7144C12.298 10.814 12.7439 11.0473 13.1015 11.3877C13.4591 11.7281 13.7141 12.1619 13.8375 12.64" stroke="white" stroke-width="1.76" stroke-linecap="round" stroke-linejoin="round"/>
</svg>
