<svg width="19" height="19" viewBox="0 0 19 19" fill="none" xmlns="http://www.w3.org/2000/svg">
<path d="M0.44927 1.71879L1.63896 0.529104C1.74347 0.424225 1.86767 0.341009 2.00441 0.284229C2.14116 0.227448 2.28777 0.198217 2.43583 0.198217C2.5839 0.198217 2.73051 0.227448 2.86725 0.284229C3.004 0.341009 3.12819 0.424225 3.23271 0.529104L8.53615 5.83254L10.339 1.13004L10.3511 1.09911C10.4661 0.831417 10.6572 0.603449 10.9008 0.443588C11.1443 0.283726 11.4295 0.199028 11.7208 0.200043H11.794C12.0977 0.212769 12.3902 0.318516 12.6318 0.50297C12.8734 0.687422 13.0525 0.941671 13.1449 1.23129L18.0452 16.2388C18.1312 16.5014 18.1427 16.7827 18.0784 17.0514C18.0142 17.3202 17.8768 17.5659 17.6814 17.7613C17.486 17.9566 17.2403 18.0941 16.9716 18.1583C16.7028 18.2225 16.4216 18.211 16.159 18.125L1.15146 13.2247C0.864634 13.1288 0.613512 12.9484 0.431046 12.7072C0.248577 12.466 0.14329 12.1752 0.128994 11.8731C0.1147 11.571 0.192068 11.2716 0.350945 11.0143C0.509821 10.7569 0.742786 10.5536 1.01927 10.431L1.05021 10.4188L5.75271 8.61223L0.44927 3.30973C0.238308 3.09875 0.119793 2.81262 0.119793 2.51426C0.119793 2.21591 0.238308 1.92977 0.44927 1.71879Z" fill="#008E2C"/>
</svg>
