<svg width="44" height="44" viewBox="0 0 44 44" fill="none" xmlns="http://www.w3.org/2000/svg">
<path d="M31.625 5.5H12.375C10.9163 5.5 9.51736 6.07946 8.48591 7.11091C7.45446 8.14236 6.875 9.54131 6.875 11V35.75C6.875 36.4793 7.16473 37.1788 7.68046 37.6945C8.19618 38.2103 8.89565 38.5 9.625 38.5H13.75C14.4793 38.5 15.1788 38.2103 15.6945 37.6945C16.2103 37.1788 16.5 36.4793 16.5 35.75V33H27.5V35.75C27.5 36.4793 27.7897 37.1788 28.3055 37.6945C28.8212 38.2103 29.5207 38.5 30.25 38.5H34.375C35.1043 38.5 35.8038 38.2103 36.3195 37.6945C36.8353 37.1788 37.125 36.4793 37.125 35.75V11C37.125 9.54131 36.5455 8.14236 35.5141 7.11091C34.4826 6.07946 33.0837 5.5 31.625 5.5ZM9.625 30.25V20.625H34.375V30.25H9.625ZM9.625 13.75H34.375V17.875H9.625V13.75ZM12.375 8.25H31.625C32.3543 8.25 33.0538 8.53973 33.5695 9.05546C34.0853 9.57118 34.375 10.2707 34.375 11H9.625C9.625 10.2707 9.91473 9.57118 10.4305 9.05546C10.9462 8.53973 11.6457 8.25 12.375 8.25ZM13.75 35.75H9.625V33H13.75V35.75ZM30.25 35.75V33H34.375V35.75H30.25ZM17.875 25.4375C17.875 25.8454 17.754 26.2442 17.5274 26.5834C17.3008 26.9225 16.9787 27.1869 16.6018 27.343C16.2249 27.4991 15.8102 27.54 15.4101 27.4604C15.01 27.3808 14.6425 27.1844 14.3541 26.8959C14.0656 26.6075 13.8692 26.24 13.7896 25.8399C13.71 25.4398 13.7509 25.0251 13.907 24.6482C14.0631 24.2713 14.3275 23.9492 14.6666 23.7226C15.0058 23.496 15.4046 23.375 15.8125 23.375C16.3595 23.375 16.8841 23.5923 17.2709 23.9791C17.6577 24.3659 17.875 24.8905 17.875 25.4375ZM30.25 25.4375C30.25 25.8454 30.129 26.2442 29.9024 26.5834C29.6758 26.9225 29.3537 27.1869 28.9768 27.343C28.5999 27.4991 28.1852 27.54 27.7851 27.4604C27.385 27.3808 27.0175 27.1844 26.7291 26.8959C26.4406 26.6075 26.2442 26.24 26.1646 25.8399C26.085 25.4398 26.1259 25.0251 26.282 24.6482C26.4381 24.2713 26.7025 23.9492 27.0416 23.7226C27.3808 23.496 27.7796 23.375 28.1875 23.375C28.7345 23.375 29.2591 23.5923 29.6459 23.9791C30.0327 24.3659 30.25 24.8905 30.25 25.4375ZM42.625 13.75V17.875C42.625 18.2397 42.4801 18.5894 42.2223 18.8473C41.9644 19.1051 41.6147 19.25 41.25 19.25C40.8853 19.25 40.5356 19.1051 40.2777 18.8473C40.0199 18.5894 39.875 18.2397 39.875 17.875V13.75C39.875 13.3853 40.0199 13.0356 40.2777 12.7777C40.5356 12.5199 40.8853 12.375 41.25 12.375C41.6147 12.375 41.9644 12.5199 42.2223 12.7777C42.4801 13.0356 42.625 13.3853 42.625 13.75ZM4.125 13.75V17.875C4.125 18.2397 3.98013 18.5894 3.72227 18.8473C3.46441 19.1051 3.11467 19.25 2.75 19.25C2.38533 19.25 2.03559 19.1051 1.77773 18.8473C1.51987 18.5894 1.375 18.2397 1.375 17.875V13.75C1.375 13.3853 1.51987 13.0356 1.77773 12.7777C2.03559 12.5199 2.38533 12.375 2.75 12.375C3.11467 12.375 3.46441 12.5199 3.72227 12.7777C3.98013 13.0356 4.125 13.3853 4.125 13.75Z" fill="#333333"/>
</svg>
