<svg width="44" height="44" viewBox="0 0 44 44" fill="none" xmlns="http://www.w3.org/2000/svg">
<path d="M38.5 11H26.5839L21.8161 7.425C21.3394 7.06931 20.7609 6.87648 20.1661 6.875H12.375C11.6457 6.875 10.9462 7.16473 10.4305 7.68046C9.91473 8.19618 9.625 8.89565 9.625 9.625V12.375H6.875C6.14565 12.375 5.44618 12.6647 4.93046 13.1805C4.41473 13.6962 4.125 14.3957 4.125 15.125V34.375C4.125 35.1043 4.41473 35.8038 4.93046 36.3195C5.44618 36.8353 6.14565 37.125 6.875 37.125H33.153C33.8415 37.1241 34.5015 36.8502 34.9883 36.3633C35.4752 35.8765 35.7491 35.2165 35.75 34.528V31.625H38.653C39.3415 31.6241 40.0015 31.3502 40.4883 30.8633C40.9752 30.3765 41.2491 29.7165 41.25 29.028V13.75C41.25 13.0207 40.9603 12.3212 40.4445 11.8055C39.9288 11.2897 39.2293 11 38.5 11ZM33 34.375H6.875V15.125H14.6661L19.8 18.975C20.038 19.1535 20.3275 19.25 20.625 19.25H33V34.375ZM38.5 28.875H35.75V19.25C35.75 18.5207 35.4603 17.8212 34.9445 17.3055C34.4288 16.7897 33.7293 16.5 33 16.5H21.0839L16.3161 12.925C15.8394 12.5693 15.2609 12.3765 14.6661 12.375H12.375V9.625H20.1661L25.3 13.475C25.538 13.6535 25.8275 13.75 26.125 13.75H38.5V28.875Z" fill="#333333"/>
</svg>
