<svg width="44" height="44" viewBox="0 0 44 44" fill="none" xmlns="http://www.w3.org/2000/svg">
<path d="M21.9998 13.7498C20.3681 13.7498 18.7731 14.2337 17.4164 15.1402C16.0597 16.0467 15.0023 17.3352 14.3778 18.8427C13.7534 20.3502 13.59 22.009 13.9084 23.6093C14.2267 25.2097 15.0124 26.6797 16.1662 27.8335C17.32 28.9872 18.79 29.773 20.3903 30.0913C21.9907 30.4096 23.6495 30.2463 25.157 29.6218C26.6645 28.9974 27.9529 27.94 28.8595 26.5833C29.766 25.2266 30.2498 23.6315 30.2498 21.9998C30.2476 19.8125 29.3776 17.7154 27.831 16.1687C26.2843 14.622 24.1872 13.7521 21.9998 13.7498ZM21.9998 27.4998C20.912 27.4998 19.8487 27.1773 18.9442 26.5729C18.0397 25.9686 17.3348 25.1096 16.9185 24.1046C16.5022 23.0996 16.3933 21.9937 16.6055 20.9268C16.8177 19.8599 17.3416 18.8799 18.1107 18.1107C18.8799 17.3416 19.8599 16.8177 20.9268 16.6055C21.9937 16.3933 23.0996 16.5022 24.1046 16.9185C25.1096 17.3348 25.9686 18.0397 26.5729 18.9442C27.1773 19.8487 27.4998 20.912 27.4998 21.9998C27.4998 23.4585 26.9204 24.8575 25.8889 25.8889C24.8575 26.9204 23.4585 27.4998 21.9998 27.4998ZM37.1248 22.3711C37.1317 22.1236 37.1317 21.8761 37.1248 21.6286L39.6892 18.4248C39.8237 18.2566 39.9167 18.0592 39.9609 17.8484C40.0051 17.6376 39.9992 17.4194 39.9436 17.2114C39.5232 15.6312 38.8943 14.114 38.0736 12.6997C37.9661 12.5146 37.8169 12.3572 37.6379 12.2399C37.4589 12.1226 37.2549 12.0488 37.0423 12.0242L32.9655 11.5705C32.7959 11.3917 32.624 11.2198 32.4498 11.0548L31.9686 6.96765C31.9438 6.75489 31.8697 6.55085 31.7521 6.37181C31.6346 6.19277 31.4768 6.04367 31.2914 5.9364C29.8766 5.11715 28.3595 4.48892 26.7797 4.06812C26.5715 4.01277 26.3532 4.00711 26.1424 4.05159C25.9317 4.09607 25.7343 4.18945 25.5662 4.32421L22.3711 6.87483C22.1236 6.87483 21.8761 6.87483 21.6286 6.87483L18.4248 4.31562C18.2566 4.18115 18.0592 4.08808 17.8484 4.0439C17.6376 3.99972 17.4194 4.00566 17.2114 4.06124C15.6314 4.48238 14.1143 5.1112 12.6997 5.93124C12.5146 6.03871 12.3572 6.18789 12.2399 6.36692C12.1226 6.54596 12.0488 6.74989 12.0242 6.96249L11.5705 11.0462C11.3917 11.217 11.2198 11.3888 11.0548 11.5619L6.96765 12.0311C6.75489 12.0558 6.55085 12.13 6.37181 12.2475C6.19277 12.3651 6.04367 12.5229 5.9364 12.7083C5.11715 14.1231 4.48892 15.6402 4.06812 17.22C4.01277 17.4282 4.00711 17.6464 4.05159 17.8572C4.09607 18.068 4.18945 18.2654 4.32421 18.4334L6.87483 21.6286C6.87483 21.8761 6.87483 22.1236 6.87483 22.3711L4.31562 25.5748C4.18115 25.743 4.08808 25.9405 4.0439 26.1513C3.99972 26.362 4.00566 26.5802 4.06124 26.7883C4.48163 28.3685 5.11048 29.8857 5.93124 31.3C6.03871 31.4851 6.18789 31.6425 6.36692 31.7598C6.54596 31.877 6.74989 31.9509 6.96249 31.9755L11.0394 32.4292C11.2101 32.608 11.382 32.7798 11.555 32.9448L12.0311 37.032C12.0558 37.2448 12.13 37.4488 12.2475 37.6279C12.3651 37.8069 12.5229 37.956 12.7083 38.0633C14.1231 38.8825 15.6402 39.5107 17.22 39.9316C17.4282 39.9869 17.6464 39.9926 17.8572 39.9481C18.068 39.9036 18.2654 39.8102 18.4334 39.6755L21.6286 37.1248C21.8761 37.1317 22.1236 37.1317 22.3711 37.1248L25.5748 39.6892C25.743 39.8237 25.9405 39.9167 26.1513 39.9609C26.362 40.0051 26.5802 39.9992 26.7883 39.9436C28.3685 39.5232 29.8857 38.8943 31.3 38.0736C31.4851 37.9661 31.6425 37.8169 31.7598 37.6379C31.877 37.4589 31.9509 37.2549 31.9755 37.0423L32.4292 32.9655C32.608 32.7959 32.7798 32.624 32.9448 32.4498L37.032 31.9686C37.2448 31.9438 37.4488 31.8697 37.6279 31.7521C37.8069 31.6346 37.956 31.4768 38.0633 31.2914C38.8825 29.8766 39.5107 28.3595 39.9316 26.7797C39.9869 26.5715 39.9926 26.3532 39.9481 26.1424C39.9036 25.9317 39.8102 25.7343 39.6755 25.5662L37.1248 22.3711ZM34.3576 21.2539C34.3869 21.7508 34.3869 22.2489 34.3576 22.7458C34.3372 23.0859 34.4437 23.4216 34.6567 23.6876L37.0956 26.735C36.8158 27.6244 36.4574 28.4872 36.0248 29.3131L32.1405 29.7531C31.8022 29.7907 31.4899 29.9523 31.2639 30.2069C30.9331 30.579 30.5807 30.9313 30.2086 31.2622C29.9541 31.4881 29.7924 31.8005 29.7548 32.1387L29.3234 36.0197C28.4976 36.4525 27.6348 36.8108 26.7453 37.0905L23.6962 34.6516C23.4523 34.4566 23.1492 34.3505 22.8369 34.3508H22.7544C22.2575 34.38 21.7594 34.38 21.2625 34.3508C20.9223 34.3303 20.5867 34.4369 20.3206 34.6498L17.2647 37.0905C16.3753 36.8106 15.5125 36.4523 14.6866 36.0197L14.2466 32.1405C14.209 31.8022 14.0473 31.4899 13.7928 31.2639C13.4207 30.9331 13.0683 30.5807 12.7375 30.2086C12.5115 29.9541 12.1992 29.7924 11.8609 29.7548L7.97999 29.3217C7.5472 28.4958 7.18885 27.6331 6.90921 26.7436L9.34812 23.6945C9.56108 23.4285 9.66765 23.0928 9.64718 22.7526C9.61796 22.2558 9.61796 21.7576 9.64718 21.2608C9.66765 20.9206 9.56108 20.5849 9.34812 20.3189L6.90921 17.2647C7.18906 16.3753 7.5474 15.5125 7.97999 14.6866L11.8592 14.2466C12.1975 14.209 12.5098 14.0473 12.7358 13.7928C13.0666 13.4207 13.419 13.0683 13.7911 12.7375C14.0466 12.5114 14.209 12.1983 14.2466 11.8592L14.678 7.97999C15.5038 7.5472 16.3666 7.18885 17.2561 6.90921L20.3051 9.34812C20.5712 9.56108 20.9069 9.66765 21.247 9.64718C21.7439 9.61796 22.242 9.61796 22.7389 9.64718C23.0791 9.66765 23.4147 9.56108 23.6808 9.34812L26.735 6.90921C27.6244 7.18906 28.4872 7.5474 29.3131 7.97999L29.7531 11.8592C29.7907 12.1975 29.9523 12.5098 30.2069 12.7358C30.579 13.0666 30.9313 13.419 31.2622 13.7911C31.4881 14.0456 31.8005 14.2073 32.1387 14.2448L36.0197 14.6762C36.4525 15.5021 36.8108 16.3649 37.0905 17.2544L34.6516 20.3034C34.4365 20.5717 34.3298 20.9108 34.3525 21.2539H34.3576Z" fill="#333333"/>
</svg>
