<svg width="44" height="44" viewBox="0 0 44 44" fill="none" xmlns="http://www.w3.org/2000/svg">
<path d="M38.5 34.375H37.125V6.875C37.125 6.51033 36.9801 6.16059 36.7223 5.90273C36.4644 5.64487 36.1147 5.5 35.75 5.5H26.125C25.7603 5.5 25.4106 5.64487 25.1527 5.90273C24.8949 6.16059 24.75 6.51033 24.75 6.875V13.75H16.5C16.1353 13.75 15.7856 13.8949 15.5277 14.1527C15.2699 14.4106 15.125 14.7603 15.125 15.125V22H8.25C7.88533 22 7.53559 22.1449 7.27773 22.4027C7.01987 22.6606 6.875 23.0103 6.875 23.375V34.375H5.5C5.13533 34.375 4.78559 34.5199 4.52773 34.7777C4.26987 35.0356 4.125 35.3853 4.125 35.75C4.125 36.1147 4.26987 36.4644 4.52773 36.7223C4.78559 36.9801 5.13533 37.125 5.5 37.125H38.5C38.8647 37.125 39.2144 36.9801 39.4723 36.7223C39.7301 36.4644 39.875 36.1147 39.875 35.75C39.875 35.3853 39.7301 35.0356 39.4723 34.7777C39.2144 34.5199 38.8647 34.375 38.5 34.375ZM27.5 8.25H34.375V34.375H27.5V8.25ZM17.875 16.5H24.75V34.375H17.875V16.5ZM9.625 24.75H15.125V34.375H9.625V24.75Z" fill="#333333"/>
</svg>
