<svg width="44" height="44" viewBox="0 0 44 44" fill="none" xmlns="http://www.w3.org/2000/svg">
<path d="M38.445 11.3691L23.32 3.09335C22.9159 2.87006 22.4617 2.75293 22 2.75293C21.5383 2.75293 21.0841 2.87006 20.68 3.09335L5.555 11.3726C5.12306 11.6089 4.76249 11.9569 4.51095 12.3801C4.25941 12.8034 4.12612 13.2865 4.125 13.7788V30.2169C4.12612 30.7093 4.25941 31.1924 4.51095 31.6156C4.76249 32.0389 5.12306 32.3869 5.555 32.6232L20.68 40.9024C21.0841 41.1257 21.5383 41.2428 22 41.2428C22.4617 41.2428 22.9159 41.1257 23.32 40.9024L38.445 32.6232C38.8769 32.3869 39.2375 32.0389 39.4891 31.6156C39.7406 31.1924 39.8739 30.7093 39.875 30.2169V13.7805C39.8748 13.2873 39.742 12.8032 39.4904 12.3789C39.2388 11.9547 38.8777 11.6059 38.445 11.3691ZM22 5.4996L35.8084 13.0621L30.6917 15.8637L16.8816 8.30117L22 5.4996ZM22 20.6246L8.19156 13.0621L14.0181 9.8721L27.8266 17.4346L22 20.6246ZM6.875 15.4684L20.625 22.993V37.7382L6.875 30.2187V15.4684ZM37.125 30.2118L23.375 37.7382V22.9999L28.875 19.9904V26.1246C28.875 26.4893 29.0199 26.839 29.2777 27.0969C29.5356 27.3547 29.8853 27.4996 30.25 27.4996C30.6147 27.4996 30.9644 27.3547 31.2223 27.0969C31.4801 26.839 31.625 26.4893 31.625 26.1246V18.4848L37.125 15.4684V30.2101V30.2118Z" fill="#333333"/>
</svg>
