<svg width="86" height="29" viewBox="0 0 86 29" fill="none" xmlns="http://www.w3.org/2000/svg">
<mask id="mask0_11513_438" style="mask-type:luminance" maskUnits="userSpaceOnUse" x="0" y="0" width="86" height="29">
<path d="M0.115234 0.5H85.9822V28.5H0.115234V0.5Z" fill="white"/>
</mask>
<g mask="url(#mask0_11513_438)">
<path d="M32.9442 20.796H25.5132V7.553H32.5492C33.5642 7.553 34.4002 7.672 35.0592 7.909C35.7312 8.133 36.2322 8.489 36.5612 8.976C36.8912 9.451 37.0552 10.063 37.0552 10.814C37.0552 11.644 36.8312 12.304 36.3832 12.791C35.9352 13.278 35.2572 13.561 34.3482 13.641V13.898C35.4682 13.938 36.2982 14.26 36.8382 14.866C37.3912 15.472 37.6682 16.223 37.6682 17.119C37.6682 17.884 37.4972 18.542 37.1542 19.096C36.8242 19.649 36.3112 20.071 35.6122 20.361C34.9142 20.651 34.0252 20.796 32.9442 20.796ZM29.2282 15.479V17.455H32.8062C33.1622 17.455 33.4322 17.403 33.6162 17.297C33.8012 17.192 33.8932 16.922 33.8932 16.487C33.8932 16.039 33.8072 15.762 33.6362 15.657C33.4652 15.538 33.1882 15.479 32.8062 15.479H29.2282ZM29.2282 10.893V12.593H32.3512C32.7342 12.593 32.9912 12.533 33.1222 12.415C33.2672 12.297 33.3402 12.073 33.3402 11.743C33.3402 11.387 33.2542 11.157 33.0832 11.052C32.9252 10.946 32.6542 10.893 32.2732 10.893H29.2282ZM43.2682 20.993C42.1752 20.993 41.2392 20.789 40.4622 20.38C39.713 19.974 39.1006 19.3554 38.7022 18.602C38.3072 17.824 38.1092 16.895 38.1092 15.815C38.1092 14.695 38.3142 13.733 38.7222 12.929C39.1139 12.1425 39.7433 11.4994 40.5212 11.091C41.3112 10.656 42.2672 10.439 43.3872 10.439C44.4802 10.439 45.3892 10.636 46.1142 11.032C46.8522 11.427 47.3992 11.974 47.7542 12.672C48.1242 13.357 48.3082 14.154 48.3082 15.064C48.3082 15.34 48.2882 15.617 48.2482 15.894C48.2092 16.171 48.1762 16.394 48.1502 16.566H39.6902V14.55H44.9292L44.7702 14.649C44.7875 14.4313 44.7468 14.2129 44.6522 14.016C44.5722 13.819 44.4142 13.66 44.1772 13.542C43.9532 13.423 43.6242 13.364 43.1892 13.364C42.5832 13.364 42.1612 13.476 41.9242 13.7C41.6872 13.91 41.5692 14.253 41.5692 14.728V16.131C41.5692 16.619 41.6082 16.994 41.6872 17.258C41.7662 17.508 41.9312 17.679 42.1812 17.772C42.4312 17.864 42.8142 17.91 43.3282 17.91C43.7752 17.91 44.0852 17.864 44.2562 17.771C44.4282 17.666 44.5132 17.501 44.5132 17.277V17.237H48.1902V17.475C48.1902 18.16 47.9852 18.766 47.5772 19.293C47.1822 19.82 46.6152 20.235 45.8772 20.538C45.1532 20.842 44.2832 20.993 43.2682 20.993ZM52.8312 20.796H49.1352V10.636H52.5952V13.522L52.8312 13.621V20.796ZM52.8312 14.372H52.0812V12.178H52.7722C53.0622 11.678 53.4442 11.262 53.9182 10.933C54.4062 10.603 54.9862 10.439 55.6582 10.439C56.3172 10.439 56.8372 10.57 57.2192 10.834C57.6012 11.098 57.8782 11.474 58.0492 11.961C58.2212 12.448 58.3062 13.028 58.3062 13.7V15.538H54.5902V14.53C54.5902 14.148 54.5382 13.891 54.4322 13.76C54.3272 13.627 54.1022 13.562 53.7602 13.562C53.4572 13.562 53.2272 13.608 53.0692 13.7C52.9102 13.779 52.8312 14.003 52.8312 14.372ZM62.6562 20.796H58.9602V7.553H62.6562V20.796ZM67.5392 9.727H63.8432V7.553H67.5392V9.727ZM67.5592 20.796H63.8432V10.636H67.5592V20.796ZM79.3192 20.796H75.6042V15.064C75.6042 14.524 75.5052 14.148 75.3082 13.937C75.1232 13.727 74.7012 13.621 74.0422 13.621C73.6342 13.621 73.3122 13.661 73.0742 13.739C72.8621 13.8082 72.685 13.9569 72.5802 14.154C72.4882 14.352 72.4422 14.636 72.4422 15.004H71.8492V12.178H72.3822C72.5602 11.8049 72.8244 11.4795 73.1532 11.229C73.4832 10.966 73.8652 10.769 74.2992 10.636C74.755 10.5014 75.2281 10.435 75.7032 10.439C76.5862 10.439 77.2902 10.617 77.8182 10.972C78.3452 11.315 78.7272 11.782 78.9642 12.376C79.2012 12.956 79.3202 13.595 79.3202 14.293L79.3192 20.796ZM72.4422 20.796H68.7462V10.636H72.2052V13.423L72.4422 13.522V20.796ZM84.8502 20.796H80.4232V16.704H84.8502V20.796ZM18.2332 4.618H1.76223C0.852234 4.618 0.115234 5.355 0.115234 6.265V22.735C0.115234 23.645 0.852234 24.382 1.76223 24.382H18.2322C19.1422 24.382 19.8802 23.645 19.8802 22.735V6.265C19.8802 5.355 19.1422 4.618 18.2332 4.618ZM15.7622 2.97H4.23223C4.01404 2.96974 3.80486 2.88294 3.65058 2.72866C3.49629 2.57437 3.4095 2.36519 3.40923 2.147V1.324C3.40923 0.869 3.77823 0.5 4.23223 0.5H15.7622C16.2172 0.5 16.5852 0.869 16.5852 1.324V2.147C16.5852 2.36537 16.4986 2.5748 16.3442 2.7293C16.1899 2.8838 15.9806 2.96973 15.7622 2.97ZM15.7622 28.5H4.23223C4.01404 28.4997 3.80486 28.4129 3.65058 28.2587C3.49629 28.1044 3.4095 27.8952 3.40923 27.677V26.853C3.40923 26.398 3.77823 26.029 4.23223 26.029H15.7622C16.2172 26.029 16.5852 26.399 16.5852 26.853V27.676C16.5852 27.8944 16.4986 28.1038 16.3442 28.2583C16.1899 28.4128 15.9806 28.4997 15.7622 28.5Z" fill="#4A4A4A"/>
<path fill-rule="evenodd" clip-rule="evenodd" d="M16.6346 12.0799C16.711 12.1563 16.7717 12.2471 16.813 12.3469C16.8544 12.4468 16.8757 12.5538 16.8757 12.6619C16.8757 12.77 16.8544 12.877 16.813 12.9769C16.7717 13.0768 16.711 13.1675 16.6346 13.2439L10.1676 19.7119C10.0131 19.8664 9.80356 19.9531 9.58509 19.9531C9.36663 19.9531 9.15711 19.8664 9.00259 19.7119L4.18259 14.8919C4.02816 14.7374 3.94141 14.5279 3.94141 14.3094C3.94141 14.091 4.02816 13.8814 4.18259 13.7269L5.92959 11.9799C6.08407 11.8258 6.29338 11.7392 6.51159 11.7392C6.72981 11.7392 6.93912 11.8258 7.09359 11.9799L9.58559 14.4699L13.7236 10.3319C13.8 10.2555 13.8908 10.1949 13.9906 10.1535C14.0905 10.1121 14.1975 10.0908 14.3056 10.0908C14.4137 10.0908 14.5207 10.1121 14.6206 10.1535C14.7204 10.1949 14.8112 10.2555 14.8876 10.3319L16.6346 12.0799Z" fill="#4A4A4A"/>
</g>
</svg>
