<svg width="40" height="40" viewBox="0 0 40 40" fill="none" xmlns="http://www.w3.org/2000/svg">
<path d="M21.25 18.75V33.75C21.25 34.0815 21.1183 34.3995 20.8839 34.6339C20.6495 34.8683 20.3315 35 20 35C19.6685 35 19.3505 34.8683 19.1161 34.6339C18.8817 34.3995 18.75 34.0815 18.75 33.75V18.75C18.75 18.4185 18.8817 18.1005 19.1161 17.8661C19.3505 17.6317 19.6685 17.5 20 17.5C20.3315 17.5 20.6495 17.6317 20.8839 17.8661C21.1183 18.1005 21.25 18.4185 21.25 18.75ZM31.25 30C30.9185 30 30.6005 30.1317 30.3661 30.3661C30.1317 30.6005 30 30.9185 30 31.25V33.75C30 34.0815 30.1317 34.3995 30.3661 34.6339C30.6005 34.8683 30.9185 35 31.25 35C31.5815 35 31.8995 34.8683 32.1339 34.6339C32.3683 34.3995 32.5 34.0815 32.5 33.75V31.25C32.5 30.9185 32.3683 30.6005 32.1339 30.3661C31.8995 30.1317 31.5815 30 31.25 30ZM35 25H32.5V6.25C32.5 5.91848 32.3683 5.60054 32.1339 5.36612C31.8995 5.1317 31.5815 5 31.25 5C30.9185 5 30.6005 5.1317 30.3661 5.36612C30.1317 5.60054 30 5.91848 30 6.25V25H27.5C27.1685 25 26.8505 25.1317 26.6161 25.3661C26.3817 25.6005 26.25 25.9185 26.25 26.25C26.25 26.5815 26.3817 26.8995 26.6161 27.1339C26.8505 27.3683 27.1685 27.5 27.5 27.5H35C35.3315 27.5 35.6495 27.3683 35.8839 27.1339C36.1183 26.8995 36.25 26.5815 36.25 26.25C36.25 25.9185 36.1183 25.6005 35.8839 25.3661C35.6495 25.1317 35.3315 25 35 25ZM8.75 25C8.41848 25 8.10054 25.1317 7.86612 25.3661C7.6317 25.6005 7.5 25.9185 7.5 26.25V33.75C7.5 34.0815 7.6317 34.3995 7.86612 34.6339C8.10054 34.8683 8.41848 35 8.75 35C9.08152 35 9.39946 34.8683 9.63388 34.6339C9.8683 34.3995 10 34.0815 10 33.75V26.25C10 25.9185 9.8683 25.6005 9.63388 25.3661C9.39946 25.1317 9.08152 25 8.75 25ZM12.5 20H10V6.25C10 5.91848 9.8683 5.60054 9.63388 5.36612C9.39946 5.1317 9.08152 5 8.75 5C8.41848 5 8.10054 5.1317 7.86612 5.36612C7.6317 5.60054 7.5 5.91848 7.5 6.25V20H5C4.66848 20 4.35054 20.1317 4.11612 20.3661C3.8817 20.6005 3.75 20.9185 3.75 21.25C3.75 21.5815 3.8817 21.8995 4.11612 22.1339C4.35054 22.3683 4.66848 22.5 5 22.5H12.5C12.8315 22.5 13.1495 22.3683 13.3839 22.1339C13.6183 21.8995 13.75 21.5815 13.75 21.25C13.75 20.9185 13.6183 20.6005 13.3839 20.3661C13.1495 20.1317 12.8315 20 12.5 20ZM23.75 12.5H21.25V6.25C21.25 5.91848 21.1183 5.60054 20.8839 5.36612C20.6495 5.1317 20.3315 5 20 5C19.6685 5 19.3505 5.1317 19.1161 5.36612C18.8817 5.60054 18.75 5.91848 18.75 6.25V12.5H16.25C15.9185 12.5 15.6005 12.6317 15.3661 12.8661C15.1317 13.1005 15 13.4185 15 13.75C15 14.0815 15.1317 14.3995 15.3661 14.6339C15.6005 14.8683 15.9185 15 16.25 15H23.75C24.0815 15 24.3995 14.8683 24.6339 14.6339C24.8683 14.3995 25 14.0815 25 13.75C25 13.4185 24.8683 13.1005 24.6339 12.8661C24.3995 12.6317 24.0815 12.5 23.75 12.5Z" fill="#1A1A1A"/>
</svg>
