<svg width="18" height="18" viewBox="0 0 18 18" fill="none" xmlns="http://www.w3.org/2000/svg">
<path fill-rule="evenodd" clip-rule="evenodd" d="M9.38301 6.597V7.86975C9.64955 7.46376 10.0169 7.13392 10.4492 6.91253C10.8815 6.69114 11.3638 6.58577 11.849 6.60675C14.4403 6.60675 15.0005 8.22675 15.0005 10.3343V14.625H12.6005V10.821C12.6005 9.9135 12.4175 8.7465 11.0045 8.7465C9.63426 8.7465 9.40026 9.73425 9.40026 10.7535V14.625H7.00776V6.597H9.38301ZM5.40051 4.5795C5.40022 4.81725 5.32974 5.04963 5.19792 5.24749C5.0661 5.44535 4.87881 5.5999 4.65951 5.69175C4.44031 5.78286 4.19895 5.80669 3.96616 5.76022C3.73337 5.71374 3.51967 5.59905 3.35226 5.43075C3.18454 5.26234 3.07035 5.04811 3.02406 4.81498C2.97777 4.58185 3.00144 4.34023 3.0921 4.12052C3.18275 3.90081 3.33635 3.71281 3.53357 3.58015C3.73079 3.4475 3.96283 3.37613 4.20051 3.375C4.35848 3.375 4.51489 3.40619 4.66078 3.46677C4.80666 3.52736 4.93915 3.61615 5.05064 3.72806C5.16213 3.83997 5.25042 3.97279 5.31046 4.1189C5.3705 4.26501 5.40111 4.42154 5.40051 4.5795Z" fill="#666666"/>
<path d="M5.4 6.60693H3V14.6252H5.4V6.60693Z" fill="#666666"/>
</svg>
