<svg width="116" height="29" viewBox="0 0 116 29" fill="none" xmlns="http://www.w3.org/2000/svg">
<mask id="mask0_11513_474" style="mask-type:luminance" maskUnits="userSpaceOnUse" x="0" y="0" width="116" height="29">
<path d="M0.314941 0.5H115.115V28.5H0.314941V0.5Z" fill="white"/>
</mask>
<g mask="url(#mask0_11513_474)">
<path opacity="0.4" d="M4.18794 14.1631V28.5001H0.314941V17.2591L4.18794 14.1631Z" fill="#4A4A4A"/>
<path d="M4.18799 14.1641V28.5001H8.06099V16.5621L4.18799 14.1641Z" fill="#4A4A4A"/>
<path opacity="0.5" d="M11.8198 8.30713V28.5001H6.65576V12.5811L11.8198 8.30713Z" fill="#4A4A4A"/>
<path d="M11.8198 8.30713V28.5001H16.9838V11.5061L11.8198 8.30713Z" fill="#4A4A4A"/>
<path opacity="0.6" d="M21.3579 0.5V28.5H14.4019V6.894L21.3579 0.5Z" fill="#4A4A4A"/>
<path d="M21.3579 0.5V28.5H28.3149V6.894L21.3579 0.5Z" fill="#4A4A4A"/>
<mask id="mask1_11513_474" style="mask-type:luminance" maskUnits="userSpaceOnUse" x="36" y="0" width="80" height="29">
<path d="M115.116 0.5H36.7158V28.5H115.116V0.5Z" fill="white"/>
</mask>
<g mask="url(#mask1_11513_474)">
<path d="M36.9478 21.0239V8.60489H38.8108V21.0239H36.9478ZM43.5108 21.0239H41.7198V11.3999H43.3328V12.4029L44.3368 11.3999H47.9028L48.6728 12.1879L49.4428 11.3999H53.5298L54.7838 12.6359V21.0229H52.9918V13.0839H49.1928V21.0229H47.3998V13.0839H44.3718L43.5118 13.8539V21.0229L43.5108 21.0239ZM59.2258 24.6619H57.4348V11.3999H59.0468V12.4029L60.0508 11.3999H63.7238L64.9787 12.6359V19.7689L63.7238 21.0229H59.2268V24.6609L59.2258 24.6619ZM63.1858 13.0849H60.0858L59.2258 13.8549V19.3749H63.1858V13.0849ZM69.4108 21.0239H67.6198V11.3999H69.2328V12.6189L70.4698 11.3989H72.6918V13.1199H70.4338L69.4118 14.0879V21.0229L69.4108 21.0239ZM75.9927 9.66289H74.1287V7.97789H75.9927V9.66289ZM75.9568 21.0229H74.1648V11.4009H75.9568V21.0229ZM80.4367 21.0229H78.6437V11.4009H80.2568V12.4039L81.2608 11.4009H85.0958L86.3498 12.6369V21.0239H84.5398V13.0849H81.2967L80.4367 13.8549V21.0229ZM93.7888 21.0229H90.5808L89.3268 19.7699V12.8879H88.0008V11.4009H89.3268V9.44789H91.1188V11.3999H93.5918V12.8869H91.1188V19.3389H93.7888V21.0229ZM97.4308 9.66289H95.5668V7.97789H97.4308V9.66289ZM97.3947 21.0229H95.6027V11.4009H97.3947V21.0229ZM102.68 21.0229H100.888V12.8879H99.3288V11.4009H100.888V9.0529L102.143 7.81689H105.117V9.30389H102.68V11.4009H104.938V12.8879H102.68V21.0229ZM106.613 21.6329H108.351V23.1029H112.383V20.5039H107.724L106.487 19.2679V11.3999H108.279V18.9259H112.383V11.3999H114.175V23.4239L112.902 24.6609H107.885L106.613 23.4239V21.6329Z" fill="#4A4A4A"/>
</g>
</g>
</svg>
