<svg width="91" height="29" viewBox="0 0 91 29" fill="none" xmlns="http://www.w3.org/2000/svg">
<g clip-path="url(#clip0_11513_466)">
<mask id="mask0_11513_466" style="mask-type:luminance" maskUnits="userSpaceOnUse" x="0" y="0" width="91" height="29">
<path d="M0.956055 0.5H90.5561V28.5H0.956055V0.5Z" fill="white"/>
</mask>
<g mask="url(#mask0_11513_466)">
<path d="M49.0721 22.5351L42.9841 14.9191L48.6851 8.18408H44.9201L39.8421 14.5961V8.18408H36.7871V22.5351H39.8421V18.1251L40.9611 16.7911L45.3071 22.5351H49.0721Z" fill="#4A4A4A"/>
<path d="M56.2561 22.794C60.6021 22.794 63.7651 19.695 63.7651 15.37C63.7651 11.046 60.6021 7.948 56.2551 7.948C51.9311 7.948 48.7681 11.046 48.7681 15.37C48.7681 19.695 51.9311 22.794 56.2561 22.794ZM56.2561 20.082C53.6091 20.082 51.9101 18.038 51.9101 15.37C51.9101 12.681 53.6101 10.659 56.2561 10.659C58.9021 10.659 60.6231 12.681 60.6231 15.37C60.6231 18.038 58.9031 20.082 56.2561 20.082ZM73.6981 22.535C76.4301 22.535 77.8721 20.814 77.8721 18.662C77.8721 16.855 76.6451 15.37 75.1181 15.134C76.4731 14.854 77.5921 13.649 77.5921 11.841C77.5921 9.927 76.1941 8.184 73.4611 8.184H65.9091V22.535H73.6981ZM72.7941 13.929H68.9641V10.809H72.7941C73.8271 10.809 74.4721 11.476 74.4721 12.379C74.4721 13.283 73.8271 13.929 72.7941 13.929ZM72.9021 19.889H68.9641V16.554H72.9021C74.1061 16.554 74.7521 17.328 74.7521 18.232C74.7521 19.265 74.0641 19.889 72.9021 19.889ZM90.3311 22.535V19.845H83.2311V16.597H90.1811V13.907H83.2311V10.874H90.3311V8.184H80.1751V22.535H90.3311ZM28.1501 7.835V4.376H16.3121V0.5H12.5251V4.376H0.955078V7.836H12.5551V10.966H3.76008V24.892H7.33808V14.426H12.5561V28.5H16.2541V14.425H21.9491V20.985C21.9491 21.314 21.8001 21.463 21.3231 21.463C20.8461 21.463 19.0871 21.463 17.5961 21.403C18.1031 22.357 18.6391 23.878 18.7881 24.892C21.1141 24.892 22.8141 24.832 24.0661 24.296C25.2891 23.759 25.6461 22.745 25.6461 21.046V10.966H16.2541V7.836L28.1501 7.835Z" fill="#4A4A4A"/>
</g>
</g>
<defs>
<clipPath id="clip0_11513_466">
<rect width="91" height="29" fill="white"/>
</clipPath>
</defs>
</svg>
