<svg width="101" height="21" viewBox="0 0 101 21" fill="none" xmlns="http://www.w3.org/2000/svg">
<g clip-path="url(#clip0_11513_445)">
<mask id="mask0_11513_445" style="mask-type:luminance" maskUnits="userSpaceOnUse" x="0" y="0" width="101" height="21">
<path d="M0.214844 0H100.315V21H0.214844V0Z" fill="white"/>
</mask>
<g mask="url(#mask0_11513_445)">
<path d="M7.82886 20.5259C5.77886 20.4579 4.23186 19.9959 3.18386 19.1369C2.13586 18.2569 1.37886 17.2739 0.913857 16.1899C0.457796 15.1306 0.220057 13.9902 0.214857 12.8369C0.212856 11.6753 0.43879 10.5246 0.879857 9.44993C1.34586 8.34393 2.10186 7.36093 3.14986 6.50293C4.21986 5.62293 5.56986 5.17093 7.19986 5.14993H18.5159C20.1459 5.17193 21.4839 5.62393 22.5319 6.50393C23.6029 7.36193 24.3599 8.34393 24.8019 9.45093C25.2642 10.5201 25.5018 11.673 25.4999 12.8379C25.495 13.9915 25.2576 15.1322 24.8019 16.1919C24.3359 17.2749 23.5799 18.2579 22.5319 19.1379C21.4839 19.9959 19.9359 20.4589 17.8869 20.5269H7.82886V20.5259ZM7.05986 9.68693C6.61786 9.68693 6.23386 9.86693 5.90786 10.2289C5.57665 10.5766 5.32635 10.9932 5.17486 11.4489C5.03486 11.8999 4.96486 12.3519 4.96486 12.8029C4.96591 13.2849 5.03664 13.7642 5.17486 14.2259C5.33786 14.6779 5.58186 15.0839 5.90786 15.4459C6.23386 15.7839 6.61786 15.9649 7.05986 15.9869H18.6549C19.0956 15.9654 19.51 15.7706 19.8079 15.4449C20.1339 15.0849 20.3669 14.6779 20.5059 14.2259C20.6689 13.7519 20.7509 13.2779 20.7509 12.8029C20.7509 12.3519 20.6689 11.8999 20.5059 11.4489C20.3761 10.9914 20.1365 10.5726 19.8079 10.2289C19.4819 9.86793 19.0979 9.68693 18.6549 9.68693H7.05986ZM51.6939 7.11293C51.6939 7.67793 51.4609 8.15193 50.9949 8.53593C50.5529 8.89693 50.0059 9.07793 49.3549 9.07793H34.5799C34.2769 9.07793 34.0329 9.13393 33.8469 9.24693C33.682 9.34012 33.5389 9.46726 33.4269 9.61993C33.3339 9.73193 33.2879 9.83393 33.2879 9.92393C33.2879 10.0369 33.3339 10.1619 33.4279 10.2969C33.5209 10.4099 33.6599 10.5229 33.8469 10.6359C34.0329 10.7259 34.2769 10.7829 34.5799 10.8059H45.9999C47.4669 10.8279 48.6779 11.1099 49.6329 11.6519C50.5869 12.1719 51.2629 12.7919 51.6579 13.5149C52.0779 14.2149 52.2869 14.9259 52.2869 15.6489C52.2869 16.3489 52.0769 17.0589 51.6579 17.7819C51.2389 18.4819 50.5519 19.1039 49.5979 19.6449C48.6659 20.1649 47.4679 20.4249 45.9999 20.4249C45.8144 20.4432 45.6282 20.4542 45.4419 20.4579H31.8919C31.2399 20.4579 30.6819 20.2779 30.2149 19.9159C29.7729 19.5319 29.5519 19.0699 29.5519 18.5279C29.5519 17.9629 29.7849 17.4879 30.2499 17.1049C30.6929 16.7439 31.2399 16.5629 31.8919 16.5629H46.2809C46.6299 16.5859 46.9089 16.5409 47.1189 16.4279C47.3519 16.3149 47.5259 16.1909 47.6429 16.0549C47.7589 15.9199 47.8179 15.7849 47.8179 15.6489C47.8179 15.5809 47.7589 15.4679 47.6429 15.3089C47.5163 15.121 47.3326 14.979 47.1189 14.9039C46.9089 14.7909 46.6299 14.7229 46.2809 14.6999H34.8259C33.4759 14.6779 32.3579 14.4069 31.4729 13.8869C30.5879 13.3449 29.9589 12.7239 29.5869 12.0239C29.2149 11.3239 29.0279 10.6239 29.0279 9.92393C29.0279 9.22393 29.2149 8.53593 29.5869 7.85793C29.9829 7.15793 30.6109 6.55993 31.4729 6.06293C32.3579 5.54293 33.4749 5.26193 34.8259 5.21593C34.9996 5.19719 35.1741 5.18585 35.3489 5.18193H49.3539C50.0059 5.18193 50.5539 5.37393 50.9959 5.75793C51.4609 6.11993 51.6939 6.57093 51.6939 7.11293ZM58.5739 -6.94416e-05C59.1763 0.0117735 59.7512 0.254475 60.1799 0.677931C60.3948 0.870326 60.5678 1.10494 60.688 1.36714C60.8083 1.62935 60.8733 1.91352 60.8789 2.20193V18.7989C60.7389 20.1539 59.9709 20.8869 58.5739 20.9999C57.9487 21.0093 57.3411 20.7927 56.8629 20.3899C56.6384 20.1909 56.4597 19.9456 56.3391 19.671C56.2184 19.3964 56.1586 19.0989 56.1639 18.7989V2.20193C56.1681 1.90493 56.2358 1.61227 56.3624 1.34356C56.489 1.07486 56.6715 0.836315 56.8979 0.643931C57.3514 0.219327 57.9527 -0.0117011 58.5739 -6.94416e-05ZM72.5439 20.5259C70.4949 20.4579 68.9469 19.9959 67.8989 19.1369C66.8509 18.2569 66.0938 17.2739 65.6289 16.1909C65.1726 15.1313 64.9349 13.9906 64.9299 12.8369C64.9275 11.6754 65.1531 10.5246 65.5939 9.44993C66.0599 8.34393 66.8169 7.36193 67.8639 6.50393C68.9349 5.62293 70.2849 5.17093 71.9149 5.14893H83.2309C84.8609 5.17093 86.1989 5.62293 87.2469 6.50393C88.3179 7.36193 89.0749 8.34393 89.5169 9.44993C89.9796 10.5191 90.2175 11.6719 90.2159 12.8369C90.2107 13.9906 89.973 15.1313 89.5169 16.1909C89.0519 17.2749 88.2949 18.2569 87.2469 19.1369C86.1989 19.9949 84.6509 20.4579 82.6019 20.5269H72.5439V20.5259ZM71.7759 9.68693C71.3329 9.68693 70.9489 9.86793 70.6229 10.2289C70.2969 10.5679 70.0529 10.9749 69.8899 11.4489C69.7521 11.8871 69.6813 12.3436 69.6799 12.8029C69.6809 13.2849 69.7516 13.7642 69.8899 14.2259C70.0529 14.6779 70.2969 15.0839 70.6229 15.4459C70.9489 15.7839 71.3329 15.9649 71.7759 15.9869H83.3699C83.8103 15.9651 84.2243 15.7704 84.5219 15.4449C84.8479 15.0849 85.0809 14.6779 85.2209 14.2259C85.3829 13.7519 85.4649 13.2779 85.4649 12.8029C85.4629 12.3408 85.3804 11.8826 85.2209 11.4489C85.0905 10.9913 84.8502 10.5724 84.5209 10.2289C84.1959 9.86793 83.8109 9.68693 83.3699 9.68693H71.7759ZM97.7149 20.9999C98.0473 21.0066 98.3777 20.9468 98.6868 20.8242C98.9959 20.7016 99.2774 20.5185 99.5149 20.2858C99.7523 20.053 99.941 19.7752 100.07 19.4687C100.199 19.1621 100.265 18.8329 100.265 18.5004C100.265 18.1679 100.199 17.8387 100.07 17.5322C99.941 17.2256 99.7523 16.9478 99.5149 16.7151C99.2774 16.4823 98.9959 16.2993 98.6868 16.1766C98.3777 16.054 98.0473 15.9943 97.7149 16.0009C97.0518 16.0009 96.4159 16.2643 95.9471 16.7332C95.4782 17.202 95.2149 17.8379 95.2149 18.5009C95.2149 19.164 95.4782 19.7999 95.9471 20.2687C96.4159 20.7375 97.0518 20.9999 97.7149 20.9999Z" fill="#4A4A4A"/>
</g>
</g>
<defs>
<clipPath id="clip0_11513_445">
<rect width="101" height="21" fill="white"/>
</clipPath>
</defs>
</svg>
