<svg width="40" height="40" viewBox="0 0 40 40" fill="none" xmlns="http://www.w3.org/2000/svg">
<path d="M36.2501 21.3535C35.9845 24.4409 34.8427 27.3883 32.9589 29.8489C31.0752 32.3094 28.5278 34.1808 25.6166 35.2428C22.7054 36.3048 19.5515 36.5132 16.5258 35.8436C13.5002 35.174 10.7287 33.6542 8.53747 31.463C6.34625 29.2718 4.82642 26.5003 4.15681 23.4746C3.4872 20.449 3.69566 17.295 4.75766 14.3838C5.81966 11.4726 7.69102 8.92529 10.1516 7.04152C12.6121 5.15775 15.5595 4.01591 18.647 3.75034C18.8111 3.7368 18.9764 3.75572 19.1332 3.80603C19.29 3.85633 19.4354 3.93704 19.5611 4.04354C19.6867 4.15003 19.7902 4.28024 19.8655 4.42671C19.9408 4.57319 19.9866 4.73306 20.0001 4.89722C20.0137 5.06137 19.9947 5.22658 19.9444 5.38342C19.8941 5.54026 19.8134 5.68565 19.7069 5.8113C19.6004 5.93695 19.4702 6.0404 19.3237 6.11573C19.1773 6.19106 19.0174 6.2368 18.8532 6.25034C16.2401 6.47486 13.7454 7.44107 11.6628 9.03528C9.58013 10.6295 7.99614 12.7854 7.09718 15.2493C6.19822 17.7132 6.02169 20.3826 6.58837 22.9434C7.15504 25.5042 8.44135 27.8499 10.2959 29.7045C12.1505 31.5591 14.4962 32.8454 17.057 33.4121C19.6179 33.9788 22.2873 33.8022 24.7512 32.9033C27.2151 32.0043 29.371 30.4203 30.9652 28.3377C32.5594 26.255 33.5256 23.7604 33.7501 21.1472C33.7775 20.8157 33.9354 20.5086 34.1891 20.2935C34.4429 20.0785 34.7717 19.973 35.1032 20.0003C35.4348 20.0277 35.7418 20.1856 35.9569 20.4394C36.172 20.6931 36.2775 21.0219 36.2501 21.3535ZM18.7501 11.2503V20.0003C18.7501 20.3319 18.8818 20.6498 19.1162 20.8842C19.3506 21.1186 19.6686 21.2503 20.0001 21.2503H28.7501C29.0816 21.2503 29.3996 21.1186 29.634 20.8842C29.8684 20.6498 30.0001 20.3319 30.0001 20.0003C30.0001 19.6688 29.8684 19.3509 29.634 19.1165C29.3996 18.882 29.0816 18.7503 28.7501 18.7503H21.2501V11.2503C21.2501 10.9188 21.1184 10.6009 20.884 10.3665C20.6496 10.132 20.3316 10.0003 20.0001 10.0003C19.6686 10.0003 19.3506 10.132 19.1162 10.3665C18.8818 10.6009 18.7501 10.9188 18.7501 11.2503ZM25.0001 7.50034C25.371 7.50034 25.7335 7.39037 26.0418 7.18435C26.3501 6.97832 26.5905 6.68548 26.7324 6.34287C26.8743 6.00026 26.9114 5.62326 26.8391 5.25955C26.7667 4.89583 26.5882 4.56174 26.3259 4.29952C26.0637 4.03729 25.7296 3.85872 25.3659 3.78637C25.0022 3.71402 24.6252 3.75115 24.2826 3.89307C23.94 4.03498 23.6471 4.2753 23.4411 4.58365C23.2351 4.89199 23.1251 5.2545 23.1251 5.62534C23.1251 6.12262 23.3227 6.59954 23.6743 6.95117C24.0259 7.3028 24.5028 7.50034 25.0001 7.50034ZM30.6251 11.2503C30.996 11.2503 31.3585 11.1404 31.6668 10.9343C31.9751 10.7283 32.2155 10.4355 32.3574 10.0929C32.4993 9.75026 32.5364 9.37326 32.4641 9.00955C32.3917 8.64583 32.2132 8.31174 31.9509 8.04952C31.6887 7.78729 31.3546 7.60872 30.9909 7.53637C30.6272 7.46402 30.2502 7.50115 29.9076 7.64307C29.565 7.78498 29.2721 8.0253 29.0661 8.33365C28.8601 8.64199 28.7501 9.0045 28.7501 9.37534C28.7501 9.87262 28.9477 10.3495 29.2993 10.7012C29.6509 11.0528 30.1278 11.2503 30.6251 11.2503ZM34.3751 16.8753C34.746 16.8753 35.1085 16.7654 35.4168 16.5593C35.7251 16.3533 35.9655 16.0605 36.1074 15.7179C36.2493 15.3753 36.2864 14.9983 36.2141 14.6345C36.1417 14.2708 35.9632 13.9367 35.7009 13.6745C35.4387 13.4123 35.1046 13.2337 34.7409 13.1614C34.3772 13.089 34.0002 13.1262 33.6576 13.2681C33.315 13.41 33.0221 13.6503 32.8161 13.9586C32.6101 14.267 32.5001 14.6295 32.5001 15.0003C32.5001 15.4976 32.6977 15.9745 33.0493 16.3262C33.4009 16.6778 33.8778 16.8753 34.3751 16.8753Z" fill="#1A1A1A"/>
</svg>
