<svg width="108" height="29" viewBox="0 0 108 29" fill="none" xmlns="http://www.w3.org/2000/svg">
<mask id="mask0_11513_459" style="mask-type:luminance" maskUnits="userSpaceOnUse" x="0" y="0" width="108" height="29">
<path d="M0 0.5H107.956V28.5H0V0.5Z" fill="white"/>
</mask>
<g mask="url(#mask0_11513_459)">
<path d="M42.261 23.27C40.547 23.27 39.101 23.029 37.924 22.544C36.764 22.059 35.89 21.375 35.302 20.492C34.713 19.592 34.419 18.536 34.419 17.324V17.168H37.223V17.584C37.223 18.276 37.379 18.856 37.691 19.324C38.002 19.774 38.521 20.12 39.249 20.362C39.976 20.587 40.98 20.7 42.261 20.7C43.369 20.7 44.252 20.622 44.91 20.466C45.568 20.293 46.035 20.033 46.313 19.687C46.607 19.324 46.754 18.873 46.754 18.337C46.754 17.575 46.512 17.021 46.027 16.675C45.542 16.328 44.754 16.052 43.664 15.844L39.404 15.143C38.5073 14.9758 37.6351 14.6966 36.808 14.312C36.046 13.931 35.448 13.429 35.016 12.805C34.6 12.165 34.393 11.368 34.393 10.416C34.393 9.79298 34.531 9.17798 34.808 8.57198C35.085 7.96698 35.518 7.42198 36.106 6.93598C36.696 6.45198 37.457 6.07098 38.392 5.79398C39.344 5.49898 40.504 5.35198 41.872 5.35198C43.568 5.35198 44.962 5.61198 46.052 6.13198C47.144 6.65098 47.948 7.36098 48.468 8.26098C49.004 9.14398 49.273 10.157 49.273 11.299V11.455H46.494V11.117C46.494 10.407 46.338 9.81898 46.027 9.35098C45.715 8.86698 45.204 8.51098 44.495 8.28698C43.785 8.04398 42.824 7.92298 41.612 7.92298C40.556 7.92298 39.699 8.00998 39.042 8.18298C38.401 8.35598 37.933 8.61598 37.639 8.96198C37.344 9.29098 37.197 9.72398 37.197 10.26C37.197 10.745 37.301 11.143 37.509 11.455C37.717 11.767 38.037 12.018 38.469 12.208C38.902 12.381 39.456 12.546 40.132 12.701L44.365 13.429C45.525 13.636 46.485 13.948 47.247 14.363C48.027 14.779 48.607 15.307 48.987 15.948C49.367 16.588 49.559 17.333 49.559 18.181C49.559 19.064 49.308 19.895 48.805 20.674C48.303 21.453 47.515 22.084 46.442 22.57C45.369 23.037 43.974 23.27 42.261 23.27ZM57.731 23.011H54.251L50.381 10.105H53.289L55.445 17.428L56.042 20.752H56.25L57.21 17.168L59.911 10.105H63.495L66.222 17.168L67.182 20.752H67.391L67.988 17.428L70.143 10.105H73L69.079 23.01H65.599L62.769 15.583L61.781 12.415H61.574L60.587 15.583L57.73 23.01L57.731 23.011ZM77.229 23.011H74.424V10.105H77.229V23.011ZM77.229 8.59798H74.424V5.61198H77.229V8.59798ZM85.929 23.271C83.851 23.271 82.241 22.873 81.099 22.076C79.973 21.28 79.411 20.137 79.411 18.648V18.57H82.215V18.778C82.215 19.627 82.493 20.215 83.046 20.544C83.618 20.856 84.578 21.012 85.929 21.012C87.193 21.012 88.049 20.882 88.499 20.622C88.967 20.345 89.201 19.921 89.201 19.35C89.201 18.813 89.019 18.432 88.656 18.207C88.309 17.982 87.669 17.809 86.734 17.687L83.202 17.22C81.973 17.064 81.012 16.718 80.32 16.181C79.627 15.627 79.28 14.805 79.28 13.714C79.28 12.953 79.506 12.286 79.956 11.714C80.406 11.126 81.081 10.667 81.982 10.338C82.882 10.009 83.99 9.84498 85.306 9.84498C86.622 9.84498 87.746 10.018 88.682 10.365C89.634 10.711 90.362 11.23 90.863 11.922C91.383 12.615 91.643 13.472 91.643 14.493V14.571H88.863V14.416C88.863 13.913 88.76 13.489 88.552 13.143C88.344 12.797 87.972 12.537 87.435 12.363C86.915 12.173 86.18 12.078 85.228 12.078C84.033 12.078 83.202 12.217 82.735 12.494C82.267 12.771 82.034 13.212 82.034 13.818C82.034 14.32 82.207 14.684 82.554 14.908C82.899 15.134 83.549 15.316 84.501 15.454L87.487 15.87C89.011 16.06 90.136 16.432 90.863 16.986C91.59 17.54 91.953 18.354 91.953 19.427C91.953 20.224 91.703 20.917 91.201 21.505C90.699 22.076 89.998 22.518 89.097 22.829C88.197 23.124 87.141 23.271 85.929 23.271ZM100.08 23.271C98.003 23.271 96.392 22.873 95.25 22.076C94.125 21.28 93.562 20.137 93.562 18.648V18.57H96.367V18.778C96.367 19.627 96.643 20.215 97.197 20.544C97.769 20.856 98.73 21.012 100.08 21.012C101.344 21.012 102.201 20.882 102.651 20.622C103.118 20.345 103.352 19.921 103.352 19.35C103.352 18.813 103.17 18.432 102.807 18.207C102.461 17.982 101.82 17.809 100.885 17.687L97.353 17.22C96.124 17.064 95.163 16.718 94.471 16.181C93.778 15.627 93.432 14.805 93.432 13.714C93.432 12.953 93.657 12.286 94.107 11.714C94.557 11.126 95.233 10.667 96.133 10.338C97.033 10.009 98.141 9.84498 99.457 9.84498C100.773 9.84498 101.898 10.018 102.833 10.365C103.785 10.711 104.512 11.23 105.014 11.922C105.533 12.615 105.793 13.472 105.793 14.493V14.571H103.015V14.416C103.015 13.913 102.911 13.489 102.703 13.143C102.495 12.797 102.123 12.537 101.586 12.363C101.067 12.173 100.331 12.078 99.379 12.078C98.184 12.078 97.353 12.217 96.886 12.494C96.418 12.771 96.185 13.212 96.185 13.818C96.185 14.32 96.358 14.684 96.705 14.908C97.05 15.134 97.7 15.316 98.652 15.454L101.638 15.87C103.162 16.06 104.287 16.432 105.014 16.986C105.741 17.54 106.105 18.354 106.105 19.427C106.118 20.1886 105.85 20.9284 105.352 21.505C104.85 22.076 104.149 22.518 103.248 22.829C102.348 23.124 101.292 23.271 100.08 23.271ZM16.81 0.500977H11V11.501L16.81 6.00098V0.500977ZM0 17.31V11.502H11.001L5.501 17.31H0.001H0ZM27.81 11.502V17.311H16.809L22.309 11.502H27.81Z" fill="#4A4A4A"/>
<path d="M16.8316 11.479H10.9766V28.31H16.8316V11.479Z" fill="#4A4A4A"/>
</g>
</svg>
