<svg width="117" height="29" viewBox="0 0 117 29" fill="none" xmlns="http://www.w3.org/2000/svg">
<g clip-path="url(#clip0_11513_451)">
<mask id="mask0_11513_451" style="mask-type:luminance" maskUnits="userSpaceOnUse" x="0" y="0" width="117" height="29">
<path d="M0.169922 0.5H116.215V28.5H0.169922V0.5Z" fill="white"/>
</mask>
<g mask="url(#mask0_11513_451)">
<path d="M59.162 4.85619C57.0592 6.08942 55.094 7.54367 53.3 9.19419C51.4722 10.8275 49.684 12.5047 47.937 14.2242C46.9395 15.1879 45.9626 16.1728 45.007 17.1782L42.138 20.1962C41.6206 20.8033 41.0802 21.3903 40.518 21.9562C39.9568 22.5239 39.4158 23.1113 38.896 23.7172C39.7604 23.5099 40.6135 23.2582 41.452 22.9632C42.2375 22.6975 43.0276 22.4458 43.822 22.2082C44.4941 22.0702 45.1598 21.9024 45.817 21.7052C46.5137 21.498 47.2215 21.33 47.937 21.2022C48.6315 21.0361 49.343 20.9519 50.057 20.9512C50.805 20.9092 51.491 21.0142 52.115 21.2652C52.905 21.5582 53.383 22.0612 53.549 22.7742C53.6758 23.2142 53.6311 23.6858 53.424 24.0942C54.131 23.8842 54.817 23.6542 55.482 23.4032C56.189 23.1512 56.853 22.9212 57.477 22.7112L61.094 21.5802C62.2958 21.162 63.5246 20.8258 64.772 20.5742C65.1604 20.4841 65.5583 20.4418 65.957 20.4482C66.456 20.4062 66.892 20.4482 67.267 20.5732C67.641 20.6992 67.911 20.9302 68.077 21.2652C68.285 21.5582 68.306 21.9992 68.139 22.5852C68.015 22.9632 67.765 23.2772 67.391 23.5282C67.017 23.7382 66.581 23.9062 66.081 24.0312C65.583 24.1572 65.084 24.2612 64.585 24.3462C64.086 24.3882 63.692 24.4512 63.4 24.5342C61.987 24.9542 60.595 25.3942 59.223 25.8542L55.108 27.1122C54.401 27.3222 53.632 27.5322 52.801 27.7412C51.969 27.9922 51.179 28.0342 50.431 27.8662C50.141 27.8252 49.829 27.6992 49.496 27.4892C48.789 26.9442 48.456 26.4412 48.498 25.9802C48.54 25.5202 48.727 25.0582 49.059 24.5972H48.311C46.8023 24.8512 45.3044 25.1658 43.821 25.5402C42.5852 25.885 41.3588 26.2625 40.143 26.6722C38.9329 27.0923 37.6771 27.3665 36.402 27.4892C35.9305 27.5288 35.457 27.4421 35.03 27.2382C34.573 27.0702 34.24 26.7142 34.032 26.1692C33.866 25.7082 33.866 25.2682 34.032 24.8492C34.199 24.3882 34.427 23.9482 34.718 23.5292C33.6054 24.1924 32.461 24.8008 31.289 25.3522C30.249 25.8122 29.46 26.1482 28.919 26.3582C27.839 26.8182 26.675 27.3012 25.428 27.8042C24.181 28.3072 22.934 28.5372 21.687 28.4952C20.315 28.4112 19.484 28.0352 19.193 27.3632C18.902 26.6932 18.964 25.8552 19.38 24.8492C19.754 23.8012 20.357 22.6902 21.188 21.5172C22.0038 20.3223 22.8779 19.1682 23.807 18.0592C24.6513 17.0897 25.5247 16.1459 26.426 15.2292C27.216 14.3912 27.735 13.8462 27.984 13.5952L28.857 12.7152H25.303C24.139 12.7152 22.955 12.7352 21.749 12.7782C19.339 12.8612 16.948 12.9882 14.579 13.1552C12.1635 13.2812 9.7517 13.4699 7.346 13.7212C6.473 13.8462 5.621 13.9722 4.789 14.0982C3.9068 14.1835 3.03165 14.3305 2.17 14.5382C1.93798 14.587 1.70921 14.6501 1.485 14.7272C1.26406 14.8112 1.01995 14.8112 0.799004 14.7272C0.341004 14.5592 0.134004 14.2652 0.175004 13.8472C0.175004 13.3852 0.383004 13.0922 0.799004 12.9672C5.84204 11.6587 10.999 10.8373 16.199 10.5142C21.479 10.1372 26.696 9.90719 31.85 9.82319C32.9202 8.82674 34.0009 7.84169 35.092 6.86819C36.1848 5.89405 37.2865 4.93001 38.397 3.97619C39.0413 3.36863 39.665 2.73961 40.267 2.09019C41.016 1.29319 41.764 0.790187 42.512 0.580187C42.928 0.455187 43.282 0.476187 43.572 0.644187C43.905 0.769187 44.155 1.00019 44.321 1.33519C44.487 1.62919 44.549 1.96419 44.508 2.34119C44.4632 2.72442 44.2865 3.0801 44.008 3.34719C42.7315 4.42689 41.4638 5.51693 40.205 6.61719C38.9492 7.67289 37.7228 8.76297 36.527 9.88619C37.15 9.88619 37.732 9.96919 38.273 10.1372C38.771 10.2632 39.208 10.4722 39.582 10.7662C39.998 11.0592 40.289 11.4992 40.455 12.0862C40.579 12.5892 40.517 13.0292 40.268 13.4062C40.018 13.7422 39.707 13.9932 39.333 14.1612C38.958 14.2872 38.563 14.3072 38.148 14.2242C37.774 14.0982 37.483 13.8252 37.275 13.4062C36.6726 13.1818 36.0443 13.034 35.405 12.9662C34.7465 12.8451 34.0786 12.7822 33.409 12.7782L32.786 13.3442C30.9654 15.0915 29.157 16.8515 27.361 18.6242C25.491 20.5112 24.015 22.5442 22.934 24.7232C24.4585 24.4102 25.9589 23.9898 27.424 23.4652C28.9646 22.9191 30.4825 22.3109 31.974 21.6422C33.47 20.9721 34.9466 20.2595 36.402 19.5052C37.7895 18.7498 39.1419 17.9316 40.455 17.0532C42.035 15.4182 43.635 13.8252 45.256 12.2752C46.8982 10.7006 48.5822 9.17001 50.306 7.68519C51.3468 6.76185 52.407 5.86064 53.486 4.98219C54.5496 4.11481 55.6525 3.29662 56.791 2.53019C57.2319 2.20116 57.7465 1.98489 58.29 1.90019C58.872 1.77419 59.35 2.00519 59.724 2.59219C59.932 2.96919 59.974 3.38819 59.849 3.84919C59.809 4.05469 59.7276 4.2499 59.6097 4.42287C59.4917 4.59584 59.3397 4.74294 59.163 4.85519L59.162 4.85619Z" fill="#4A4A4A"/>
<path d="M95.6333 23.7804C94.6645 23.8668 93.7047 24.0351 92.7643 24.2834C91.8503 24.4934 90.9143 24.7034 89.9593 24.9124C87.4895 25.4935 85.0161 26.0592 82.5393 26.6094C80.0863 27.1124 77.5923 27.4894 75.0563 27.7414C74.3913 27.8254 73.6843 27.8884 72.9363 27.9304C72.2293 27.9724 71.5023 27.9504 70.7543 27.8674C70.0503 27.7843 69.3592 27.6153 68.6963 27.3644C68.0317 27.155 67.4166 26.8128 66.8883 26.3584C66.445 25.9989 66.0836 25.5489 65.8283 25.0384C65.5447 24.5591 65.374 24.0215 65.3293 23.4664C65.2448 22.9399 65.2877 22.4009 65.4543 21.8944C65.629 21.3365 65.9522 20.8367 66.3893 20.4484C66.6803 20.1554 67.1373 19.9244 67.7613 19.7574C68.4722 19.5385 69.2031 19.3911 69.9433 19.3174C70.7333 19.2334 71.5233 19.2124 72.3133 19.2544C73.1033 19.2954 73.7883 19.4424 74.3703 19.6944C74.9523 19.9454 75.3473 20.3024 75.5553 20.7634C75.8053 21.1824 75.7843 21.7264 75.4933 22.3974C75.2433 22.9004 74.8693 23.2574 74.3703 23.4664C73.8312 23.6868 73.2652 23.8347 72.6873 23.9064C72.0436 23.9484 71.3979 23.9484 70.7543 23.9064C70.1706 23.8342 69.5885 23.7502 69.0083 23.6544C69.1743 23.8224 69.5073 23.9694 70.0063 24.0944C70.5043 24.1784 71.0243 24.2414 71.5643 24.2844C72.0834 24.3231 72.6037 24.3438 73.1243 24.3464H74.0593C76.0916 24.1794 78.1116 23.8855 80.1073 23.4664C82.1443 23.0464 84.1603 22.6064 86.1553 22.1464C87.6103 21.8104 89.0443 21.4754 90.4573 21.1404C91.9123 20.7624 93.3673 20.4904 94.8223 20.3224C95.4463 20.2814 95.9653 20.4274 96.3813 20.7624C96.7963 21.0984 97.0673 21.4964 97.1913 21.9574C97.3163 22.3774 97.2543 22.7744 97.0043 23.1524C96.7963 23.5294 96.3393 23.7384 95.6333 23.7804Z" fill="#4A4A4A"/>
<path d="M114.452 23.7801C112.332 23.8221 110.17 23.8851 107.967 23.9701C105.782 24.0138 103.6 23.7598 101.483 23.2151C101.309 23.2131 101.138 23.1699 100.984 23.0891C100.717 23.8335 100.339 24.5331 99.8623 25.1641C99.4192 25.7773 98.8944 26.3271 98.3023 26.7981C97.729 27.2546 97.073 27.5962 96.3703 27.8041C95.7053 28.0141 95.0403 28.0341 94.3743 27.8671C93.7513 27.6991 93.2943 27.3851 93.0033 26.9241C92.6711 26.4638 92.4765 25.9186 92.4423 25.3521C92.4022 24.7545 92.487 24.1551 92.6913 23.5921C92.8573 23.0051 93.1073 22.4821 93.4393 22.0201C93.9828 21.3471 94.692 20.8271 95.4973 20.5111C96.3283 20.1761 97.1593 20.1341 97.9913 20.3861C98.0743 19.7991 98.4073 19.3381 98.9893 19.0021C99.5713 18.6671 100.194 18.7091 100.859 19.1281C101.484 19.5052 102.154 19.801 102.854 20.0081C103.603 20.1761 104.372 20.2811 105.162 20.3231C105.951 20.3641 106.72 20.3861 107.468 20.3861C108.258 20.3441 109.007 20.3231 109.713 20.3231C110.608 20.32 111.503 20.278 112.394 20.1971C113.351 20.0711 114.223 20.1341 115.013 20.3861C115.471 20.5531 115.782 20.8261 115.948 21.2031C116.156 21.5801 116.219 21.9571 116.136 22.3341C116.092 22.7171 115.915 23.0727 115.637 23.3401C115.346 23.6341 114.951 23.7801 114.452 23.7801ZM95.8093 24.5981C95.9333 24.4721 96.1833 24.4091 96.5573 24.4091V23.8431C96.4398 23.9563 96.3149 24.0616 96.1833 24.1581C96.0163 24.2411 95.8923 24.3881 95.8093 24.5981Z" fill="#4A4A4A"/>
</g>
</g>
<defs>
<clipPath id="clip0_11513_451">
<rect width="117" height="29" fill="white"/>
</clipPath>
</defs>
</svg>
